<?xml version="1.0" encoding="utf-8"?>
<!-- Generated by IcoMoon.io -->
<!DOCTYPE svg PUBLIC "-//W3C//DTD SVG 1.1//EN" "http://www.w3.org/Graphics/SVG/1.1/DTD/svg11.dtd">
<svg version="1.1" xmlns="http://www.w3.org/2000/svg" xmlns:xlink="http://www.w3.org/1999/xlink" width="32" height="32" viewBox="0 0 32 32">
<path d="M28 15.313v-1.313c0-1.125-0.875-2-2-2h-4.688v8h2v-2.688h1.563l1.125 2.688h2l-1.188-2.813c0.688-0.313 1.188-1.063 1.188-1.875zM16.813 20l2.375-8h-2l-1.375 4.563-1.313-4.563h-2l2.313 8h2zM10.688 18v-4c0-1.125-0.875-2-2-2h-4.688v8h4.688c1.125 0 2-0.875 2-2zM28 4c1.5 0 2.688 1.188 2.688 2.688v18.625c0 1.438-1.188 2.688-2.688 2.688h-24c-1.5 0-2.688-1.25-2.688-2.688v-18.625c0-1.5 1.188-2.688 2.688-2.688h24zM6 14h2.688v4h-2.688v-4zM23.313 14h2.688v1.313h-2.688v-1.313z"></path>
</svg>
