<?xml version="1.0" encoding="utf-8"?>
<!-- Generated by IcoMoon.io -->
<!DOCTYPE svg PUBLIC "-//W3C//DTD SVG 1.1//EN" "http://www.w3.org/Graphics/SVG/1.1/DTD/svg11.dtd">
<svg version="1.1" xmlns="http://www.w3.org/2000/svg" xmlns:xlink="http://www.w3.org/1999/xlink" width="32" height="32" viewBox="0 0 32 32">
<path d="M27.313 18.688v-6.688h-1.625v6h-1.5v-4.688h-1.688v4.688h-1.5v-6h-1.688v6.688c0 0.75 0.625 1.313 1.375 1.313h5.313c0.75 0 1.313-0.563 1.313-1.313zM18 13.688v-1.688h-5.313v8h5.313v-1.688h-3.313v-1.438h3.313v-1.688h-3.313v-1.5h3.313zM11.313 20v-8h-1.625v4.688l-3.375-4.688h-1.625v8h1.625v-4.688l3.438 4.688h1.563zM26.688 5.313c1.5 0 2.625 1.188 2.625 2.688v16c0 1.5-1.125 2.688-2.625 2.688h-21.375c-1.5 0-2.625-1.188-2.625-2.688v-16c0-1.5 1.125-2.688 2.625-2.688h21.375z"></path>
</svg>
