<?xml version="1.0" encoding="utf-8"?>
<!-- Generated by IcoMoon.io -->
<!DOCTYPE svg PUBLIC "-//W3C//DTD SVG 1.1//EN" "http://www.w3.org/Graphics/SVG/1.1/DTD/svg11.dtd">
<svg version="1.1" xmlns="http://www.w3.org/2000/svg" xmlns:xlink="http://www.w3.org/1999/xlink" width="32" height="32" viewBox="0 0 32 32">
<path d="M8.007 10c-1.661 0-3.007 1.342-3.007 2.999v7.002c0 1.656 1.336 2.999 3.007 2.999h16.986c1.661 0 3.007-1.342 3.007-2.999v-7.002c0-1.656-1.336-2.999-3.007-2.999h-16.986zM11 17v3h-1v-3l-2-3v-1h1v1l1.5 2.25 1.5-2.25v-1h1v1l-2 3zM16.5 16l1.5-3h1v7h-1v-5l-1 2h-1l-1-2v5h-1v-7h1l1.5 3zM25 19v1h-5v-7h1v6h4z"></path>
</svg>
