<?xml version="1.0" encoding="utf-8"?>
<!-- Generated by IcoMoon.io -->
<!DOCTYPE svg PUBLIC "-//W3C//DTD SVG 1.1//EN" "http://www.w3.org/Graphics/SVG/1.1/DTD/svg11.dtd">
<svg version="1.1" xmlns="http://www.w3.org/2000/svg" xmlns:xlink="http://www.w3.org/1999/xlink" width="32" height="32" viewBox="0 0 32 32">
<path d="M22.188 20.188l6.438 6.5-1.938 1.938-6.5-6.438c-1.563 1.125-3.438 1.813-5.5 1.813-2.563 0-4.938-1.063-6.625-2.75l-2.75 2.75v-8h8l-3.375 3.375c1.188 1.188 2.938 1.938 4.75 1.938 3.25 0 5.875-2.25 6.5-5.313h2.688c-0.188 1.563-0.813 3-1.688 4.188zM14.688 8c-3.25 0-5.938 2.25-6.563 5.313h-2.688c0.625-4.5 4.563-8 9.25-8 2.563 0 4.875 1.063 6.563 2.75l2.75-2.75v8h-8l3.375-3.375c-1.188-1.188-2.875-1.938-4.688-1.938z"></path>
</svg>
