<?xml version="1.0" encoding="utf-8"?>
<!-- Generated by IcoMoon.io -->
<!DOCTYPE svg PUBLIC "-//W3C//DTD SVG 1.1//EN" "http://www.w3.org/Graphics/SVG/1.1/DTD/svg11.dtd">
<svg version="1.1" xmlns="http://www.w3.org/2000/svg" xmlns:xlink="http://www.w3.org/1999/xlink" width="32" height="32" viewBox="0 0 32 32">
<path d="M12 17.313c0-2.188 1.813-4 4-4s4 1.813 4 4-1.813 4-4 4-4-1.813-4-4zM26.688 26.125l-5.125-5.125c0.688-1.063 1.125-2.313 1.125-3.688 0-3.688-3-6.625-6.688-6.625s-6.688 2.938-6.688 6.625 3 6.688 6.688 6.688c1.375 0 2.625-0.438 3.688-1.125l5.875 5.938c-0.438 0.313-0.938 0.5-1.563 0.5h-16c-1.438 0-2.688-1.188-2.688-2.625l0.063-21.375c0-1.438 1.188-2.625 2.625-2.625h10.688l8 8v15.438z"></path>
</svg>
