<?xml version="1.0" encoding="utf-8"?>
<!-- Generated by IcoMoon.io -->
<!DOCTYPE svg PUBLIC "-//W3C//DTD SVG 1.1//EN" "http://www.w3.org/Graphics/SVG/1.1/DTD/svg11.dtd">
<svg version="1.1" xmlns="http://www.w3.org/2000/svg" xmlns:xlink="http://www.w3.org/1999/xlink" width="32" height="32" viewBox="0 0 32 32">
<path d="M19.875 29.313h-0.188c-2.125-0.563-3.5-1.375-4.938-2.813-1.875-1.875-2.875-4.313-2.875-6.938 0-2.188 1.813-3.938 4.063-3.938s4.125 1.75 4.125 3.938c0 1.438 1.188 2.563 2.75 2.563s2.813-1.125 2.813-2.563c0-5-4.375-9.125-9.688-9.125-3.813 0-7.25 2.125-8.813 5.375-0.5 1.063-0.75 2.375-0.75 3.75 0 1.063 0.063 2.688 0.875 4.813 0.286 0.858-0.967 1.145-1.25 0.438-0.625-1.75-1-3.438-1-5.25 0-1.625 0.313-3.063 0.938-4.313 1.75-3.75 5.688-6.188 10-6.188 6.063 0 11 4.75 11 10.5 0 2.188-1.875 3.875-4.125 3.875s-4.063-1.688-4.063-3.875c0-1.438-1.25-2.625-2.813-2.625s-2.75 1.188-2.75 2.625c0 2.25 0.875 4.375 2.5 6 1.25 1.25 2.5 1.938 4.375 2.438 0.375 0.063 0.5 0.438 0.438 0.813-0.063 0.313-0.375 0.5-0.625 0.5zM16.563 19.563c0 3.047 2.518 5.688 6 5.688 0.623 0 2.048-0.46 2.188 0.375 0.063 0.375-0.188 0.75-0.563 0.813-0.75 0.125-1.438 0.125-1.625 0.125-1.563 0-3-0.375-4.125-1.188-2-1.375-3.188-3.5-3.188-5.813 0-0.375 0.313-0.688 0.688-0.688s0.625 0.313 0.625 0.688zM13 29.063c-0.188 0-0.313-0.063-0.438-0.188-1.188-1.188-1.813-1.938-2.688-3.563-0.938-1.625-1.438-3.625-1.438-5.75 0-3.938 3.375-7.188 7.563-7.188s7.563 3.25 7.563 7.188c0 0.375-0.313 0.625-0.688 0.625s-0.688-0.25-0.688-0.625c0-3.25-2.75-5.875-6.188-5.875s-6.188 2.625-6.188 5.875c0 1.938 0.375 3.688 1.188 5.125 0.875 1.563 1.5 2.188 2.5 3.25 0.25 0.25 0.25 0.688 0 0.938-0.125 0.125-0.313 0.188-0.5 0.188zM4.688 12.938c-0.551 0-0.868-0.49-0.563-1 1.313-1.875 3-3.375 5-4.375 4.188-2.188 9.563-2.188 13.75 0 2 1 3.688 2.438 5 4.313 0.188 0.313 0.125 0.75-0.188 0.938s-0.75 0.125-0.938-0.188c-1.188-1.688-2.688-2.938-4.5-3.875-3.813-1.938-8.688-2-12.5 0-1.813 0.938-3.375 2.25-4.563 3.938-0.125 0.188-0.313 0.25-0.5 0.25zM23.75 5.938c-0.125 0-0.25 0-0.313-0.063-2.563-1.313-4.813-1.875-7.438-1.875s-5.188 0.625-7.438 1.875c-0.731 0.438-1.352-0.751-0.625-1.188 2.5-1.375 5.188-2 8.063-2 2.813 0 5.313 0.625 8.063 2 0.569 0.341 0.325 1.25-0.313 1.25z"></path>
</svg>
