<?xml version="1.0" encoding="utf-8"?>
<!-- Generated by IcoMoon.io -->
<!DOCTYPE svg PUBLIC "-//W3C//DTD SVG 1.1//EN" "http://www.w3.org/Graphics/SVG/1.1/DTD/svg11.dtd">
<svg version="1.1" xmlns="http://www.w3.org/2000/svg" xmlns:xlink="http://www.w3.org/1999/xlink" width="32" height="32" viewBox="0 0 32 32">
<path d="M25.313 28v-2.688h2.688c0 1.438-1.25 2.688-2.688 2.688zM25.313 17.313v-2.625h2.688v2.625h-2.688zM20 6.688v-2.688h2.688v2.688h-2.688zM25.313 22.688v-2.688h2.688v2.688h-2.688zM14.688 30.688v-29.375h2.625v29.375h-2.625zM25.313 4c1.438 0 2.688 1.25 2.688 2.688h-2.688v-2.688zM4 6.688c0-1.438 1.25-2.688 2.688-2.688h5.313v2.688h-5.313v18.625h5.313v2.688h-5.313c-1.438 0-2.688-1.25-2.688-2.688v-18.625zM25.313 12v-2.688h2.688v2.688h-2.688zM20 28v-2.688h2.688v2.688h-2.688z"></path>
</svg>
