<?xml version="1.0" encoding="utf-8"?>
<!-- Generated by IcoMoon.io -->
<!DOCTYPE svg PUBLIC "-//W3C//DTD SVG 1.1//EN" "http://www.w3.org/Graphics/SVG/1.1/DTD/svg11.dtd">
<svg version="1.1" xmlns="http://www.w3.org/2000/svg" xmlns:xlink="http://www.w3.org/1999/xlink" width="32" height="32" viewBox="0 0 32 32">
<path d="M20 16h-1v-2h-1v2h-1v-2h-1v2h-1v-2h-1v2h-1v-2h-1v2h-2v1h2v2h1v-2h1v2h1v-2h1v2h1v-2h1v2h1v-2h1v2h1v-2h2v-1h-2v-2h-1v2zM16.5 9v0c9.5 0 13.5 7.5 13.5 7.5s-4 7.5-13.5 7.5c-9.5 0-13.5-7.5-13.5-7.5s4-7.5 13.5-7.5zM16.5 10c-8.5 0-12.3 6.5-12.3 6.5s3.8 6.5 12.3 6.5c8.5 0 12.3-6.5 12.3-6.5s-3.8-6.5-12.3-6.5v0z"></path>
</svg>
