<?xml version="1.0" encoding="utf-8"?>
<!-- Generated by IcoMoon.io -->
<!DOCTYPE svg PUBLIC "-//W3C//DTD SVG 1.1//EN" "http://www.w3.org/Graphics/SVG/1.1/DTD/svg11.dtd">
<svg version="1.1" xmlns="http://www.w3.org/2000/svg" xmlns:xlink="http://www.w3.org/1999/xlink" width="32" height="32" viewBox="0 0 32 32">
<path d="M18 20.688c1.125 0 2-0.875 2-2s-0.875-2-2-2h-4.688v4h4.688zM13.313 8.688v4h4c1.125 0 2-0.875 2-2s-0.875-2-2-2h-4zM20.813 14.375c1.75 0.813 2.875 2.563 2.875 4.563 0 2.813-2.125 5.063-4.938 5.063h-9.438v-18.688h8.375c3 0 5.313 2.375 5.313 5.375 0 1.375-0.875 2.813-2.188 3.688z"></path>
</svg>
