<?xml version="1.0" encoding="utf-8"?>
<!-- Generated by IcoMoon.io -->
<!DOCTYPE svg PUBLIC "-//W3C//DTD SVG 1.1//EN" "http://www.w3.org/Graphics/SVG/1.1/DTD/svg11.dtd">
<svg version="1.1" xmlns="http://www.w3.org/2000/svg" xmlns:xlink="http://www.w3.org/1999/xlink" width="32" height="32" viewBox="0 0 32 32">
<path d="M14.25 17h3.5l-1.75-5.125zM18.313 18.688h-4.688l-0.938 2.625h-2.188l4.563-12h1.875l4.5 12h-2.125zM25.313 6.688h2.688v-2.688h-2.688v2.688zM28 28v-2.688h-2.688v2.688h2.688zM22.688 25.313v-2.625h2.625v-13.375h-2.625v-2.625h-13.375v2.625h-2.625v13.375h2.625v2.625h13.375zM6.688 28v-2.688h-2.688v2.688h2.688zM4 4v2.688h2.688v-2.688h-2.688zM30.688 9.313h-2.688v13.375h2.688v8h-8v-2.688h-13.375v2.688h-8v-8h2.688v-13.375h-2.688v-8h8v2.688h13.375v-2.688h8v8z"></path>
</svg>
