<?xml version="1.0" encoding="utf-8"?>
<!-- Generated by IcoMoon.io -->
<!DOCTYPE svg PUBLIC "-//W3C//DTD SVG 1.1//EN" "http://www.w3.org/Graphics/SVG/1.1/DTD/svg11.dtd">
<svg version="1.1" xmlns="http://www.w3.org/2000/svg" xmlns:xlink="http://www.w3.org/1999/xlink" width="32" height="32" viewBox="0 0 32 32">
<path d="M0 26.688h32v5.313h-32v-5.313zM25.313 15.313c0 0 2.688 2.938 2.688 4.688 0 1.438-1.25 2.688-2.688 2.688s-2.625-1.25-2.625-2.688c0-1.75 2.625-4.688 2.625-4.688zM6.938 13.313h12.813l-6.438-6.375zM22.063 11.938c0.813 0.813 0.813 2.063 0 2.813l-7.313 7.313c-0.375 0.375-0.938 0.625-1.438 0.625s-1-0.25-1.375-0.625l-7.375-7.313c-0.813-0.75-0.813-2 0-2.813l6.875-6.875-3.188-3.188 1.938-1.875z"></path>
</svg>
