<?xml version="1.0" encoding="utf-8"?>
<!-- Generated by IcoMoon.io -->
<!DOCTYPE svg PUBLIC "-//W3C//DTD SVG 1.1//EN" "http://www.w3.org/Graphics/SVG/1.1/DTD/svg11.dtd">
<svg version="1.1" xmlns="http://www.w3.org/2000/svg" xmlns:xlink="http://www.w3.org/1999/xlink" width="32" height="32" viewBox="0 0 32 32">
<path d="M17.625 20.25c0 0.204 0.395 0.438 0.625 0.438 0.125 0 0.313 0 0.438-0.125l0.25-0.313s0.125-0.25 0.125-0.375v-2.688c0 0-0.125-0.25-0.125-0.375 0-0.172-0.513-0.438-0.688-0.438-0.125 0-0.25 0.063-0.375 0.188l-0.25 0.25s-0.188 0.25-0.188 0.375v2.688s0.188 0.25 0.188 0.375zM20.125 18.938c0 0.375 0 0.813-0.125 1.063l-0.375 0.813s-0.438 0.375-0.688 0.375-0.563 0.125-0.813 0.125-0.563 0-0.813-0.125-0.375-0.25-0.625-0.375c-0.422-0.211-0.563-1.234-0.563-1.875v-0.938c0-0.375 0-0.813 0.125-1.063l0.438-0.813s0.375-0.375 0.625-0.375 0.563-0.125 0.813-0.125 0.563 0 0.813 0.125 0.438 0.25 0.688 0.375 0.25 0.438 0.375 0.813 0.125 0.688 0.125 1.063v0.938zM14.563 21.313h-1.25v-4.375l-1.313 0.375v-0.938l2.375-0.75h0.188v5.688zM5.313 17.313c0-5.875 4.813-10.625 10.688-10.625v-5.375l6.688 6.688-6.688 6.688v-5.375c-4.375 0-8 3.625-8 8s3.625 8 8 8 8-3.625 8-8h2.688c0 5.875-4.813 10.688-10.688 10.688s-10.688-4.813-10.688-10.688z"></path>
</svg>
