<?xml version="1.0" encoding="utf-8"?>
<!-- Generated by IcoMoon.io -->
<!DOCTYPE svg PUBLIC "-//W3C//DTD SVG 1.1//EN" "http://www.w3.org/Graphics/SVG/1.1/DTD/svg11.dtd">
<svg version="1.1" xmlns="http://www.w3.org/2000/svg" xmlns:xlink="http://www.w3.org/1999/xlink" width="32" height="32" viewBox="0 0 32 32">
<path d="M28 26.688v-17.375c0-0.75-0.563-1.313-1.313-1.313h-11.75l1.563 5.375h2.563v-1.375h1.438v1.375h4.813v1.375h-1.688c-0.438 1.688-1.375 3.313-2.563 4.688l3.625 3.563-0.938 1-3.625-3.563-1.188 1.188 1.063 3.688-2.688 2.688h9.375c0.75 0 1.313-0.563 1.313-1.313zM18.625 16.188c0.313 0.625 0.813 1.438 1.5 2.25 1.625-1.938 2.063-3.688 2.063-3.688h-5.313l0.438 1.438h1.313zM17.625 17.188l0.813 2.938 0.75-0.688c-0.625-0.688-1.125-1.438-1.563-2.25zM14.813 14.125c0-0.308-0.009-0.705-0.125-0.938h-5.25v2.063h2.938c-0.188 0.813-1 2-2.813 2-1.75 0-3.188-1.5-3.188-3.25s1.438-3.25 3.188-3.25c1 0 1.625 0.438 2 0.813l0.125 0.063 1.625-1.563-0.125-0.063c-1-0.938-2.25-1.438-3.625-1.438-3 0-5.438 2.438-5.438 5.438s2.438 5.438 5.438 5.438c3.063 0 5.25-2.188 5.25-5.313zM26.688 6.688c1.438 0 2.625 1.188 2.625 2.625v17.375c0 1.438-1.188 2.625-2.625 2.625h-10.688l-1.313-4h-9.375c-1.438 0-2.625-1.188-2.625-2.625v-17.375c0-1.438 1.188-2.625 2.625-2.625h8l1.188 4h12.188z"></path>
</svg>
