<?xml version="1.0" encoding="utf-8"?>
<!-- Generated by IcoMoon.io -->
<!DOCTYPE svg PUBLIC "-//W3C//DTD SVG 1.1//EN" "http://www.w3.org/Graphics/SVG/1.1/DTD/svg11.dtd">
<svg version="1.1" xmlns="http://www.w3.org/2000/svg" xmlns:xlink="http://www.w3.org/1999/xlink" width="32" height="32" viewBox="0 0 32 32">
<path d="M18.5 24.75c0.938 0 2.5-1.125 2.875-4.688-2.875 0.75-3.875 2.875-3.875 3.688 0 0.625 0.563 1 1 1zM6.125 9.188l-2.313-2.25c0.313-0.375 0.625-0.75 1.125-1.25 0.313-0.313 1.875-1.688 3.625-1.688 1.188 0 3.375 0.938 3.375 3.813 0 1.813-0.688 2.875-1.75 4.375-0.625 0.875-2 3.25-2.438 4.688-0.5 1.438-0.188 2.563 0.438 2.563 0.563 0 1.188-0.75 1.5-1.125 0.313-0.313 2.313-2.625 3.063-3.625 1-1.25 3.563-3.75 6.563-3.75 3.938 0 5.188 3.375 5.375 5.563h3.313v3.313h-3.25c-0.563 6.375-4.125 8.188-6.313 8.188-2.375 0-4.25-1.875-4.25-4.125s2.125-6.313 7.188-7.188c-0.125-1.063-0.188-2.375-2.375-2.375-1.688 0-3.813 2.563-5.438 4.563-1.5 1.813-2.625 3.25-4.063 3.688-3.111 0.982-5.313-1.765-5.313-4.563 0-3.25 3.5-7.875 3.813-8.438 0.375-0.625 1.063-1.75 0.375-2-0.438-0.188-1.313 0.688-2.25 1.625z"></path>
</svg>
