<?xml version="1.0" encoding="utf-8"?>
<!-- Generated by IcoMoon.io -->
<!DOCTYPE svg PUBLIC "-//W3C//DTD SVG 1.1//EN" "http://www.w3.org/Graphics/SVG/1.1/DTD/svg11.dtd">
<svg version="1.1" xmlns="http://www.w3.org/2000/svg" xmlns:xlink="http://www.w3.org/1999/xlink" width="32" height="32" viewBox="0 0 32 32">
<path d="M13.313 5.313c1.438 0 2.688 1.25 2.688 2.688s-1.25 2.688-2.688 2.688-2.625-1.25-2.625-2.688 1.188-2.688 2.625-2.688zM18.688 10.688c1.438 0 2.625 1.188 2.625 2.625s-1.188 2.688-2.625 2.688-2.688-1.25-2.688-2.688 1.25-2.625 2.688-2.625zM24 16c1.438 0 2.688 1.25 2.688 2.688s-1.25 2.625-2.688 2.625-2.688-1.188-2.688-2.625 1.25-2.688 2.688-2.688zM18.688 21.313c1.438 0 2.625 1.25 2.625 2.688s-1.188 2.688-2.625 2.688-2.688-1.25-2.688-2.688 1.25-2.688 2.688-2.688zM24 10.688c-1.438 0-2.688-1.25-2.688-2.688s1.25-2.688 2.688-2.688 2.688 1.25 2.688 2.688-1.25 2.688-2.688 2.688zM8 21.313c1.438 0 2.688 1.25 2.688 2.688s-1.25 2.688-2.688 2.688-2.688-1.25-2.688-2.688 1.25-2.688 2.688-2.688zM8 10.688c1.438 0 2.688 1.188 2.688 2.625s-1.25 2.688-2.688 2.688-2.688-1.25-2.688-2.688 1.25-2.625 2.688-2.625zM13.313 16c1.438 0 2.688 1.25 2.688 2.688s-1.25 2.625-2.688 2.625-2.625-1.188-2.625-2.625 1.188-2.688 2.625-2.688z"></path>
</svg>
