<?xml version="1.0" encoding="utf-8"?>
<!-- Generated by IcoMoon.io -->
<!DOCTYPE svg PUBLIC "-//W3C//DTD SVG 1.1//EN" "http://www.w3.org/Graphics/SVG/1.1/DTD/svg11.dtd">
<svg version="1.1" xmlns="http://www.w3.org/2000/svg" xmlns:xlink="http://www.w3.org/1999/xlink" width="32" height="32" viewBox="0 0 32 32">
<path d="M21.313 26.688h1.938l-1.938-1.938v1.938zM18.688 26.688v-4.625l-0.75-0.75h-4.625v5.375h5.375zM10.688 18.688v-4.625l-0.75-0.75h-4.625v5.375h5.375zM10.688 26.688v-5.375h-5.375v5.375h5.375zM5.313 8.75v1.938h1.938zM13.313 16.75v1.938h1.938zM1.688 1.688l28.625 28.625-1.688 1.688-2.688-2.688h-20.625c-1.438 0-2.625-1.188-2.625-2.625v-20.625l-2.688-2.688zM21.313 5.313v5.375h5.375v-5.375h-5.375zM10.688 5.313h-1.938l-2.688-2.625h20.625c1.438 0 2.625 1.188 2.625 2.625v20.625l-2.625-2.688v-1.938h-1.938l-2.688-2.625h4.625v-5.375h-5.375v4.625l-2.625-2.688v-1.938h-1.938l-2.688-2.625h4.625v-5.375h-5.375v4.625l-2.625-2.688v-1.938z"></path>
</svg>
