<?xml version="1.0" encoding="utf-8"?>
<!-- Generated by IcoMoon.io -->
<!DOCTYPE svg PUBLIC "-//W3C//DTD SVG 1.1//EN" "http://www.w3.org/Graphics/SVG/1.1/DTD/svg11.dtd">
<svg version="1.1" xmlns="http://www.w3.org/2000/svg" xmlns:xlink="http://www.w3.org/1999/xlink" width="32" height="32" viewBox="0 0 32 32">
<path d="M21.313 23.313c1.813 0 3.375-1.5 3.375-3.313s-1.563-3.313-3.375-3.313-3.313 1.5-3.313 3.313 1.5 3.313 3.313 3.313zM12.688 10.688c0 1.813 1.5 3.313 3.313 3.313s3.313-1.5 3.313-3.313-1.5-3.375-3.313-3.375-3.313 1.563-3.313 3.375zM10.688 23.313c1.813 0 3.313-1.5 3.313-3.313s-1.5-3.313-3.313-3.313-3.375 1.5-3.375 3.313 1.563 3.313 3.375 3.313zM16 2.688c7.375 0 13.313 5.938 13.313 13.313s-5.938 13.313-13.313 13.313-13.313-5.938-13.313-13.313 5.938-13.313 13.313-13.313z"></path>
</svg>
