<?xml version="1.0" encoding="utf-8"?>
<!-- Generated by IcoMoon.io -->
<!DOCTYPE svg PUBLIC "-//W3C//DTD SVG 1.1//EN" "http://www.w3.org/Graphics/SVG/1.1/DTD/svg11.dtd">
<svg version="1.1" xmlns="http://www.w3.org/2000/svg" xmlns:xlink="http://www.w3.org/1999/xlink" width="32" height="32" viewBox="0 0 32 32">
<path d="M17.313 17.313c2.688 0 8 1.313 8 4v2.688h-16v-2.688c0-2.688 5.313-4 8-4zM26.188 17.563c2.688 0.438 5.813 1.688 5.813 3.75v2.688h-4v-2.688c0-1.563-0.688-2.75-1.813-3.75zM17.313 14.688c-2.188 0-4-1.813-4-4s1.813-4 4-4 4 1.813 4 4-1.813 4-4 4zM24 14.688c-0.438 0-0.813-0.063-1.188-0.188 0.75-1.063 1.188-2.375 1.188-3.813s-0.438-2.75-1.188-3.813c0.375-0.125 0.75-0.188 1.188-0.188 2.188 0 4 1.813 4 4s-1.813 4-4 4zM10.688 13.313v2.688h-4v4h-2.688v-4h-4v-2.688h4v-4h2.688v4h4z"></path>
</svg>
