<?xml version="1.0" encoding="utf-8"?>
<!-- Generated by IcoMoon.io -->
<!DOCTYPE svg PUBLIC "-//W3C//DTD SVG 1.1//EN" "http://www.w3.org/Graphics/SVG/1.1/DTD/svg11.dtd">
<svg version="1.1" xmlns="http://www.w3.org/2000/svg" xmlns:xlink="http://www.w3.org/1999/xlink" width="32" height="32" viewBox="0 0 32 32">
<path d="M17.313 18v-4h-2.625v4h2.625zM17.313 12c1.063 0 2 0.938 2 2v4c0 1.063-0.938 2-2 2h-4.625v-8h4.625zM8.688 14.688v-2.688h2v8h-2v-3.313h-2.688v3.313h-2v-8h2v2.688h2.688zM26 15.313v-1.313h-2.688v1.313h2.688zM28 15.313c0 0.813-0.5 1.5-1.188 1.875l1.188 2.813h-2l-1.188-2.688h-1.5v2.688h-2v-8h4.688c1.063 0 2 0.938 2 2v1.313z"></path>
</svg>
