<?xml version="1.0" encoding="utf-8"?>
<!-- Generated by IcoMoon.io -->
<!DOCTYPE svg PUBLIC "-//W3C//DTD SVG 1.1//EN" "http://www.w3.org/Graphics/SVG/1.1/DTD/svg11.dtd">
<svg version="1.1" xmlns="http://www.w3.org/2000/svg" xmlns:xlink="http://www.w3.org/1999/xlink" width="32" height="32" viewBox="0 0 32 32">
<path d="M3.313 3.313c8.464 8.494 16.988 16.928 25.5 25.375l-1.5 1.438-10.125-10.125h-4.5v-4.563l-2-2v6.563h-2v-3.313h-2.688v3.313h-2v-8h2v2.688h2.688v-2.688h0.5l-7.313-7.313zM17.313 14h-0.5l-2-2h2.5c1.063 0 2 0.938 2 2v2.563l-2-2v-0.563zM23.313 14v1.313h2.688v-1.313h-2.688zM23.313 20h-0.5l-1.5-1.438v-6.563h4.688c1.063 0 2 0.938 2 2v1.313c0 0.813-0.5 1.625-1.188 1.875l1.188 2.813h-2l-1.188-2.688h-1.5v2.688z"></path>
</svg>
