<?xml version="1.0" encoding="utf-8"?>
<!-- Generated by IcoMoon.io -->
<!DOCTYPE svg PUBLIC "-//W3C//DTD SVG 1.1//EN" "http://www.w3.org/Graphics/SVG/1.1/DTD/svg11.dtd">
<svg version="1.1" xmlns="http://www.w3.org/2000/svg" xmlns:xlink="http://www.w3.org/1999/xlink" width="32" height="32" viewBox="0 0 32 32">
<path d="M22.688 21.313c2.938 0 5.313-2.375 5.313-5.313s-2.375-5.313-5.313-5.313-5.375 2.375-5.375 5.313 2.438 5.313 5.375 5.313zM22.688 8c4.438 0 8 3.563 8 8s-3.563 8-8 8-8-3.563-8-8 3.563-8 8-8zM6.688 10.688c2.938 0 5.313 2.375 5.313 5.313s-2.375 5.313-5.313 5.313-5.375-2.375-5.375-5.313 2.438-5.313 5.375-5.313z"></path>
</svg>
