<?xml version="1.0" encoding="utf-8"?>
<!-- Generated by IcoMoon.io -->
<!DOCTYPE svg PUBLIC "-//W3C//DTD SVG 1.1//EN" "http://www.w3.org/Graphics/SVG/1.1/DTD/svg11.dtd">
<svg version="1.1" xmlns="http://www.w3.org/2000/svg" xmlns:xlink="http://www.w3.org/1999/xlink" width="32" height="32" viewBox="0 0 32 32">
<path d="M22.188 27.125l4.875-4.875-4.875-4.813-4.813 4.875zM18.688 14.688c-0.75 0-1.375 0.563-1.375 1.313s0.625 1.313 1.375 1.313 1.313-0.563 1.313-1.313-0.563-1.313-1.313-1.313zM16 20c0.75 0 1.313-0.563 1.313-1.313s-0.563-1.375-1.313-1.375-1.313 0.625-1.313 1.375 0.563 1.313 1.313 1.313zM13.313 17.313c0.75 0 1.375-0.563 1.375-1.313s-0.625-1.313-1.375-1.313-1.313 0.563-1.313 1.313 0.563 1.313 1.313 1.313zM9.75 14.625l4.813-4.875-4.813-4.813-4.875 4.875zM16 12c-0.75 0-1.313 0.563-1.313 1.313s0.563 1.375 1.313 1.375 1.313-0.625 1.313-1.375-0.563-1.313-1.313-1.313zM23.625 16l5.313 5.313c0.5 0.5 0.5 1.375 0 1.875l-5.75 5.813c-0.25 0.25-0.563 0.375-0.938 0.375s-0.75-0.125-1-0.375l-5.25-5.313-5.313 5.313c-0.5 0.5-1.375 0.5-1.875 0l-5.813-5.813c-0.5-0.5-0.5-1.375 0-1.875l5.313-5.313-5.313-5.25c-0.5-0.5-0.5-1.438 0-1.938l5.813-5.75c0.25-0.25 0.625-0.375 0.938-0.375 0.375 0 0.688 0.125 0.938 0.375l5.313 5.313 5.25-5.313c0.5-0.5 1.438-0.5 1.938 0l5.75 5.75c0.5 0.5 0.5 1.438 0 1.938z"></path>
</svg>
