<?xml version="1.0" encoding="utf-8"?>
<!-- Generated by IcoMoon.io -->
<!DOCTYPE svg PUBLIC "-//W3C//DTD SVG 1.1//EN" "http://www.w3.org/Graphics/SVG/1.1/DTD/svg11.dtd">
<svg version="1.1" xmlns="http://www.w3.org/2000/svg" xmlns:xlink="http://www.w3.org/1999/xlink" width="32" height="32" viewBox="0 0 32 32">
<path d="M15.313 12c0-1.813 1.563-3.313 3.375-3.313s3.313 1.5 3.313 3.313-1.5 3.313-3.313 3.313-3.375-1.5-3.375-3.313zM10.188 3.5c-2.188 2.188-3.5 5.188-3.5 8.5s1.313 6.313 3.5 8.5l-1.875 1.875c-2.625-2.625-4.313-6.313-4.313-10.375s1.688-7.75 4.313-10.375zM22.688 26.688c1.438 0 2.625-1.25 2.625-2.688h2.688c0 2.938-2.375 5.313-5.313 5.313-0.75 0-1.5-0.125-2.188-0.438-1.813-0.938-2.875-2.313-3.688-4.75-0.438-1.313-1.188-1.938-2.25-2.75-1.188-0.875-2.625-2-3.813-4.188-0.938-1.688-1.438-3.5-1.438-5.188 0-5.25 4.125-9.313 9.375-9.313s9.313 4.063 9.313 9.313h-2.688c0-3.75-2.875-6.688-6.625-6.688s-6.688 2.938-6.688 6.688c0 1.25 0.375 2.688 1.063 3.938 0.938 1.75 2.063 2.563 3.125 3.375 1.25 0.938 2.5 1.938 3.188 4 0.688 2 1.313 2.625 2.25 3.125 0.25 0.125 0.688 0.25 1.063 0.25z"></path>
</svg>
