<?xml version="1.0" encoding="utf-8"?>
<!-- Generated by IcoMoon.io -->
<!DOCTYPE svg PUBLIC "-//W3C//DTD SVG 1.1//EN" "http://www.w3.org/Graphics/SVG/1.1/DTD/svg11.dtd">
<svg version="1.1" xmlns="http://www.w3.org/2000/svg" xmlns:xlink="http://www.w3.org/1999/xlink" width="32" height="32" viewBox="0 0 32 32">
<path d="M19.313 18v-4h2.688v4h-2.688zM24 18.688v-5.375c0-0.75-0.563-1.313-1.313-1.313h-4c-0.75 0-1.375 0.563-1.375 1.313v5.375c0 0.75 0.625 1.313 1.375 1.313h1v2h2v-2h1c0.75 0 1.313-0.563 1.313-1.313zM14.688 20v-8h-2v3.313h-2.688v-3.313h-2v8h2v-2.688h2.688v2.688h2zM25.313 5.313c1.438 0 2.688 1.25 2.688 2.688v16c0 1.438-1.25 2.688-2.688 2.688h-18.625c-1.5 0-2.688-1.25-2.688-2.688v-16c0-1.438 1.188-2.688 2.688-2.688h18.625z"></path>
</svg>
