<?xml version="1.0" encoding="utf-8"?>
<!-- Generated by IcoMoon.io -->
<!DOCTYPE svg PUBLIC "-//W3C//DTD SVG 1.1//EN" "http://www.w3.org/Graphics/SVG/1.1/DTD/svg11.dtd">
<svg version="1.1" xmlns="http://www.w3.org/2000/svg" xmlns:xlink="http://www.w3.org/1999/xlink" width="32" height="32" viewBox="0 0 32 32">
<path d="M19.563 7.813c1.375 1.313 1.938 3.125 1.688 4.938l-0.063 0.563h-2.563l0.188-0.75c0.191-1.082-0.213-2.213-1-3-1.375-1.375-2-3.188-1.75-5l0.063-0.563h2.563l-0.125 0.813c-0.188 1.063 0.125 2.125 0.875 2.938zM24.875 7.813c1.375 1.313 2 3.125 1.75 4.938l-0.125 0.563h-2.5l0.125-0.75c0.188-1.063-0.125-2.125-0.875-2.938l-0.125-0.063c-1.375-1.375-2-3.188-1.75-5l0.125-0.563h2.5l-0.125 0.813c-0.188 1.063 0.125 2.125 0.875 2.938zM25.313 26.688v-8h-2.625v8h2.625zM20 26.688v-8h-2.688v8h2.688zM14.688 26.688v-8h-2.688v8h2.688zM9.313 26.688v-8h-2.625v8h2.625zM14.875 16h14.438v10.688c0 1.438-1.188 2.625-2.625 2.625h-21.375c-1.438 0-2.625-1.188-2.625-2.625v-10.688h4v-1c0-1.625 1.375-3 3-3 0.962 0 1.76 0.51 2.25 1l1.813 2.063c0.313 0.375 0.688 0.625 1.125 0.938zM6.688 8c0-1.5 1.125-2.688 2.625-2.688s2.688 1.188 2.688 2.688-1.188 2.688-2.688 2.688-2.625-1.188-2.625-2.688z"></path>
</svg>
