<?xml version="1.0" encoding="utf-8"?>
<!-- Generated by IcoMoon.io -->
<!DOCTYPE svg PUBLIC "-//W3C//DTD SVG 1.1//EN" "http://www.w3.org/Graphics/SVG/1.1/DTD/svg11.dtd">
<svg version="1.1" xmlns="http://www.w3.org/2000/svg" xmlns:xlink="http://www.w3.org/1999/xlink" width="32" height="32" viewBox="0 0 32 32">
<path d="M28 24.688v-15.375c-1.438-0.438-3.063-0.625-4.688-0.625-2.25 0-5.5 0.875-7.313 2v15.313c1.813-1.125 5.063-2 7.313-2 1.625 0 3.25 0.25 4.688 0.688zM23.313 6c2.763 0 5.672 0.69 7.375 2v19.438c0 0.313-0.375 0.688-0.688 0.688-0.125 0-0.188 0-0.313-0.063-1.875-1-4.188-1.375-6.375-1.375-2.25 0-5.5 0.875-7.313 2-1.938-1.438-4.688-2-7.313-2-1.938 0-4.563 0.563-6.375 1.438-0.125 0-0.188 0.063-0.313 0.063-0.313 0-0.688-0.313-0.688-0.625v-19.563c1.938-1.438 4.75-2 7.375-2s5.375 0.563 7.313 2c1.938-1.438 4.688-2 7.313-2z"></path>
</svg>
