<?xml version="1.0" encoding="utf-8"?>
<!-- Generated by IcoMoon.io -->
<!DOCTYPE svg PUBLIC "-//W3C//DTD SVG 1.1//EN" "http://www.w3.org/Graphics/SVG/1.1/DTD/svg11.dtd">
<svg version="1.1" xmlns="http://www.w3.org/2000/svg" xmlns:xlink="http://www.w3.org/1999/xlink" width="32" height="32" viewBox="0 0 32 32">
<path d="M15.938 12h4.063l-3.313 2.375 1.25 3.875-3.25-2.438-3.313 2.438 1.25-3.875-3.313-2.375h4.063l1.313-4zM26.688 2.688c1.438 0 2.625 1.125 2.625 2.625v6.688h-2.625v-6.688h-24v16h17.313v2.688h-2.688v2.688h2.688v2.625h-10.688v-2.625h2.688v-2.688h-9.313c-1.5 0-2.688-1.25-2.688-2.688v-16c0-1.5 1.188-2.625 2.688-2.625h24zM30.688 26.688v-9.375h-6.688v9.375h6.688zM30.688 14.688c0.75 0 1.313 0.563 1.313 1.313v12c0 0.75-0.563 1.313-1.313 1.313h-6.688c-0.75 0-1.313-0.563-1.313-1.313v-12c0-0.75 0.563-1.313 1.313-1.313h6.688z"></path>
</svg>
