<?xml version="1.0" encoding="utf-8"?>
<!-- Generated by IcoMoon.io -->
<!DOCTYPE svg PUBLIC "-//W3C//DTD SVG 1.1//EN" "http://www.w3.org/Graphics/SVG/1.1/DTD/svg11.dtd">
<svg version="1.1" xmlns="http://www.w3.org/2000/svg" xmlns:xlink="http://www.w3.org/1999/xlink" width="32" height="32" viewBox="0 0 32 32">
<path d="M16 6.813l-3.063 3-1.875-1.875 4.938-4.938 7.563 7.563c3.25 3.25 3.938 8.063 2.125 12l-9.688-9.625v-6.125zM16 26.125v-6.438l-6.375-6.375c-1.063 1.375-1.625 3.063-1.625 4.813 0 4.299 3.7 8 8 8zM27.563 27.813l0.438 0.5-1.688 1.688-3.625-3.625c-1.938 1.563-4.313 2.375-6.688 2.375-2.75 0-5.5-1.063-7.563-3.125-3.875-3.938-4.125-10.063-0.75-14.25l-3.688-3.688 1.688-1.688c7.281 7.281 14.522 14.604 21.875 21.813z"></path>
</svg>
