<?xml version="1.0" encoding="utf-8"?>
<!-- Generated by IcoMoon.io -->
<!DOCTYPE svg PUBLIC "-//W3C//DTD SVG 1.1//EN" "http://www.w3.org/Graphics/SVG/1.1/DTD/svg11.dtd">
<svg version="1.1" xmlns="http://www.w3.org/2000/svg" xmlns:xlink="http://www.w3.org/1999/xlink" width="32" height="32" viewBox="0 0 32 32">
<path d="M16 30.688l-5.313-5.375h10.625zM25.313 10.688v-2.688h-2.625v2.688h2.625zM25.313 14.688v-2.688h-2.625v2.688h2.625zM21.313 10.688v-2.688h-2.625v2.688h2.625zM21.313 14.688v-2.688h-2.625v2.688h2.625zM21.313 20v-2.688h-10.625v2.688h10.625zM9.313 10.688v-2.688h-2.625v2.688h2.625zM9.313 14.688v-2.688h-2.625v2.688h2.625zM10.688 12v2.688h2.625v-2.688h-2.625zM10.688 8v2.688h2.625v-2.688h-2.625zM14.688 12v2.688h2.625v-2.688h-2.625zM14.688 8v2.688h2.625v-2.688h-2.625zM26.688 4c1.438 0 2.625 1.25 2.625 2.688v13.313c0 1.438-1.188 2.688-2.625 2.688h-21.375c-1.438 0-2.625-1.25-2.625-2.688v-13.313c0-1.438 1.188-2.688 2.625-2.688h21.375z"></path>
</svg>
