<?xml version="1.0" encoding="utf-8"?>
<!-- Generated by IcoMoon.io -->
<!DOCTYPE svg PUBLIC "-//W3C//DTD SVG 1.1//EN" "http://www.w3.org/Graphics/SVG/1.1/DTD/svg11.dtd">
<svg version="1.1" xmlns="http://www.w3.org/2000/svg" xmlns:xlink="http://www.w3.org/1999/xlink" width="32" height="32" viewBox="0 0 32 32">
<path d="M21.813 18.688h4.5c0.188-0.875 0.375-1.75 0.375-2.688s-0.188-1.813-0.375-2.688h-4.5c0.125 0.875 0.188 1.75 0.188 2.688s-0.063 1.813-0.188 2.688zM19.438 26.063c2.438-0.813 4.563-2.563 5.813-4.75h-3.938c-0.438 1.688-1.063 3.25-1.875 4.75zM19.125 18.688c0.125-0.875 0.188-1.75 0.188-2.688s-0.063-1.813-0.188-2.688h-6.25c-0.125 0.875-0.188 1.75-0.188 2.688s0.063 1.813 0.188 2.688h6.25zM16 26.625c1.125-1.625 2-3.375 2.563-5.313h-5.125c0.563 1.938 1.438 3.688 2.563 5.313zM10.688 10.688c0.438-1.688 1.063-3.25 1.875-4.75-2.438 0.813-4.563 2.563-5.813 4.75h3.938zM6.75 21.313c1.25 2.188 3.375 3.938 5.813 4.75-0.813-1.5-1.438-3.063-1.875-4.75h-3.938zM5.688 18.688h4.5c-0.125-0.875-0.188-1.75-0.188-2.688s0.063-1.813 0.188-2.688h-4.5c-0.188 0.875-0.375 1.75-0.375 2.688s0.188 1.813 0.375 2.688zM16 5.375c-1.125 1.625-2 3.375-2.563 5.313h5.125c-0.563-1.938-1.438-3.688-2.563-5.313zM25.25 10.688c-1.25-2.188-3.375-3.938-5.813-4.75 0.813 1.5 1.438 3.063 1.875 4.75h3.938zM16 2.688c7.375 0 13.313 5.938 13.313 13.313s-5.938 13.313-13.313 13.313-13.313-5.938-13.313-13.313 5.938-13.313 13.313-13.313z"></path>
</svg>
