<?xml version="1.0" encoding="utf-8"?>
<!-- Generated by IcoMoon.io -->
<!DOCTYPE svg PUBLIC "-//W3C//DTD SVG 1.1//EN" "http://www.w3.org/Graphics/SVG/1.1/DTD/svg11.dtd">
<svg version="1.1" xmlns="http://www.w3.org/2000/svg" xmlns:xlink="http://www.w3.org/1999/xlink" width="32" height="32" viewBox="0 0 32 32">
<path d="M20.5 15.438c2.188-1.313 4.75-2.125 7.5-2.125v2.688c-2 0-3.875 0.5-5.563 1.375zM26.563 21.5l-2.125-2.125c1.063-0.438 2.313-0.688 3.563-0.688v2.625c-0.5 0-1 0.063-1.438 0.188zM18.688 4c0 2.75-0.813 5.313-2.125 7.5l-1.938-1.938c0.875-1.688 1.375-3.563 1.375-5.563h2.688zM4 5.688l1.688-1.688 22.313 22.313-1.688 1.688-3.813-3.813c-0.75 1.063-1.188 2.375-1.188 3.813h-2.625c0-2.125 0.75-4.125 1.938-5.688l-1.938-1.875c-1.688 2.063-2.688 4.688-2.688 7.563h-2.688c0-3.625 1.313-6.938 3.5-9.5l-3.313-3.313c-2.563 2.188-5.875 3.5-9.5 3.5v-2.688c2.875 0 5.563-1 7.625-2.688l-1.938-1.938c-1.563 1.188-3.563 1.938-5.688 1.938v-2.625c1.438 0 2.75-0.438 3.813-1.188zM13.313 4c0 1.25-0.25 2.5-0.688 3.563l-2.125-2.125c0.125-0.438 0.188-0.938 0.188-1.438h2.625z"></path>
</svg>
