<?xml version="1.0" encoding="utf-8"?>
<!-- Generated by IcoMoon.io -->
<!DOCTYPE svg PUBLIC "-//W3C//DTD SVG 1.1//EN" "http://www.w3.org/Graphics/SVG/1.1/DTD/svg11.dtd">
<svg version="1.1" xmlns="http://www.w3.org/2000/svg" xmlns:xlink="http://www.w3.org/1999/xlink" width="32" height="32" viewBox="0 0 32 32">
<path d="M5.313 8v18.688h18.688v2.625h-18.688c-1.438 0-2.625-1.188-2.625-2.625v-18.688h2.625zM24 9.313v-2.625h-5.313v7.313c-0.563-0.438-1.25-0.688-2-0.688-1.813 0-3.375 1.563-3.375 3.375s1.563 3.313 3.375 3.313 3.313-1.5 3.313-3.313v-7.375h4zM26.688 2.688c1.438 0 2.625 1.188 2.625 2.625v16c0 1.438-1.188 2.688-2.625 2.688h-16c-1.438 0-2.688-1.25-2.688-2.688v-16c0-1.438 1.25-2.625 2.688-2.625h16z"></path>
</svg>
