<?xml version="1.0" encoding="utf-8"?>
<!-- Generated by IcoMoon.io -->
<!DOCTYPE svg PUBLIC "-//W3C//DTD SVG 1.1//EN" "http://www.w3.org/Graphics/SVG/1.1/DTD/svg11.dtd">
<svg version="1.1" xmlns="http://www.w3.org/2000/svg" xmlns:xlink="http://www.w3.org/1999/xlink" width="32" height="32" viewBox="0 0 32 32">
<path d="M25.313 9.313v-2.625h-13.313v2.625h13.313zM20 20v-2.688h-8v2.688h8zM25.313 14.688v-2.688h-13.313v2.688h13.313zM26.688 2.688c1.438 0 2.625 1.188 2.625 2.625v16c0 1.438-1.188 2.688-2.625 2.688h-16c-1.438 0-2.688-1.25-2.688-2.688v-16c0-1.438 1.25-2.625 2.688-2.625h16zM5.313 8v18.688h18.688v2.625h-18.688c-1.438 0-2.625-1.188-2.625-2.625v-18.688h2.625z"></path>
</svg>
