<?xml version="1.0" encoding="utf-8"?>
<!-- Generated by IcoMoon.io -->
<!DOCTYPE svg PUBLIC "-//W3C//DTD SVG 1.1//EN" "http://www.w3.org/Graphics/SVG/1.1/DTD/svg11.dtd">
<svg version="1.1" xmlns="http://www.w3.org/2000/svg" xmlns:xlink="http://www.w3.org/1999/xlink" width="32" height="32" viewBox="0 0 32 32">
<path d="M19.813 17.438c1.813-1.25 2.875-3.25 2.875-5.438 0-3.688-3-6.688-6.688-6.688s-6.688 3-6.688 6.688c0 2.188 1.063 4.188 2.875 5.438l1.125 0.813v3.063h5.375v-3.063zM16 2.688c5.125 0 9.313 4.188 9.313 9.313 0 3.188-1.563 5.938-4 7.625v3.063c0 0.75-0.563 1.313-1.313 1.313h-8c-0.75 0-1.313-0.563-1.313-1.313v-3.063c-2.438-1.688-4-4.438-4-7.625 0-5.125 4.188-9.313 9.313-9.313zM12 28v-1.313h8v1.313c0 0.75-0.563 1.313-1.313 1.313h-5.375c-0.75 0-1.313-0.563-1.313-1.313z"></path>
</svg>
