<?xml version="1.0" encoding="utf-8"?>
<!-- Generated by IcoMoon.io -->
<!DOCTYPE svg PUBLIC "-//W3C//DTD SVG 1.1//EN" "http://www.w3.org/Graphics/SVG/1.1/DTD/svg11.dtd">
<svg version="1.1" xmlns="http://www.w3.org/2000/svg" xmlns:xlink="http://www.w3.org/1999/xlink" width="32" height="32" viewBox="0 0 32 32">
<path d="M26 12.688c1.813 0 3.313 1.5 3.313 3.313s-1.5 3.313-3.313 3.313c-1.375 0-2.563-0.813-3.063-2h-3.875c-0.5 1.188-1.688 2-3.063 2s-2.563-0.813-3.063-2h-3.875c-0.5 1.188-1.688 2-3.063 2-1.813 0-3.313-1.5-3.313-3.313s1.5-3.313 3.313-3.313c1.375 0 2.563 0.813 3.063 2h3.875c0.5-1.188 1.688-2 3.063-2s2.563 0.813 3.063 2h3.875c0.5-1.188 1.688-2 3.063-2z"></path>
</svg>
