<?xml version="1.0" encoding="utf-8"?>
<!-- Generated by IcoMoon.io -->
<!DOCTYPE svg PUBLIC "-//W3C//DTD SVG 1.1//EN" "http://www.w3.org/Graphics/SVG/1.1/DTD/svg11.dtd">
<svg version="1.1" xmlns="http://www.w3.org/2000/svg" xmlns:xlink="http://www.w3.org/1999/xlink" width="32" height="32" viewBox="0 0 32 32">
<path d="M4 5.313h24v5.375h-24v-5.375zM17.313 16v-2.688h10.688v2.688h-10.688zM4 16v-2.688h10.688v2.688h-10.688zM25.313 26.688v-2.688h2.688v2.688h-2.688zM20 26.688v-2.688h2.688v2.688h-2.688zM14.688 26.688v-2.688h2.625v2.688h-2.625zM9.313 26.688v-2.688h2.688v2.688h-2.688zM4 26.688v-2.688h2.688v2.688h-2.688zM21.313 21.313v-2.625h6.688v2.625h-6.688zM12.688 21.313v-2.625h6.625v2.625h-6.625zM4 21.313v-2.625h6.688v2.625h-6.688z"></path>
</svg>
