<?xml version="1.0" encoding="utf-8"?>
<!-- Generated by IcoMoon.io -->
<!DOCTYPE svg PUBLIC "-//W3C//DTD SVG 1.1//EN" "http://www.w3.org/Graphics/SVG/1.1/DTD/svg11.dtd">
<svg version="1.1" xmlns="http://www.w3.org/2000/svg" xmlns:xlink="http://www.w3.org/1999/xlink" width="32" height="32" viewBox="0 0 32 32">
<path d="M22.688 9.313c3.688 0 6.625 3 6.625 6.688s-2.938 6.688-6.625 6.688h-5.375v-2.563h5.375c2.25 0 4.125-1.875 4.125-4.125s-1.875-4.125-4.125-4.125h-5.375v-2.563h5.375zM10.688 17.313v-2.625h10.625v2.625h-10.625zM5.188 16c0 2.25 1.875 4.125 4.125 4.125h5.375v2.563h-5.375c-3.688 0-6.625-3-6.625-6.688s2.938-6.688 6.625-6.688h5.375v2.563h-5.375c-2.25 0-4.125 1.875-4.125 4.125z"></path>
</svg>
