<?xml version="1.0" encoding="utf-8"?>
<!-- Generated by IcoMoon.io -->
<!DOCTYPE svg PUBLIC "-//W3C//DTD SVG 1.1//EN" "http://www.w3.org/Graphics/SVG/1.1/DTD/svg11.dtd">
<svg version="1.1" xmlns="http://www.w3.org/2000/svg" xmlns:xlink="http://www.w3.org/1999/xlink" width="32" height="32" viewBox="0 0 32 32">
<path d="M21.313 8c1.5 0 2.688 1.188 2.688 2.688h1.75c0-2.438-2-4.438-4.438-4.438v1.75zM16 25.313c3.688 0 6.688-2.938 6.688-6.625s-3-6.688-6.688-6.688-6.688 3-6.688 6.688 3 6.625 6.688 6.625zM22.688 12h6.625v14.688c0 1.438-1.188 2.625-2.625 2.625h-21.375c-1.438 0-2.625-1.188-2.625-2.625v-16c0-1.438 1.188-2.688 2.625-2.688h4.25l2.438-2.688h8v4c1.5 0 2.688 1.188 2.688 2.688zM21.313 4.438v-1.75c4.438 0 8 3.563 8 8h-1.75c0-3.438-2.813-6.25-6.25-6.25zM11.75 18.688c0-2.375 1.875-4.313 4.25-4.313s4.25 1.938 4.25 4.313-1.875 4.25-4.25 4.25-4.25-1.875-4.25-4.25z"></path>
</svg>
