<?xml version="1.0" encoding="utf-8"?>
<!-- Generated by IcoMoon.io -->
<!DOCTYPE svg PUBLIC "-//W3C//DTD SVG 1.1//EN" "http://www.w3.org/Graphics/SVG/1.1/DTD/svg11.dtd">
<svg version="1.1" xmlns="http://www.w3.org/2000/svg" xmlns:xlink="http://www.w3.org/1999/xlink" width="32" height="32" viewBox="0 0 32 32">
<path d="M20.063 13.688c0.75-0.75 1.25-1.813 1.25-3 0-2.938-2.375-5.375-5.313-5.375s-5.313 2.438-5.313 5.375h2.625c0-1.438 1.25-2.688 2.688-2.688s2.688 1.25 2.688 2.688c0 0.75-0.313 1.375-0.813 1.875l-1.625 1.688c-0.938 1-1.563 2.313-1.563 3.75v0.688h2.625c0-2 0.625-2.813 1.563-3.813zM17.313 24v-2.688h-2.625v2.688h2.625zM25.313 2.688c1.438 0 2.688 1.188 2.688 2.625v18.688c0 1.438-1.25 2.688-2.688 2.688h-5.313l-4 4-4-4h-5.313c-1.5 0-2.688-1.25-2.688-2.688v-18.688c0-1.438 1.188-2.625 2.688-2.625h18.625z"></path>
</svg>
