<?xml version="1.0" encoding="utf-8"?>
<!-- Generated by IcoMoon.io -->
<!DOCTYPE svg PUBLIC "-//W3C//DTD SVG 1.1//EN" "http://www.w3.org/Graphics/SVG/1.1/DTD/svg11.dtd">
<svg version="1.1" xmlns="http://www.w3.org/2000/svg" xmlns:xlink="http://www.w3.org/1999/xlink" width="32" height="32" viewBox="0 0 32 32">
<path d="M25.313 20v-2.688h-2.625v2.688h2.625zM25.313 25.313v-2.625h-2.625v2.625h2.625zM17.313 9.313v-2.625h-2.625v2.625h2.625zM17.313 14.688v-2.688h-2.625v2.688h2.625zM17.313 20v-2.688h-2.625v2.688h2.625zM17.313 25.313v-2.625h-2.625v2.625h2.625zM9.313 14.688v-2.688h-2.625v2.688h2.625zM9.313 20v-2.688h-2.625v2.688h2.625zM9.313 25.313v-2.625h-2.625v2.625h2.625zM20 14.688h8v13.313h-24v-18.688h8v-2.625l4-4 4 4v8z"></path>
</svg>
