<?xml version="1.0" encoding="utf-8"?>
<!-- Generated by IcoMoon.io -->
<!DOCTYPE svg PUBLIC "-//W3C//DTD SVG 1.1//EN" "http://www.w3.org/Graphics/SVG/1.1/DTD/svg11.dtd">
<svg version="1.1" xmlns="http://www.w3.org/2000/svg" xmlns:xlink="http://www.w3.org/1999/xlink" width="32" height="32" viewBox="0 0 32 32">
<path d="M26.688 24v-16h-21.375v16h21.375zM26.688 5.313c1.5 0 2.625 1.188 2.625 2.688v16c0 1.5-1.125 2.688-2.625 2.688h-21.375c-1.5 0-2.625-1.188-2.625-2.688v-16c0-1.5 1.125-2.688 2.625-2.688h21.375zM14.688 22.688v-1.375h-2.688v-2.625h5.313v-1.375h-4c-0.75 0-1.313-0.563-1.313-1.313v-4c0-0.75 0.563-1.313 1.313-1.313h1.375v-1.375h2.625v1.375h2.688v2.625h-5.313v1.375h4c0.75 0 1.313 0.563 1.313 1.313v4c0 0.75-0.563 1.313-1.313 1.313h-1.375v1.375h-2.625z"></path>
</svg>
