<?xml version="1.0" encoding="utf-8"?>
<!-- Generated by IcoMoon.io -->
<!DOCTYPE svg PUBLIC "-//W3C//DTD SVG 1.1//EN" "http://www.w3.org/Graphics/SVG/1.1/DTD/svg11.dtd">
<svg version="1.1" xmlns="http://www.w3.org/2000/svg" xmlns:xlink="http://www.w3.org/1999/xlink" width="32" height="32" viewBox="0 0 32 32">
<path d="M21.688 23.375l-13.063-13.063c-1.188 1.563-1.938 3.563-1.938 5.688 0 5.188 4.125 9.313 9.313 9.313 2.125 0 4.125-0.75 5.688-1.938zM4 5.688l1.688-1.688 22.313 22.313-1.688 1.688-2.75-2.75c-1.75 1.438-3.875 2.438-6.25 2.688v2.75h-2.625v-2.75c-5.563-0.625-10-5.063-10.625-10.625h-2.75v-2.625h2.75c0.25-2.375 1.25-4.5 2.688-6.25zM27.938 14.688h2.75v2.625h-2.75c-0.188 1.5-0.625 3-1.313 4.25l-2-2c0.438-1.063 0.688-2.313 0.688-3.563 0-5.188-4.125-9.313-9.313-9.313-1.25 0-2.5 0.25-3.563 0.688l-2-2c1.313-0.688 2.75-1.125 4.25-1.313v-2.75h2.625v2.75c5.563 0.625 10 5.063 10.625 10.625z"></path>
</svg>
