<?xml version="1.0" encoding="utf-8"?>
<!-- Generated by IcoMoon.io -->
<!DOCTYPE svg PUBLIC "-//W3C//DTD SVG 1.1//EN" "http://www.w3.org/Graphics/SVG/1.1/DTD/svg11.dtd">
<svg version="1.1" xmlns="http://www.w3.org/2000/svg" xmlns:xlink="http://www.w3.org/1999/xlink" width="32" height="32" viewBox="0 0 32 32">
<path d="M16 25.313c5.188 0 9.313-4.125 9.313-9.313s-4.125-9.313-9.313-9.313-9.313 4.125-9.313 9.313 4.125 9.313 9.313 9.313zM27.938 14.688h2.75v2.625h-2.75c-0.625 5.563-5.063 10-10.625 10.625v2.75h-2.625v-2.75c-5.563-0.625-10-5.063-10.625-10.625h-2.75v-2.625h2.75c0.625-5.563 5.063-10 10.625-10.625v-2.75h2.625v2.75c5.563 0.625 10 5.063 10.625 10.625z"></path>
</svg>
