<?xml version="1.0" encoding="utf-8"?>
<!-- Generated by IcoMoon.io -->
<!DOCTYPE svg PUBLIC "-//W3C//DTD SVG 1.1//EN" "http://www.w3.org/Graphics/SVG/1.1/DTD/svg11.dtd">
<svg version="1.1" xmlns="http://www.w3.org/2000/svg" xmlns:xlink="http://www.w3.org/1999/xlink" width="32" height="32" viewBox="0 0 32 32">
<path d="M15.625 15.313c3.699 3.656 7.393 7.316 11.063 11l-1.688 1.688-4.5-4.438c-2.25 3.313-4.5 5.75-4.5 5.75s-9.313-10.313-9.313-17.313c0-0.688 0.125-1.375 0.25-2.063l-4.25-4.25 1.688-1.688 11.125 11.125zM16 8.688c-1 0-1.813 0.438-2.438 1.125l-4.313-4.25c1.688-1.75 4.125-2.875 6.75-2.875 5.188 0 9.313 4.125 9.313 9.313 0 2.25-0.938 4.813-2.25 7.313l-4.813-4.875c0.688-0.625 1.063-1.438 1.063-2.438 0-1.813-1.5-3.313-3.313-3.313z"></path>
</svg>
