<?xml version="1.0" encoding="utf-8"?>
<!-- Generated by IcoMoon.io -->
<!DOCTYPE svg PUBLIC "-//W3C//DTD SVG 1.1//EN" "http://www.w3.org/Graphics/SVG/1.1/DTD/svg11.dtd">
<svg version="1.1" xmlns="http://www.w3.org/2000/svg" xmlns:xlink="http://www.w3.org/1999/xlink" width="32" height="32" viewBox="0 0 32 32">
<path d="M16 26.688c4.438 0 8-3.563 8-8s-3.563-8-8-8-8 3.563-8 8 3.563 8 8 8zM9.313 5.313c-0.75 0-1.313 0.625-1.313 1.375s0.563 1.313 1.313 1.313 1.375-0.563 1.375-1.313-0.625-1.375-1.375-1.375zM13.313 5.313c-0.75 0-1.313 0.625-1.313 1.375s0.563 1.313 1.313 1.313 1.375-0.563 1.375-1.313-0.625-1.375-1.375-1.375zM24 2.688c1.5 0 2.688 1.125 2.688 2.625v21.375c0 1.5-1.188 2.625-2.688 2.625h-16c-1.5 0-2.688-1.125-2.688-2.625v-21.375c0-1.5 1.188-2.625 2.688-2.625h16zM12.25 22.438l7.5-7.563c2.063 2.063 2.063 5.5 0 7.563s-5.438 2.063-7.5 0z"></path>
</svg>
