<?xml version="1.0" encoding="utf-8"?>
<!-- Generated by IcoMoon.io -->
<!DOCTYPE svg PUBLIC "-//W3C//DTD SVG 1.1//EN" "http://www.w3.org/Graphics/SVG/1.1/DTD/svg11.dtd">
<svg version="1.1" xmlns="http://www.w3.org/2000/svg" xmlns:xlink="http://www.w3.org/1999/xlink" width="32" height="32" viewBox="0 0 32 32">
<path d="M6.688 17.313h18.625l-2-6h-14.625zM23.313 24c1.125 0 2-0.875 2-2s-0.875-2-2-2-2 0.875-2 2 0.875 2 2 2zM8.688 24c1.125 0 2-0.875 2-2s-0.875-2-2-2-2 0.875-2 2 0.875 2 2 2zM25.25 10.688l2.75 8v10.625c0 0.75-0.563 1.375-1.313 1.375h-1.375c-0.75 0-1.313-0.625-1.313-1.375v-1.313h-16v1.313c0 0.75-0.563 1.375-1.313 1.375h-1.375c-0.75 0-1.313-0.625-1.313-1.375v-10.625l2.75-8c0.25-0.813 1.063-1.375 1.938-1.375h14.625c0.875 0 1.688 0.563 1.938 1.375zM9.313 6.688c-1.125 0-2-0.875-2-2 0-1.313 2-3.625 2-3.625s2 2.313 2 3.625c0 1.125-0.875 2-2 2zM16 6.688c-1.125 0-2-0.875-2-2 0-1.313 2-3.625 2-3.625s2 2.313 2 3.625c0 1.125-0.875 2-2 2zM22.688 6.688c-1.125 0-2-0.875-2-2 0-1.313 2-3.625 2-3.625s2 2.313 2 3.625c0 1.125-0.875 2-2 2z"></path>
</svg>
