<?xml version="1.0" encoding="utf-8"?>
<!-- Generated by IcoMoon.io -->
<!DOCTYPE svg PUBLIC "-//W3C//DTD SVG 1.1//EN" "http://www.w3.org/Graphics/SVG/1.1/DTD/svg11.dtd">
<svg version="1.1" xmlns="http://www.w3.org/2000/svg" xmlns:xlink="http://www.w3.org/1999/xlink" width="32" height="32" viewBox="0 0 32 32">
<path d="M24 13.313c0.75 0 1.313-0.563 1.313-1.313s-0.563-1.313-1.313-1.313-1.313 0.563-1.313 1.313 0.563 1.313 1.313 1.313zM16 13.313v-6.625h-8v6.625h8zM26.375 9.625c0.625 0.625 0.938 1.438 0.938 2.375v12.688c0 1.813-1.5 3.313-3.313 3.313s-3.313-1.5-3.313-3.313v-6.688h-2v10h-13.375v-21.313c0-1.438 1.25-2.688 2.688-2.688h8c1.438 0 2.688 1.25 2.688 2.688v9.313h1.313c1.438 0 2.688 1.25 2.688 2.688v6c0 0.75 0.563 1.313 1.313 1.313s1.313-0.563 1.313-1.313v-9.625c-0.438 0.188-0.813 0.25-1.313 0.25-1.813 0-3.313-1.5-3.313-3.313 0-1.438 0.875-2.625 2.125-3.125l-2.813-2.813 1.438-1.375z"></path>
</svg>
