<?xml version="1.0" encoding="utf-8"?>
<!-- Generated by IcoMoon.io -->
<!DOCTYPE svg PUBLIC "-//W3C//DTD SVG 1.1//EN" "http://www.w3.org/Graphics/SVG/1.1/DTD/svg11.dtd">
<svg version="1.1" xmlns="http://www.w3.org/2000/svg" xmlns:xlink="http://www.w3.org/1999/xlink" width="32" height="32" viewBox="0 0 32 32">
<path d="M24 24.688c1.125 0 2-0.875 2-2s-0.875-2-2-2-2 0.875-2 2 0.875 2 2 2zM26 12.688h-3.313v3.313h5.938zM8 24.688c1.125 0 2-0.875 2-2s-0.875-2-2-2-2 0.875-2 2 0.875 2 2 2zM26.688 10.688l4 5.313v6.688h-2.688c0 2.188-1.813 4-4 4s-4-1.813-4-4h-8c0 2.188-1.813 4-4 4s-4-1.813-4-4h-2.688v-14.688c0-1.438 1.25-2.688 2.688-2.688h18.688v5.375h4z"></path>
</svg>
