<?xml version="1.0" encoding="utf-8"?>
<!-- Generated by IcoMoon.io -->
<!DOCTYPE svg PUBLIC "-//W3C//DTD SVG 1.1//EN" "http://www.w3.org/Graphics/SVG/1.1/DTD/svg11.dtd">
<svg version="1.1" xmlns="http://www.w3.org/2000/svg" xmlns:xlink="http://www.w3.org/1999/xlink" width="32" height="32" viewBox="0 0 32 32">
<path d="M7.313 9.313c1.125 0 2-0.875 2-2s-0.875-2-2-2-2 0.875-2 2 0.875 2 2 2zM28.563 15.438c0.5 0.5 0.75 1.125 0.75 1.875s-0.25 1.375-0.75 1.875l-9.375 9.375c-0.5 0.5-1.125 0.75-1.875 0.75s-1.375-0.25-1.875-0.75l-12-12c-0.5-0.5-0.75-1.125-0.75-1.875v-9.375c0-1.438 1.188-2.625 2.625-2.625h9.375c0.75 0 1.375 0.25 1.875 0.75z"></path>
</svg>
