<?xml version="1.0" encoding="utf-8"?>
<!-- Generated by IcoMoon.io -->
<!DOCTYPE svg PUBLIC "-//W3C//DTD SVG 1.1//EN" "http://www.w3.org/Graphics/SVG/1.1/DTD/svg11.dtd">
<svg version="1.1" xmlns="http://www.w3.org/2000/svg" xmlns:xlink="http://www.w3.org/1999/xlink" width="32" height="32" viewBox="0 0 32 32">
<path d="M16 7.313c-1.813 0-3.313 1.563-3.313 3.375s1.5 3.313 3.313 3.313 3.313-1.5 3.313-3.313-1.5-3.375-3.313-3.375zM7.438 13.688c0-1.313 0.813-2.438 1.938-3-1.125-0.563-1.938-1.688-1.938-3 0-1.813 1.563-3.375 3.375-3.375 0.688 0 1.313 0.25 1.875 0.625v-0.25c0-1.813 1.5-3.375 3.313-3.375s3.313 1.563 3.313 3.375v0.25c0.563-0.375 1.188-0.625 1.875-0.625 1.813 0 3.375 1.563 3.375 3.375 0 1.313-0.813 2.438-1.938 3 1.125 0.563 1.938 1.688 1.938 3 0 1.813-1.563 3.313-3.375 3.313-0.688 0-1.313-0.188-1.875-0.563v0.25c0 1.813-1.5 3.313-3.313 3.313s-3.313-1.5-3.313-3.313v-0.25c-0.563 0.375-1.188 0.563-1.875 0.563-1.813 0-3.375-1.5-3.375-3.313zM16 29.313c-6.625 0-12-5.375-12-12 6.625 0 12 5.375 12 12zM16 29.313c0-6.625 5.375-12 12-12 0 6.625-5.375 12-12 12z"></path>
</svg>
