<?xml version="1.0" encoding="utf-8"?>
<!-- Generated by IcoMoon.io -->
<!DOCTYPE svg PUBLIC "-//W3C//DTD SVG 1.1//EN" "http://www.w3.org/Graphics/SVG/1.1/DTD/svg11.dtd">
<svg version="1.1" xmlns="http://www.w3.org/2000/svg" xmlns:xlink="http://www.w3.org/1999/xlink" width="32" height="32" viewBox="0 0 32 32">
<path d="M20 12v-2.688h-5.313c-1.438 0-2.688 1.188-2.688 2.688v8c0 1.5 1.25 2.688 2.688 2.688h2.625c1.438 0 2.688-1.188 2.688-2.688v-2.688c0-1.5-1.25-2.625-2.688-2.625h-2.625v-2.688h5.313zM25.313 4c1.438 0 2.688 1.25 2.688 2.688v18.625c0 1.438-1.25 2.688-2.688 2.688h-18.625c-1.438 0-2.688-1.25-2.688-2.688v-18.625c0-1.438 1.25-2.688 2.688-2.688h18.625zM14.688 20v-2.688h2.625v2.688h-2.625z"></path>
</svg>
