<?xml version="1.0" encoding="utf-8"?>
<!-- Generated by IcoMoon.io -->
<!DOCTYPE svg PUBLIC "-//W3C//DTD SVG 1.1//EN" "http://www.w3.org/Graphics/SVG/1.1/DTD/svg11.dtd">
<svg version="1.1" xmlns="http://www.w3.org/2000/svg" xmlns:xlink="http://www.w3.org/1999/xlink" width="32" height="32" viewBox="0 0 32 32">
<path d="M6.004 8h20.993c1.114 0 2.004 0.893 2.004 1.994v12.012c0 1.1-0.897 1.994-2.004 1.994h-20.993c-1.114 0-2.004-0.893-2.004-1.994v-12.012c0-1.1 0.897-1.994 2.004-1.994zM7 11v1h4v-1h-4zM23 11v3h3v-3h-3zM24 12v1h1v-1h-1zM7 18v1h8v-1h-8zM7 20v1h8v-1h-8z"></path>
</svg>
