<?xml version="1.0" encoding="utf-8"?>
<!-- Generated by IcoMoon.io -->
<!DOCTYPE svg PUBLIC "-//W3C//DTD SVG 1.1//EN" "http://www.w3.org/Graphics/SVG/1.1/DTD/svg11.dtd">
<svg version="1.1" xmlns="http://www.w3.org/2000/svg" xmlns:xlink="http://www.w3.org/1999/xlink" width="32" height="32" viewBox="0 0 32 32">
<path d="M23.063 14.688h2.25c0 4.563-3.625 8.313-8 8.938v4.375h-2.625v-4.375c-4.375-0.625-8-4.375-8-8.938h2.25c0 4 3.375 6.75 7.063 6.75s7.063-2.75 7.063-6.75zM14.375 6.563v8.25c0 0.875 0.75 1.563 1.625 1.563s1.563-0.688 1.563-1.563l0.063-8.25c0-0.875-0.75-1.625-1.625-1.625s-1.625 0.75-1.625 1.625zM16 18.688c-2.188 0-4-1.813-4-4v-8c0-2.188 1.813-4 4-4s4 1.813 4 4v8c0 2.188-1.813 4-4 4z"></path>
</svg>
