<?xml version="1.0" encoding="utf-8"?>
<!-- Generated by IcoMoon.io -->
<!DOCTYPE svg PUBLIC "-//W3C//DTD SVG 1.1//EN" "http://www.w3.org/Graphics/SVG/1.1/DTD/svg11.dtd">
<svg version="1.1" xmlns="http://www.w3.org/2000/svg" xmlns:xlink="http://www.w3.org/1999/xlink" width="32" height="32" viewBox="0 0 32 32">
<path d="M7.125 5.438l19.438 19.5-1.688 1.688-2.938-3c-0.813 0.75-2 1.25-3.25 1.5v2.875h-4v-2.875c-2.563-0.563-4.75-2.188-4.938-5.125h2.938c0.125 1.563 1.25 2.813 4 2.813 1.813 0 2.75-0.625 3.188-1.25l-4.688-4.625c-3.125-0.938-5.188-2.5-5.188-5.25l-4.563-4.563zM16.688 9.188c-0.813 0-1.5 0.125-2.063 0.375l-1.938-1.938c0.625-0.313 1.313-0.563 2-0.75v-2.875h4v2.938c2.813 0.688 4.188 2.75 4.25 5.063h-2.938c-0.063-1.688-0.938-2.813-3.313-2.813z"></path>
</svg>
