<?xml version="1.0" encoding="utf-8"?>
<!-- Generated by IcoMoon.io -->
<!DOCTYPE svg PUBLIC "-//W3C//DTD SVG 1.1//EN" "http://www.w3.org/Graphics/SVG/1.1/DTD/svg11.dtd">
<svg version="1.1" xmlns="http://www.w3.org/2000/svg" xmlns:xlink="http://www.w3.org/1999/xlink" width="32" height="32" viewBox="0 0 32 32">
<path d="M17.875 24.125c2.313-0.438 4.188-1.75 4.188-4.188 0-3.375-2.938-4.563-5.625-5.25s-3.5-1.438-3.5-2.563c0-1.25 1.188-2.188 3.188-2.188 2.125 0 2.875 1 2.938 2.5h2.625c-0.063-2.063-1.313-3.875-3.813-4.5v-2.625h-3.563v2.625c-2.313 0.5-4.125 1.938-4.125 4.25 0 2.75 2.25 4.063 5.563 4.875 3 0.688 3.563 1.75 3.563 2.875 0 0.813-0.563 2.125-3.188 2.125-2.438 0-3.438-1.125-3.563-2.5h-2.625c0.125 2.563 2.125 4 4.375 4.5v2.625h3.563v-2.563zM16 2.688c7.375 0 13.313 5.938 13.313 13.313s-5.938 13.313-13.313 13.313-13.313-5.938-13.313-13.313 5.938-13.313 13.313-13.313z"></path>
</svg>
