<?xml version="1.0" encoding="utf-8"?>
<!-- Generated by IcoMoon.io -->
<!DOCTYPE svg PUBLIC "-//W3C//DTD SVG 1.1//EN" "http://www.w3.org/Graphics/SVG/1.1/DTD/svg11.dtd">
<svg version="1.1" xmlns="http://www.w3.org/2000/svg" xmlns:xlink="http://www.w3.org/1999/xlink" width="32" height="32" viewBox="0 0 32 32">
<path d="M26.688 25.313v-16h-10.688v1.375c3.75 0 6.688 2.875 6.688 6.625s-2.938 6.688-6.688 6.688v-2.375c-2.375 0-4.25-1.938-4.25-4.313s1.875-4.25 4.25-4.25v8.563c2.375 0 4.25-1.938 4.25-4.313s-1.875-4.25-4.25-4.25v-2.375c-3.75 0-6.688 2.875-6.688 6.625s2.938 6.688 6.688 6.688v1.313h10.688zM26.688 6.688c1.438 0 2.625 1.188 2.625 2.625v16c0 1.438-1.188 2.688-2.625 2.688h-21.375c-1.438 0-2.625-1.25-2.625-2.688v-16c0-1.438 1.188-2.625 2.625-2.625h4.313l2.375-2.688h8l2.375 2.688h4.313z"></path>
</svg>
