<?xml version="1.0" encoding="utf-8"?>
<!-- Generated by IcoMoon.io -->
<!DOCTYPE svg PUBLIC "-//W3C//DTD SVG 1.1//EN" "http://www.w3.org/Graphics/SVG/1.1/DTD/svg11.dtd">
<svg version="1.1" xmlns="http://www.w3.org/2000/svg" xmlns:xlink="http://www.w3.org/1999/xlink" width="32" height="32" viewBox="0 0 32 32">
<path d="M25.313 22.688c2.188 0 4-1.813 4-4s-1.813-4-4-4-4 1.813-4 4 1.813 4 4 4zM10.438 20h-3.75v-2.688h3.75c-0.563-1.563-2.063-2.625-3.75-2.625-2.188 0-4 1.813-4 4s1.813 4 4 4c1.688 0 3.188-1.125 3.75-2.688zM25.938 12.063c3.438 0.25 6.063 3.063 6.063 6.625 0 3.75-2.938 6.625-6.688 6.625s-6.625-2.875-6.625-6.625c0-0.813 0.125-1.625 0.375-2.375l-3.688 3.688h-2.188c-0.625 3.063-3.25 5.313-6.5 5.313-3.75 0-6.688-2.875-6.688-6.625s2.938-6.688 6.688-6.688h15.438l-2.688-2.688h-4.75v-2.625h5.875z"></path>
</svg>
