<?xml version="1.0" encoding="utf-8"?>
<!-- Generated by IcoMoon.io -->
<!DOCTYPE svg PUBLIC "-//W3C//DTD SVG 1.1//EN" "http://www.w3.org/Graphics/SVG/1.1/DTD/svg11.dtd">
<svg version="1.1" xmlns="http://www.w3.org/2000/svg" xmlns:xlink="http://www.w3.org/1999/xlink" width="32" height="32" viewBox="0 0 32 32">
<path d="M21.313 13.313l-5.313 5.375-5.313-5.375h2.625v-4h5.375v4h2.625zM25.313 20v-13.313h-18.688v13.313h5.375c0 2.188 1.813 4 4 4s4-1.813 4-4h5.313zM25.313 4c1.438 0 2.688 1.25 2.688 2.688v18.625c0 1.438-1.25 2.688-2.688 2.688h-18.688c-1.5 0-2.625-1.25-2.625-2.688v-18.625c0-1.438 1.125-2.688 2.625-2.688h18.688z"></path>
</svg>
