<?xml version="1.0" encoding="utf-8"?>
<!-- Generated by IcoMoon.io -->
<!DOCTYPE svg PUBLIC "-//W3C//DTD SVG 1.1//EN" "http://www.w3.org/Graphics/SVG/1.1/DTD/svg11.dtd">
<svg version="1.1" xmlns="http://www.w3.org/2000/svg" xmlns:xlink="http://www.w3.org/1999/xlink" width="32" height="32" viewBox="0 0 32 32">
<path d="M22.563 15.938l2.75-1.25-2.75-1.25-1.25-2.75-1.25 2.75-2.75 1.25 2.75 1.25 1.25 2.75zM15 20.313l3.688-1.625-3.688-1.688-1.688-3.688-1.625 3.688-3.688 1.688 3.688 1.625 1.625 3.688zM24 5.313h5.313v18.688c0 1.438-1.188 2.688-2.625 2.688h-21.375c-1.438 0-2.625-1.25-2.625-2.688v-16c0-1.438 1.188-2.688 2.625-2.688h1.375l2.625 4h4l-2.625-4h2.625l2.688 4h4l-2.688-4h2.688l2.688 4h4z"></path>
</svg>
