<?xml version="1.0" encoding="utf-8"?>
<!-- Generated by IcoMoon.io -->
<!DOCTYPE svg PUBLIC "-//W3C//DTD SVG 1.1//EN" "http://www.w3.org/Graphics/SVG/1.1/DTD/svg11.dtd">
<svg version="1.1" xmlns="http://www.w3.org/2000/svg" xmlns:xlink="http://www.w3.org/1999/xlink" width="32" height="32" viewBox="0 0 32 32">
<path d="M29.313 9.25l-4.063 4.563c1.438 2.313 2.438 5.125 2.75 8.188h-2.688c-0.25-2.188-0.938-4.25-1.938-6.063l-5.375 6.063-5.313-5.375-8 8-2-2 10-10 5.313 5.375 3.813-4.375c-2.25-2.625-5.375-4.313-9-4.313-3.125 0-6 1.25-8.25 3.25l-1.875-1.875c2.75-2.438 6.25-4 10.125-4 4.313 0 8.063 1.875 10.813 4.938l3.813-4.25z"></path>
</svg>
