<?xml version="1.0" encoding="utf-8"?>
<!-- Generated by IcoMoon.io -->
<!DOCTYPE svg PUBLIC "-//W3C//DTD SVG 1.1//EN" "http://www.w3.org/Graphics/SVG/1.1/DTD/svg11.dtd">
<svg version="1.1" xmlns="http://www.w3.org/2000/svg" xmlns:xlink="http://www.w3.org/1999/xlink" width="32" height="32" viewBox="0 0 32 32">
<path d="M6 14.688c-1.125 0-2-0.875-2-2s0.875-2 2-2 2 0.875 2 2-0.875 2-2 2zM29.563 12.25c0 4.813-3.625 8.688-8.25 9.25v5.188h4v2.625h-21.313v-6.625h-1.313v-5.375c0-0.75 0.563-1.313 1.313-1.313h4c0.75 0 1.313 0.563 1.313 1.313v5.375h-1.313v4h10.688v-5.25c-4.438-0.75-7.813-4.563-7.813-9.188 0-5.188 4.188-9.375 9.375-9.375s9.313 4.188 9.313 9.375z"></path>
</svg>
