<?xml version="1.0" encoding="utf-8"?>
<!-- Generated by IcoMoon.io -->
<!DOCTYPE svg PUBLIC "-//W3C//DTD SVG 1.1//EN" "http://www.w3.org/Graphics/SVG/1.1/DTD/svg11.dtd">
<svg version="1.1" xmlns="http://www.w3.org/2000/svg" xmlns:xlink="http://www.w3.org/1999/xlink" width="32" height="32" viewBox="0 0 32 32">
<path d="M6.688 17.313c2.688-2.688 6.25-3.938 9.75-3.813l-1.75 3.813c-1.938 0.25-3.875 1.188-5.375 2.688zM22.688 20c-0.5-0.5-1.063-0.938-1.625-1.313l0.75-3.875c1.25 0.625 2.438 1.438 3.5 2.5zM28 14.688c-1.625-1.625-3.5-2.875-5.5-3.688l0.688-3.75c2.75 1 5.313 2.563 7.5 4.75zM1.313 12c5-5 11.875-6.875 18.313-5.75l-1.563 3.563c-5-0.625-10.25 1.063-14.063 4.875zM21.188 6.688c0.375 0 0.688 0.25 0.688 0.625l-3.25 17.188v0.063c-0.25 1.188-1.375 2.125-2.625 2.125-1.5 0-2.688-1.188-2.688-2.688 0-0.438 0.125-0.938 0.313-1.313l6.938-15.5c0.098-0.295 0.285-0.5 0.625-0.5z"></path>
</svg>
