<?xml version="1.0" encoding="utf-8"?>
<!-- Generated by IcoMoon.io -->
<!DOCTYPE svg PUBLIC "-//W3C//DTD SVG 1.1//EN" "http://www.w3.org/Graphics/SVG/1.1/DTD/svg11.dtd">
<svg version="1.1" xmlns="http://www.w3.org/2000/svg" xmlns:xlink="http://www.w3.org/1999/xlink" width="32" height="32" viewBox="0 0 32 32">
<path d="M28 21.313v-2c0-1.125-0.875-2-2-2s-2 0.875-2 2v2h4zM29.313 21.313c0.75 0 1.375 0.625 1.375 1.375v5.313c0 0.75-0.625 1.313-1.375 1.313h-6.625c-0.75 0-1.375-0.563-1.375-1.313v-5.313c0-0.75 0.625-1.375 1.375-1.375v-2c0-1.813 1.5-3.313 3.313-3.313s3.313 1.5 3.313 3.313v2zM26 13.313c-3.313 0-6 2.688-6 6v0.375c-0.813 0.75-1.313 1.813-1.313 3v4h-17.375l25.375-25.375v12.063c-0.25 0-0.438-0.063-0.688-0.063z"></path>
</svg>
