<?xml version="1.0" encoding="utf-8"?>
<!-- Generated by IcoMoon.io -->
<!DOCTYPE svg PUBLIC "-//W3C//DTD SVG 1.1//EN" "http://www.w3.org/Graphics/SVG/1.1/DTD/svg11.dtd">
<svg version="1.1" xmlns="http://www.w3.org/2000/svg" xmlns:xlink="http://www.w3.org/1999/xlink" width="32" height="32" viewBox="0 0 32 32">
<path d="M14.688 24.688l5.313-5.375-5.313-5.313-1.375 1.313 4 4-4 4zM13.313 6.688v2.625h5.375v-2.625h-5.375zM18.688 4c1.458 0 2.625 1.219 2.625 2.688v2.625h5.375c1.438 0 2.625 1.25 2.625 2.688v14.688c0 1.438-1.188 2.625-2.625 2.625h-21.375c-1.438 0-2.625-1.188-2.625-2.625v-14.688c0-1.438 1.188-2.688 2.625-2.688h5.375v-2.625c0-1.438 1.188-2.688 2.625-2.688h5.375z"></path>
</svg>
