<?xml version="1.0" encoding="utf-8"?>
<!-- Generated by IcoMoon.io -->
<!DOCTYPE svg PUBLIC "-//W3C//DTD SVG 1.1//EN" "http://www.w3.org/Graphics/SVG/1.1/DTD/svg11.dtd">
<svg version="1.1" xmlns="http://www.w3.org/2000/svg" xmlns:xlink="http://www.w3.org/1999/xlink" width="32" height="32" viewBox="0 0 32 32">
<path d="M24 8v16h-16v-16h5.313v2.688h-2.625v10.625h10.625v-10.625h-4v3c0.813 0.438 1.375 1.313 1.375 2.313 0 1.438-1.25 2.688-2.688 2.688s-2.688-1.25-2.688-2.688c0-1 0.563-1.875 1.375-2.313v-3c0-1.438 1.188-2.688 2.625-2.688h6.688zM26.688 26.688v-21.375h-21.375v21.375h21.375zM26.688 2.688c1.438 0 2.625 1.188 2.625 2.625v21.375c0 1.438-1.188 2.625-2.625 2.625h-21.375c-1.438 0-2.625-1.188-2.625-2.625v-21.375c0-1.438 1.188-2.625 2.625-2.625h21.375z"></path>
</svg>
