<?xml version="1.0" encoding="utf-8"?>
<!-- Generated by IcoMoon.io -->
<!DOCTYPE svg PUBLIC "-//W3C//DTD SVG 1.1//EN" "http://www.w3.org/Graphics/SVG/1.1/DTD/svg11.dtd">
<svg version="1.1" xmlns="http://www.w3.org/2000/svg" xmlns:xlink="http://www.w3.org/1999/xlink" width="32" height="32" viewBox="0 0 32 32">
<path d="M11.875 8v1.625l-2.438-2.438c0.375-3.313 3.125-5.875 6.563-5.875 3.688 0 6.688 3 6.688 6.688v2.688h1.313c1.438 0 2.688 1.188 2.688 2.625v11.125l-13.813-13.75h7.25v-2.688c0-2.25-1.875-4.125-4.125-4.125s-4.125 1.875-4.125 4.125zM28 29.063l-1.625 1.625-1.5-1.5c-0.25 0.063-0.563 0.125-0.875 0.125h-16c-1.438 0-2.688-1.188-2.688-2.625v-13.375c0-1 0.625-1.875 1.438-2.313l-2.75-2.688 1.625-1.625z"></path>
</svg>
