<?xml version="1.0" encoding="utf-8"?>
<!-- Generated by IcoMoon.io -->
<!DOCTYPE svg PUBLIC "-//W3C//DTD SVG 1.1//EN" "http://www.w3.org/Graphics/SVG/1.1/DTD/svg11.dtd">
<svg version="1.1" xmlns="http://www.w3.org/2000/svg" xmlns:xlink="http://www.w3.org/1999/xlink" width="32" height="32" viewBox="0 0 32 32">
<path d="M24.438 22.563c1.438-1.813 2.25-4.125 2.25-6.563 0-5.875-4.813-10.688-10.688-10.688-2.438 0-4.75 0.813-6.563 2.25zM16 26.688c2.438 0 4.75-0.813 6.563-2.25l-15-15c-1.438 1.813-2.25 4.125-2.25 6.563 0 5.875 4.813 10.688 10.688 10.688zM16 2.688c7.375 0 13.313 5.938 13.313 13.313s-5.938 13.313-13.313 13.313-13.313-5.938-13.313-13.313 5.938-13.313 13.313-13.313z"></path>
</svg>
