<?xml version="1.0" encoding="utf-8"?>
<!-- Generated by IcoMoon.io -->
<!DOCTYPE svg PUBLIC "-//W3C//DTD SVG 1.1//EN" "http://www.w3.org/Graphics/SVG/1.1/DTD/svg11.dtd">
<svg version="1.1" xmlns="http://www.w3.org/2000/svg" xmlns:xlink="http://www.w3.org/1999/xlink" width="32" height="32" viewBox="0 0 32 32">
<path d="M24 19.563l-11.938-12.563c0.313-0.125 0.625-0.313 0.938-0.438h0.063l0.375-0.188c0.188-0.063 0.375-0.063 0.563-0.125v-0.938c0-1.125 0.875-2 2-2s2 0.875 2 2v0.938c3.813 0.938 6 4.313 6 8.438v4.875zM16 29.313c-1.5 0-2.688-1.125-2.688-2.625h5.375c0 1.5-1.188 2.625-2.688 2.625zM10.438 8.188c5.851 6.045 11.729 12.062 17.563 18.125l-1.688 1.688-2.688-2.688h-18.313v-1.313l2.688-2.688v-6.688c0-1.688 0.375-3.25 1.063-4.563l-3.75-3.688 1.688-1.75z"></path>
</svg>
