<?xml version="1.0" encoding="utf-8"?>
<!-- Generated by IcoMoon.io -->
<!DOCTYPE svg PUBLIC "-//W3C//DTD SVG 1.1//EN" "http://www.w3.org/Graphics/SVG/1.1/DTD/svg11.dtd">
<svg version="1.1" xmlns="http://www.w3.org/2000/svg" xmlns:xlink="http://www.w3.org/1999/xlink" width="32" height="32" viewBox="0 0 32 32">
<path d="M19 13v7h-5v-7h-9v14h23v-14h-9zM15 5h-5.4l-4.375 7h8.775l1-7zM18 5l1 7h8.775l-4.375-7h-5.4zM4 12.5v-0.5l5-8h15l5 8v16h-25v-15.5zM16 5l-1 7h3l-1-7h-1zM15 13v6h3v-6h-3zM6 21v1h7v-1h-7zM6 25v1h7v-1h-7zM6 23v1h5v-1h-5z"></path>
</svg>
