<?xml version="1.0" encoding="utf-8"?>
<!-- Generated by IcoMoon.io -->
<!DOCTYPE svg PUBLIC "-//W3C//DTD SVG 1.1//EN" "http://www.w3.org/Graphics/SVG/1.1/DTD/svg11.dtd">
<svg version="1.1" xmlns="http://www.w3.org/2000/svg" xmlns:xlink="http://www.w3.org/1999/xlink" width="32" height="32" viewBox="0 0 32 32">
<path d="M22.375 24.25l1.875-1.875-3.875-3.875c0.563-0.938 0.938-2 0.938-3.188 0-3.313-2.688-6-6-6s-6 2.688-6 6 2.688 6 6 6c1.188 0 2.25-0.375 3.188-0.938zM26.688 5.313c1.438 0 2.625 1.25 2.625 2.688v16c0 1.438-1.188 2.688-2.625 2.688h-21.375c-1.438 0-2.625-1.25-2.625-2.688v-16c0-1.438 1.188-2.688 2.625-2.688h21.375zM15.313 12c1.813 0 3.375 1.5 3.375 3.313s-1.563 3.375-3.375 3.375-3.313-1.563-3.313-3.375 1.5-3.313 3.313-3.313z"></path>
</svg>
