<?xml version="1.0" encoding="utf-8"?>
<!-- Generated by IcoMoon.io -->
<!DOCTYPE svg PUBLIC "-//W3C//DTD SVG 1.1//EN" "http://www.w3.org/Graphics/SVG/1.1/DTD/svg11.dtd">
<svg version="1.1" xmlns="http://www.w3.org/2000/svg" xmlns:xlink="http://www.w3.org/1999/xlink" width="32" height="32" viewBox="0 0 32 32">
<path d="M25.313 4c1.438 0 2.688 1.25 2.688 2.688v8h-6.688l1.375-5.375-5.375 1.375v-6.688h8zM22.688 22.688l-1.375-5.375h6.688v8c0 1.438-1.25 2.688-2.688 2.688h-8v-6.688zM10.688 17.313l-1.375 5.375 5.375-1.375v6.688h-8c-1.438 0-2.688-1.25-2.688-2.688v-8h6.688zM4 6.688c0-1.438 1.25-2.688 2.688-2.688h8v6.688l-5.375-1.375 1.375 5.375h-6.688v-8z"></path>
</svg>
