<?xml version="1.0" encoding="utf-8"?>
<!-- Generated by IcoMoon.io -->
<!DOCTYPE svg PUBLIC "-//W3C//DTD SVG 1.1//EN" "http://www.w3.org/Graphics/SVG/1.1/DTD/svg11.dtd">
<svg version="1.1" xmlns="http://www.w3.org/2000/svg" xmlns:xlink="http://www.w3.org/1999/xlink" width="32" height="32" viewBox="0 0 32 32">
<path d="M23.313 16c1.125 0 2-0.875 2-2s-0.875-2-2-2-2 0.875-2 2 0.875 2 2 2zM19.313 10.688c1.125 0 2-0.875 2-2s-0.875-2-2-2-2 0.875-2 2 0.875 2 2 2zM12.688 10.688c1.125 0 2-0.875 2-2s-0.875-2-2-2-2 0.875-2 2 0.875 2 2 2zM8.688 16c1.125 0 2-0.875 2-2s-0.875-2-2-2-2 0.875-2 2 0.875 2 2 2zM16 4c6.625 0 12 4.813 12 10.688 0 3.688-3 6.625-6.688 6.625h-2.313c-1.125 0-2 0.875-2 2 0 0.5 0.188 0.938 0.5 1.313s0.5 0.875 0.5 1.375c0 1.125-0.875 2-2 2-6.625 0-12-5.375-12-12s5.375-12 12-12z"></path>
</svg>
