<?xml version="1.0" encoding="utf-8"?>
<!-- Generated by IcoMoon.io -->
<!DOCTYPE svg PUBLIC "-//W3C//DTD SVG 1.1//EN" "http://www.w3.org/Graphics/SVG/1.1/DTD/svg11.dtd">
<svg version="1.1" xmlns="http://www.w3.org/2000/svg" xmlns:xlink="http://www.w3.org/1999/xlink" width="32" height="32" viewBox="0 0 32 32">
<path d="M16 5.313c3.625 0 7 0.375 10.625 1l1.188 0.188 0.375 1.188c0.75 2.75 1.125 5.563 1.125 8.313s-0.375 5.563-1.125 8.313l-0.375 1.188-1.188 0.188c-3.625 0.625-7 1-10.625 1s-7-0.375-10.625-1l-1.188-0.188-0.375-1.188c-0.75-2.75-1.125-5.563-1.125-8.313s0.375-5.563 1.125-8.313l0.375-1.188 1.188-0.188c3.625-0.625 7-1 10.625-1zM16 8c-3.25 0-6.313 0.313-9.75 0.875-0.625 2.375-0.938 4.75-0.938 7.125s0.313 4.75 0.938 7.125c3.438 0.563 6.5 0.875 9.75 0.875s6.313-0.313 9.75-0.875c0.625-2.375 0.938-4.75 0.938-7.125s-0.313-4.75-0.938-7.125c-3.438-0.563-6.5-0.875-9.75-0.875z"></path>
</svg>
