<?xml version="1.0" encoding="utf-8"?>
<!-- Generated by IcoMoon.io -->
<!DOCTYPE svg PUBLIC "-//W3C//DTD SVG 1.1//EN" "http://www.w3.org/Graphics/SVG/1.1/DTD/svg11.dtd">
<svg version="1.1" xmlns="http://www.w3.org/2000/svg" xmlns:xlink="http://www.w3.org/1999/xlink" width="32" height="32" viewBox="0 0 32 32">
<path d="M28.563 5.313c0.438 0 0.75 0.313 0.75 0.875v19.625c0 0.563-0.313 0.875-0.75 0.875-0.125 0-0.25-0.063-0.375-0.125-3.938-1.438-8.063-2.188-12.188-2.188s-8.25 0.75-12.188 2.188c-0.125 0.063-0.25 0.125-0.375 0.125-0.438 0-0.75-0.375-0.75-0.875v-19.625c0-0.563 0.313-0.875 0.75-0.875 0.125 0 0.25 0.063 0.375 0.125 3.938 1.438 8.063 2.188 12.188 2.188s8.25-0.75 12.188-2.188c0.125-0.063 0.25-0.125 0.375-0.125zM26.688 8.75c-3.438 1.063-7.063 1.5-10.688 1.5s-7.25-0.5-10.688-1.5v14.5c3.438-1 7.063-1.5 10.688-1.5s7.25 0.5 10.688 1.5v-14.5z"></path>
</svg>
