<?xml version="1.0" encoding="utf-8"?>
<!-- Generated by IcoMoon.io -->
<!DOCTYPE svg PUBLIC "-//W3C//DTD SVG 1.1//EN" "http://www.w3.org/Graphics/SVG/1.1/DTD/svg11.dtd">
<svg version="1.1" xmlns="http://www.w3.org/2000/svg" xmlns:xlink="http://www.w3.org/1999/xlink" width="32" height="32" viewBox="0 0 32 32">
<path d="M8.75 26.688h14.5c-1-3.438-1.5-7.063-1.5-10.688s0.5-7.25 1.5-10.688h-14.5c1 3.438 1.5 7.063 1.5 10.688s-0.5 7.25-1.5 10.688zM26.563 28.188c0.063 0.125 0.125 0.25 0.125 0.375 0 0.438-0.375 0.75-0.875 0.75h-19.625c-0.563 0-0.875-0.313-0.875-0.75 0-0.125 0.063-0.25 0.125-0.375 1.438-3.938 2.188-8.063 2.188-12.188s-0.75-8.25-2.188-12.188c-0.063-0.125-0.125-0.25-0.125-0.375 0-0.438 0.313-0.75 0.875-0.75h19.625c0.563 0 0.875 0.313 0.875 0.75 0 0.125-0.063 0.25-0.125 0.375-1.438 3.938-2.188 8.063-2.188 12.188s0.75 8.25 2.188 12.188z"></path>
</svg>
