<?xml version="1.0" encoding="utf-8"?>
<!-- Generated by IcoMoon.io -->
<!DOCTYPE svg PUBLIC "-//W3C//DTD SVG 1.1//EN" "http://www.w3.org/Graphics/SVG/1.1/DTD/svg11.dtd">
<svg version="1.1" xmlns="http://www.w3.org/2000/svg" xmlns:xlink="http://www.w3.org/1999/xlink" width="32" height="32" viewBox="0 0 32 32">
<path d="M21.313 17.313c3.125 0 9.375 1.563 9.375 4.688v3.313h-8v-3.313c0-2-1.063-3.5-2.625-4.625 0.438-0.063 0.875-0.063 1.25-0.063zM10.688 17.313c3.125 0 9.313 1.563 9.313 4.688v3.313h-18.688v-3.313c0-3.125 6.25-4.688 9.375-4.688zM10.688 14.688c-2.188 0-4-1.813-4-4s1.813-4 4-4 3.938 1.813 3.938 4-1.75 4-3.938 4zM21.313 14.688c-2.188 0-4-1.813-4-4s1.813-4 4-4 4 1.813 4 4-1.813 4-4 4z"></path>
</svg>
