<?xml version="1.0" encoding="utf-8"?>
<!-- Generated by IcoMoon.io -->
<!DOCTYPE svg PUBLIC "-//W3C//DTD SVG 1.1//EN" "http://www.w3.org/Graphics/SVG/1.1/DTD/svg11.dtd">
<svg version="1.1" xmlns="http://www.w3.org/2000/svg" xmlns:xlink="http://www.w3.org/1999/xlink" width="32" height="32" viewBox="0 0 32 32">
<path d="M18.688 17.313v-5.313c0-1.438-1.25-2.688-2.688-2.688s-2.688 1.25-2.688 2.688v5.313c0 1.438 1.25 2.688 2.688 2.688s2.688-1.25 2.688-2.688zM26.688 6.688c1.438 0 2.625 1.188 2.625 2.625v16c0 1.438-1.188 2.688-2.625 2.688h-9.375v-2.813c3.75-0.625 6.688-3.938 6.688-7.875h-2.688c0 2.938-2.375 5.375-5.313 5.375s-5.313-2.438-5.313-5.375h-2.688c0 3.938 2.938 7.25 6.688 7.875v2.813h-9.375c-1.438 0-2.625-1.25-2.625-2.688v-16c0-1.438 1.188-2.625 2.625-2.625h4.25l2.438-2.688h8l2.438 2.688h4.25z"></path>
</svg>
