<?xml version="1.0" encoding="utf-8"?>
<!-- Generated by IcoMoon.io -->
<!DOCTYPE svg PUBLIC "-//W3C//DTD SVG 1.1//EN" "http://www.w3.org/Graphics/SVG/1.1/DTD/svg11.dtd">
<svg version="1.1" xmlns="http://www.w3.org/2000/svg" xmlns:xlink="http://www.w3.org/1999/xlink" width="32" height="32" viewBox="0 0 32 32">
<path d="M24 24v-1.313c0-2.688-5.313-4.125-8-4.125s-8 1.438-8 4.125v1.313h16zM16 8c-2.188 0-4 1.813-4 4s1.813 4 4 4 4-1.813 4-4-1.813-4-4-4zM25.313 4c1.438 0 2.688 1.25 2.688 2.688v18.625c0 1.438-1.25 2.688-2.688 2.688h-18.625c-1.5 0-2.688-1.25-2.688-2.688v-18.625c0-1.438 1.188-2.688 2.688-2.688h1.313v-2.688h2.688v2.688h10.625v-2.688h2.688v2.688h1.313z"></path>
</svg>
