<?xml version="1.0" encoding="utf-8"?>
<!-- Generated by IcoMoon.io -->
<!DOCTYPE svg PUBLIC "-//W3C//DTD SVG 1.1//EN" "http://www.w3.org/Graphics/SVG/1.1/DTD/svg11.dtd">
<svg version="1.1" xmlns="http://www.w3.org/2000/svg" xmlns:xlink="http://www.w3.org/1999/xlink" width="32" height="32" viewBox="0 0 32 32">
<path d="M25.313 27.313c1.125 0 2-0.875 2-2s-0.875-2-2-2-2 0.875-2 2 0.875 2 2 2zM30.25 26l1.438 1.063c0.125 0.125 0.125 0.313 0.063 0.438l-1.313 2.313c-0.063 0.125-0.313 0.25-0.438 0.188l-1.625-0.688c-0.313 0.25-0.75 0.438-1.125 0.625l-0.25 1.813c0 0.188-0.188 0.25-0.375 0.25h-2.625c-0.188 0-0.375-0.063-0.375-0.25l-0.25-1.813c-0.438-0.188-0.75-0.375-1.125-0.625l-1.625 0.688c-0.188 0.063-0.375-0.063-0.438-0.188l-1.313-2.313c-0.063-0.125-0.063-0.313 0.063-0.438l1.438-1.063c0-0.188-0.063-0.438-0.063-0.688s0.063-0.438 0.063-0.625l-1.438-1.125c-0.125-0.125-0.125-0.313-0.063-0.438l1.313-2.313c0.063-0.125 0.313-0.188 0.438-0.125l1.625 0.688c0.375-0.25 0.75-0.5 1.125-0.688l0.25-1.75c0-0.188 0.188-0.25 0.375-0.25h2.625c0.188 0 0.375 0.063 0.375 0.25l0.25 1.75c0.438 0.188 0.75 0.438 1.125 0.688l1.625-0.688c0.188-0.063 0.375 0 0.438 0.125l1.313 2.313c0.063 0.125 0.063 0.313-0.063 0.438l-1.438 1.125c0.063 0.188 0.063 0.375 0.063 0.625s-0.063 0.5-0.063 0.688zM25.313 15.313c-5.5 0-10 4.5-10 10 0 0.438 0.063 0.938 0.125 1.375h-15.438l26.688-26.688-0.063 15.438c-0.438-0.063-0.875-0.125-1.313-0.125z"></path>
</svg>
