<?xml version="1.0" encoding="utf-8"?>
<!-- Generated by IcoMoon.io -->
<!DOCTYPE svg PUBLIC "-//W3C//DTD SVG 1.1//EN" "http://www.w3.org/Graphics/SVG/1.1/DTD/svg11.dtd">
<svg version="1.1" xmlns="http://www.w3.org/2000/svg" xmlns:xlink="http://www.w3.org/1999/xlink" width="32" height="32" viewBox="0 0 32 32">
<path d="M24 21.313v-1.188c0-2.688-5.313-4.125-8-4.125s-8 1.438-8 4.125v1.188h16zM16 7.063c-2 0-3.625 1.625-3.625 3.625s1.625 3.563 3.625 3.563 3.625-1.563 3.625-3.563-1.625-3.625-3.625-3.625zM25.313 2.688c1.438 0 2.688 1.188 2.688 2.625v18.688c0 1.438-1.25 2.688-2.688 2.688h-5.313l-4 4-4-4h-5.313c-1.5 0-2.688-1.25-2.688-2.688v-18.688c0-1.438 1.188-2.625 2.688-2.625h18.625z"></path>
</svg>
