<?xml version="1.0" encoding="utf-8"?>
<!-- Generated by IcoMoon.io -->
<!DOCTYPE svg PUBLIC "-//W3C//DTD SVG 1.1//EN" "http://www.w3.org/Graphics/SVG/1.1/DTD/svg11.dtd">
<svg version="1.1" xmlns="http://www.w3.org/2000/svg" xmlns:xlink="http://www.w3.org/1999/xlink" width="32" height="32" viewBox="0 0 32 32">
<path d="M16 17.313c3.563 0 10.688 1.813 10.688 5.375v4h-21.375v-4c0-3.563 7.125-5.375 10.688-5.375zM16 5.313c2.938 0 5.313 2.438 5.313 5.375s-2.375 5.313-5.313 5.313-5.313-2.375-5.313-5.313 2.375-5.375 5.313-5.375zM16 19.875c-3.938 0-8.125 1.938-8.125 2.813v1.438h16.25v-1.438c0-0.875-4.188-2.813-8.125-2.813zM16 7.875c-1.563 0-2.813 1.25-2.813 2.813s1.25 2.75 2.813 2.75 2.813-1.188 2.813-2.75-1.25-2.813-2.813-2.813z"></path>
</svg>
