<?xml version="1.0" encoding="utf-8"?>
<!-- Generated by IcoMoon.io -->
<!DOCTYPE svg PUBLIC "-//W3C//DTD SVG 1.1//EN" "http://www.w3.org/Graphics/SVG/1.1/DTD/svg11.dtd">
<svg version="1.1" xmlns="http://www.w3.org/2000/svg" xmlns:xlink="http://www.w3.org/1999/xlink" width="32" height="32" viewBox="0 0 32 32">
<path d="M16 18.688c2.25 0 4.188-1.125 5.313-2.875 0-1.75-3.563-2.75-5.313-2.75s-5.313 1-5.313 2.75c1.125 1.75 3.063 2.875 5.313 2.875zM16 5.313c-1.438 0-2.688 1.25-2.688 2.688 0 1.5 1.25 2.688 2.688 2.688s2.688-1.188 2.688-2.688c0-1.438-1.25-2.688-2.688-2.688zM16 2.688c5.125 0 9.313 4.188 9.313 9.313 0 7-9.313 17.313-9.313 17.313s-9.313-10.313-9.313-17.313c0-5.125 4.188-9.313 9.313-9.313z"></path>
</svg>
