<?xml version="1.0" encoding="utf-8"?>
<!-- Generated by IcoMoon.io -->
<!DOCTYPE svg PUBLIC "-//W3C//DTD SVG 1.1//EN" "http://www.w3.org/Graphics/SVG/1.1/DTD/svg11.dtd">
<svg version="1.1" xmlns="http://www.w3.org/2000/svg" xmlns:xlink="http://www.w3.org/1999/xlink" width="32" height="32" viewBox="0 0 32 32">
<path d="M23.125 19.813c1.75 1.75 3.938 3.625 3.5 6.375-0.375 1.375-1.375 2.75-3.125 3.125-1 0.188-4.063-0.563-7.375-0.563h-0.25c-3.313 0-6.375 0.75-7.375 0.563-1.75-0.375-2.75-1.75-3.125-3.125-0.375-2.688 1.75-4.625 3.5-6.375 1.188-1.375 2.125-2.5 3.313-3.875 0.625-0.75 1.375-1.438 2.313-1.75 0.125-0.063 0.313-0.125 0.438-0.125 0.375-0.063 0.688-0.063 1.063-0.063s0.75 0 1.063 0.063c0.125 0 0.313 0.063 0.438 0.125 0.938 0.313 1.688 1 2.313 1.75 1.188 1.375 2.125 2.5 3.313 3.875zM22.688 12.688c0-1.813 1.5-3.375 3.313-3.375s3.313 1.563 3.313 3.375-1.5 3.313-3.313 3.313-3.313-1.5-3.313-3.313zM16.688 7.313c0-1.813 1.5-3.313 3.313-3.313s3.313 1.5 3.313 3.313-1.5 3.375-3.313 3.375-3.313-1.563-3.313-3.375zM8.688 7.313c0-1.813 1.5-3.313 3.313-3.313s3.313 1.5 3.313 3.313-1.5 3.375-3.313 3.375-3.313-1.563-3.313-3.375zM2.688 12.688c0-1.813 1.5-3.375 3.313-3.375s3.313 1.563 3.313 3.375-1.5 3.313-3.313 3.313-3.313-1.5-3.313-3.313z"></path>
</svg>
