<?xml version="1.0" encoding="utf-8"?>
<!-- Generated by IcoMoon.io -->
<!DOCTYPE svg PUBLIC "-//W3C//DTD SVG 1.1//EN" "http://www.w3.org/Graphics/SVG/1.1/DTD/svg11.dtd">
<svg version="1.1" xmlns="http://www.w3.org/2000/svg" xmlns:xlink="http://www.w3.org/1999/xlink" width="32" height="32" viewBox="0 0 32 32">
<path d="M18.688 26.688v-21.375h-13.375v21.375h13.375zM18.688 1.313c1.438 0 2.625 1.25 2.625 2.688v24c0 1.438-1.188 2.688-2.625 2.688h-13.375c-1.438 0-2.625-1.25-2.625-2.688v-24c0-1.438 1.188-2.688 2.625-2.688h13.375zM24 13.063c1.625 1.75 1.625 4.125 0 5.75l-1.313-1.375c0.688-0.938 0.688-2.125 0-3.063zM26.813 10.25c3.313 3.188 3.313 8.313 0 11.375l-1.375-1.375c2.375-2.563 2.375-6.25 0-8.625z"></path>
</svg>
