<?xml version="1.0" encoding="utf-8"?>
<!-- Generated by IcoMoon.io -->
<!DOCTYPE svg PUBLIC "-//W3C//DTD SVG 1.1//EN" "http://www.w3.org/Graphics/SVG/1.1/DTD/svg11.dtd">
<svg version="1.1" xmlns="http://www.w3.org/2000/svg" xmlns:xlink="http://www.w3.org/1999/xlink" width="32" height="32" viewBox="0 0 32 32">
<path d="M30.688 10.688c0.75 0 1.313 0.563 1.313 1.313v13.313c0 0.75-0.563 1.375-1.313 1.375h-0.25l-4-4h2.875v-9.375h-5.313v6.938l-2.688-2.688v-5.563c0-0.75 0.625-1.313 1.375-1.313h8zM5.313 8.375v14.313h14.313zM2.563 2.188c8.632 8.639 17.249 17.293 25.875 25.938l-1.688 1.688-3.125-3.125h-23.625v-4h2.688v-14.688c0-0.625 0.25-1.25 0.625-1.688l-2.438-2.438zM29.313 8h-17.563l-2.688-2.688h20.25v2.688z"></path>
</svg>
