<?xml version="1.0" encoding="utf-8"?>
<!-- Generated by IcoMoon.io -->
<!DOCTYPE svg PUBLIC "-//W3C//DTD SVG 1.1//EN" "http://www.w3.org/Graphics/SVG/1.1/DTD/svg11.dtd">
<svg version="1.1" xmlns="http://www.w3.org/2000/svg" xmlns:xlink="http://www.w3.org/1999/xlink" width="32" height="32" viewBox="0 0 32 32">
<path d="M25.313 1.313c1.438 0 2.688 1.25 2.688 2.688v24c0 1.438-1.25 2.688-2.688 2.688h-13.313c-1.438 0-2.688-1.25-2.688-2.688v-4h2.688v2.688h13.313v-21.375h-13.313v2.688h-2.688v-4c0-1.438 1.25-2.688 2.688-2.688h13.313zM17.313 10.938l-5.313 5.313 5.313 5.375-1.313 1.313-5.313-5.313-5.375 5.313-1.313-1.313 5.313-5.375-5.313-5.313 1.313-1.313 5.375 5.313 5.313-5.313z"></path>
</svg>
