<?xml version="1.0" encoding="utf-8"?>
<!-- Generated by IcoMoon.io -->
<!DOCTYPE svg PUBLIC "-//W3C//DTD SVG 1.1//EN" "http://www.w3.org/Graphics/SVG/1.1/DTD/svg11.dtd">
<svg version="1.1" xmlns="http://www.w3.org/2000/svg" xmlns:xlink="http://www.w3.org/1999/xlink" width="32" height="32" viewBox="0 0 32 32">
<path d="M25.313 1.313c1.438 0 2.688 1.25 2.688 2.688v24c0 1.438-1.25 2.688-2.688 2.688h-13.313c-1.438 0-2.688-1.25-2.688-2.688v-4h2.688v2.688h13.313v-21.375h-13.313v2.688h-2.688v-4c0-1.438 1.25-2.688 2.688-2.688h13.313zM10.688 18.688c1.438 0 2.625-1.25 2.625-2.688s-1.188-2.688-2.625-2.688-2.688 1.25-2.688 2.688 1.25 2.688 2.688 2.688zM15.75 16.688l1.438 1.188c0.125 0.125 0.25 0.25 0.125 0.375l-1.313 2.313c-0.125 0.125-0.25 0.125-0.375 0.125l-1.75-0.688c-0.375 0.25-0.813 0.563-1.188 0.688l-0.313 1.688c-0.125 0.125-0.25 0.313-0.375 0.313h-2.688c-0.125 0-0.375-0.188-0.25-0.313l-0.25-1.688c-0.375-0.125-0.813-0.438-1.188-0.688l-1.875 0.563c-0.125 0.125-0.313-0.063-0.438-0.188l-1.313-2.25c0-0.125 0-0.25 0.125-0.5l1.5-1.063v-1.375l-1.5-1.063c-0.125-0.125-0.25-0.25-0.125-0.375l1.313-2.313c0.125-0.125 0.313-0.125 0.438-0.125l1.688 0.688c0.375-0.25 0.875-0.563 1.25-0.688l0.25-1.688c0.125-0.125 0.25-0.313 0.375-0.313h2.688c0.25 0 0.375 0.188 0.375 0.313l0.313 1.688c0.375 0.125 0.813 0.438 1.188 0.688l1.75-0.563c0.125-0.125 0.25 0.063 0.375 0.188l1.313 2.25c0 0.125 0 0.25-0.125 0.375l-1.438 1.063v1.375z"></path>
</svg>
