<?xml version="1.0" encoding="utf-8"?>
<!-- Generated by IcoMoon.io -->
<!DOCTYPE svg PUBLIC "-//W3C//DTD SVG 1.1//EN" "http://www.w3.org/Graphics/SVG/1.1/DTD/svg11.dtd">
<svg version="1.1" xmlns="http://www.w3.org/2000/svg" xmlns:xlink="http://www.w3.org/1999/xlink" width="32" height="32" viewBox="0 0 32 32">
<path d="M12.688 14.688v-2c0-1.063-0.938-1.75-2-1.75s-2 0.688-2 1.75v2h4zM14.375 14.688c0.813 0 1.625 0.75 1.625 1.688v4.688c0 0.813-0.813 1.625-1.75 1.625h-7.313c-0.813 0-1.625-0.813-1.625-1.75v-4.688c0-0.813 0.813-1.563 1.625-1.563v-2c0-1.875 1.875-3.375 3.75-3.375s3.688 1.5 3.688 3.375v2zM25.313 1.313c1.438 0 2.688 1.25 2.688 2.688v24c0 1.438-1.25 2.688-2.688 2.688h-13.313c-1.438 0-2.688-1.25-2.688-2.688v-4h2.688v2.688h13.313v-21.375h-13.313v2.688h-2.688v-4c0-1.438 1.25-2.688 2.688-2.688h13.313z"></path>
</svg>
