<?xml version="1.0" encoding="utf-8"?>
<!-- Generated by IcoMoon.io -->
<!DOCTYPE svg PUBLIC "-//W3C//DTD SVG 1.1//EN" "http://www.w3.org/Graphics/SVG/1.1/DTD/svg11.dtd">
<svg version="1.1" xmlns="http://www.w3.org/2000/svg" xmlns:xlink="http://www.w3.org/1999/xlink" width="32" height="32" viewBox="0 0 32 32">
<path d="M17.688 14.313l3.625 1.688-3.625 1.688-1.688 3.625-1.688-3.625-3.625-1.688 3.625-1.688 1.688-3.625zM22.688 13.313l-1.25-2.75-2.75-1.25 2.75-1.25 1.25-2.75 1.25 2.75 2.75 1.25-2.75 1.25zM25.375 13.313h2.625v12c0 1.438-1.188 2.688-2.625 2.688h-18.688c-1.438 0-2.688-1.25-2.688-2.688v-18.625c0-1.438 1.25-2.688 2.688-2.688h12v2.688h-12v18.625h18.688v-12z"></path>
</svg>
