<?xml version="1.0" encoding="utf-8"?>
<!-- Generated by IcoMoon.io -->
<!DOCTYPE svg PUBLIC "-//W3C//DTD SVG 1.1//EN" "http://www.w3.org/Graphics/SVG/1.1/DTD/svg11.dtd">
<svg version="1.1" xmlns="http://www.w3.org/2000/svg" xmlns:xlink="http://www.w3.org/1999/xlink" width="32" height="32" viewBox="0 0 32 32">
<path d="M16 22.688c3.688 0 6.688-3 6.688-6.688s-3-6.688-6.688-6.688-6.688 3-6.688 6.688 3 6.688 6.688 6.688zM12 2.688h8l2.438 2.625h4.25c1.438 0 2.625 1.25 2.625 2.688v16c0 1.438-1.188 2.688-2.625 2.688h-21.375c-1.438 0-2.625-1.25-2.625-2.688v-16c0-1.438 1.188-2.688 2.625-2.688h4.25zM11.75 16c0-2.375 1.875-4.25 4.25-4.25s4.25 1.875 4.25 4.25-1.875 4.25-4.25 4.25-4.25-1.875-4.25-4.25z"></path>
</svg>
