<?xml version="1.0" encoding="utf-8"?>
<!-- Generated by IcoMoon.io -->
<!DOCTYPE svg PUBLIC "-//W3C//DTD SVG 1.1//EN" "http://www.w3.org/Graphics/SVG/1.1/DTD/svg11.dtd">
<svg version="1.1" xmlns="http://www.w3.org/2000/svg" xmlns:xlink="http://www.w3.org/1999/xlink" width="32" height="32" viewBox="0 0 32 32">
<path d="M4 25.313h13.313l-4.25-5.688-3.313 4.313-2.438-2.875zM1.313 14.688h18.688v13.313h-16c-1.438 0-2.688-1.25-2.688-2.688v-10.625zM6.688 4h2.625v2.688h-2.625v-2.688zM12 4h2.688v2.688h-2.688v-2.688zM4 4v2.688h-2.688c0-1.313 1.375-2.688 2.688-2.688zM22.688 25.313h2.625v2.688h-2.625v-2.688zM22.688 4h2.625v2.688h-2.625v-2.688zM1.313 9.313h2.688v2.688h-2.688v-2.688zM28 4c1.313 0 2.688 1.375 2.688 2.688h-2.688v-2.688zM28 9.313h2.688v2.688h-2.688v-2.688zM17.313 4h2.688v2.688h-2.688v-2.688zM30.688 25.313c0 1.313-1.375 2.688-2.688 2.688v-2.688h2.688zM28 14.688h2.688v2.625h-2.688v-2.625zM28 20h2.688v2.688h-2.688v-2.688z"></path>
</svg>
