<?xml version="1.0" encoding="utf-8"?>
<!-- Generated by IcoMoon.io -->
<!DOCTYPE svg PUBLIC "-//W3C//DTD SVG 1.1//EN" "http://www.w3.org/Graphics/SVG/1.1/DTD/svg11.dtd">
<svg version="1.1" xmlns="http://www.w3.org/2000/svg" xmlns:xlink="http://www.w3.org/1999/xlink" width="32" height="32" viewBox="0 0 32 32">
<path d="M18.688 15.313v-4h1.313v4h-1.313zM5.313 8v18.688h18.688v2.625h-18.688c-1.438 0-2.625-1.188-2.625-2.625v-18.688h2.625zM12 12.688v-1.375h1.313v1.375h-1.313zM27.313 11.313v-2h-4v8h2v-2.625h2v-2h-2v-1.375h2zM22 15.313v-4c0-1.125-0.875-2-2-2h-3.313v8h3.313c1.125 0 2-0.875 2-2zM15.313 12.688v-1.375c0-1.125-0.875-2-2-2h-3.313v8h2v-2.625h1.313c1.125 0 2-0.875 2-2zM26.688 2.688c1.438 0 2.625 1.188 2.625 2.625v16c0 1.438-1.188 2.688-2.625 2.688h-16c-1.438 0-2.688-1.25-2.688-2.688v-16c0-1.438 1.25-2.625 2.688-2.625h16z"></path>
</svg>
