<?xml version="1.0" encoding="utf-8"?>
<!-- Generated by IcoMoon.io -->
<!DOCTYPE svg PUBLIC "-//W3C//DTD SVG 1.1//EN" "http://www.w3.org/Graphics/SVG/1.1/DTD/svg11.dtd">
<svg version="1.1" xmlns="http://www.w3.org/2000/svg" xmlns:xlink="http://www.w3.org/1999/xlink" width="32" height="32" viewBox="0 0 32 32">
<path d="M18.688 7.313c0-1.813 1.5-3.313 3.313-3.313s3.313 1.5 3.313 3.313-1.5 3.375-3.313 3.375-3.313-1.563-3.313-3.375zM11.563 16c-0.75 0-1.063-0.188-1.563-0.5-0.25-0.188-0.563-0.313-1-0.5l4.313-4.313-1.313-1.375c-1.5-1.5-2.875-2-5.313-2v-3.313c3.313 0 5.25 0.625 7.313 2.688l8.563 8.5c-0.188 0.125-0.375 0.25-0.563 0.313-0.5 0.313-0.813 0.5-1.563 0.5s-1-0.188-1.5-0.5c-0.625-0.375-1.438-0.813-2.938-0.813s-2.313 0.438-2.938 0.813c-0.5 0.313-0.75 0.5-1.5 0.5zM29.313 22c-1.5 0-2.25-0.5-2.875-0.875-0.5-0.313-0.813-0.438-1.563-0.438s-1 0.125-1.5 0.438c-0.625 0.375-1.438 0.875-2.938 0.875s-2.25-0.5-2.875-0.875c-0.5-0.313-0.813-0.438-1.563-0.438s-1 0.125-1.5 0.438c-0.625 0.375-1.438 0.875-2.938 0.875s-2.25-0.5-2.875-0.875c-0.5-0.313-0.813-0.438-1.563-0.438s-1 0.125-1.5 0.438c-0.625 0.375-1.438 0.875-2.938 0.875v-2.688c0.75 0 1-0.125 1.5-0.438 0.625-0.375 1.438-0.875 2.938-0.875s2.25 0.5 2.875 0.875c0.5 0.313 0.813 0.438 1.563 0.438s1-0.125 1.5-0.438c0.625-0.375 1.438-0.875 2.938-0.875s2.25 0.5 2.875 0.875c0.5 0.313 0.813 0.438 1.563 0.438s1-0.125 1.5-0.438c0.625-0.375 1.438-0.875 2.938-0.875s2.25 0.5 2.875 0.875c0.5 0.313 0.813 0.438 1.563 0.438v2.688zM29.313 28c-1.5 0-2.25-0.5-2.875-0.875-0.5-0.313-0.813-0.438-1.563-0.438s-1 0.125-1.5 0.438c-0.625 0.375-1.438 0.875-2.938 0.875s-2.25-0.5-2.875-0.875c-0.5-0.313-0.813-0.438-1.563-0.438s-1 0.125-1.5 0.438c-0.625 0.375-1.438 0.875-2.938 0.875s-2.313-0.5-2.938-0.875c-0.5-0.313-0.75-0.438-1.5-0.438s-1.063 0.125-1.563 0.438c-0.625 0.375-1.375 0.875-2.875 0.875v-2.688c0.75 0 1-0.125 1.5-0.438 0.625-0.375 1.438-0.875 2.938-0.875s2.25 0.5 2.875 0.875c0.5 0.313 0.813 0.438 1.563 0.438s1-0.125 1.5-0.438c0.625-0.375 1.438-0.875 2.938-0.875s2.313 0.5 2.938 0.875c0.5 0.313 0.75 0.438 1.5 0.438s1.063-0.125 1.563-0.438c0.625-0.375 1.375-0.875 2.875-0.875s2.313 0.5 2.938 0.875c0.5 0.313 0.75 0.438 1.5 0.438v2.688z"></path>
</svg>
