<?xml version="1.0" encoding="utf-8"?>
<!-- Generated by IcoMoon.io -->
<!DOCTYPE svg PUBLIC "-//W3C//DTD SVG 1.1//EN" "http://www.w3.org/Graphics/SVG/1.1/DTD/svg11.dtd">
<svg version="1.1" xmlns="http://www.w3.org/2000/svg" xmlns:xlink="http://www.w3.org/1999/xlink" width="32" height="32" viewBox="0 0 32 32">
<path d="M4.375 3.313l1.313 1.375 22.313 22.313-1.688 1.688-10-10.063h-0.063l-0.25 0.063c-1.438 0-2.688-1.25-2.688-2.688l0.063-0.25-2.125-2.125c-0.375 0.75-0.563 1.5-0.563 2.375 0 2 1.063 3.688 2.625 4.625l-1.313 2.313c-2.375-1.375-4-4-4-6.938 0-1.625 0.438-3.063 1.25-4.313l-1.875-1.938c-1.25 1.75-2.063 3.875-2.063 6.25 0 3.938 2.125 7.375 5.313 9.25l-1.313 2.313c-4-2.313-6.625-6.625-6.625-11.563 0-3.063 1-5.938 2.75-8.188l-2.75-2.813zM16 5.313c-1.813 0-3.5 0.438-5 1.25l-1.938-1.938c2-1.25 4.375-1.938 6.938-1.938 7.375 0 13.313 5.938 13.313 13.313 0 2.563-0.688 4.938-1.938 6.938l-2-1.938c0.813-1.5 1.313-3.188 1.313-5 0-5.875-4.813-10.688-10.688-10.688zM23.438 19l-2.188-2.188c0.063-0.25 0.063-0.563 0.063-0.813 0-2.938-2.375-5.313-5.313-5.313-0.25 0-0.563 0-0.813 0.063l-2.188-2.188c0.938-0.375 1.938-0.563 3-0.563 4.438 0 8 3.563 8 8 0 1.063-0.188 2.063-0.563 3z"></path>
</svg>
