<?xml version="1.0" encoding="utf-8"?>
<!-- Generated by IcoMoon.io -->
<!DOCTYPE svg PUBLIC "-//W3C//DTD SVG 1.1//EN" "http://www.w3.org/Graphics/SVG/1.1/DTD/svg11.dtd">
<svg version="1.1" xmlns="http://www.w3.org/2000/svg" xmlns:xlink="http://www.w3.org/1999/xlink" width="32" height="32" viewBox="0 0 32 32">
<path d="M32 24l-6 6-2-2 4-4-4-4 2-2zM17.313 13.313h4v2.688h-4v4h-2.625v-4h-4v-2.688h4v-4h2.625v4zM28 4c1.438 0 2.688 1.188 2.688 2.688v10.625h-2.688v-10.625h-24v16h20v2.625h-2.688v2.688h-10.625v-2.688h-6.688c-1.5 0-2.688-1.188-2.688-2.625v-16c0-1.5 1.188-2.688 2.688-2.688h24z"></path>
</svg>
