<?xml version="1.0" encoding="utf-8"?>
<!-- Generated by IcoMoon.io -->
<!DOCTYPE svg PUBLIC "-//W3C//DTD SVG 1.1//EN" "http://www.w3.org/Graphics/SVG/1.1/DTD/svg11.dtd">
<svg version="1.1" xmlns="http://www.w3.org/2000/svg" xmlns:xlink="http://www.w3.org/1999/xlink" width="32" height="32" viewBox="0 0 32 32">
<path d="M26.688 16v-5.313h-21.375v5.313h16v-2.688h2.688v2.688h2.688zM9.313 26.688c2.188 0 4-1.813 4-4s-1.813-4-4-4-4 1.813-4 4 1.813 4 4 4zM4.313 8.188l16.875-6.875 0.875 2.25-11 4.438h15.625c1.5 0 2.625 1.188 2.625 2.688v16c0 1.438-1.125 2.625-2.625 2.625h-21.375c-1.5 0-2.625-1.188-2.625-2.625v-16c0-1.125 0.625-2.125 1.625-2.5z"></path>
</svg>
