<?xml version="1.0" encoding="utf-8"?>
<!-- Generated by IcoMoon.io -->
<!DOCTYPE svg PUBLIC "-//W3C//DTD SVG 1.1//EN" "http://www.w3.org/Graphics/SVG/1.1/DTD/svg11.dtd">
<svg version="1.1" xmlns="http://www.w3.org/2000/svg" xmlns:xlink="http://www.w3.org/1999/xlink" width="32" height="32" viewBox="0 0 32 32">
<path d="M9 11.5c0-1.684 2.511-4.5 2.511-4.5s2.489 2.816 2.489 4.5c0 1.2-0.813 2.5-2.489 2.5s-2.511-1.2-2.511-2.5v0zM19 15.5c0-1.684 2.511-4.5 2.511-4.5s2.489 2.816 2.489 4.5c0 1.2-0.813 2.5-2.489 2.5s-2.511-1.2-2.511-2.5v0zM12 23.5c0-1.684 2.511-4.5 2.511-4.5s2.489 2.816 2.489 4.5c0 1.2-0.813 2.5-2.489 2.5s-2.511-1.2-2.511-2.5v0z"></path>
</svg>
