<?xml version="1.0" encoding="utf-8"?>
<!-- Generated by IcoMoon.io -->
<!DOCTYPE svg PUBLIC "-//W3C//DTD SVG 1.1//EN" "http://www.w3.org/Graphics/SVG/1.1/DTD/svg11.dtd">
<svg version="1.1" xmlns="http://www.w3.org/2000/svg" xmlns:xlink="http://www.w3.org/1999/xlink" width="32" height="32" viewBox="0 0 32 32">
<path d="M4 29.313v-26.625l2 2 2-2 2 2 2-2 2 2 2-2 2 2 2-2 2 2 2-2 2 2 2-2v26.625l-2-2-2 2-2-2-2 2-2-2-2 2-2-2-2 2-2-2-2 2-2-2zM24 12v-2.688h-16v2.688h16zM24 17.313v-2.625h-16v2.625h16zM24 22.688v-2.688h-16v2.688h16z"></path>
</svg>
