<?xml version="1.0" encoding="utf-8"?>
<!-- Generated by IcoMoon.io -->
<!DOCTYPE svg PUBLIC "-//W3C//DTD SVG 1.1//EN" "http://www.w3.org/Graphics/SVG/1.1/DTD/svg11.dtd">
<svg version="1.1" xmlns="http://www.w3.org/2000/svg" xmlns:xlink="http://www.w3.org/1999/xlink" width="32" height="32" viewBox="0 0 32 32">
<path d="M26.688 18.688v-8h-6.813l2.813 3.75-2.188 1.563c-1.502-2.039-3.020-4.063-4.5-6.125-1.48 2.061-2.998 4.086-4.5 6.125l-2.188-1.563 2.813-3.75h-6.813v8h21.375zM26.688 25.313v-2.625h-21.375v2.625h21.375zM12 5.313c-0.75 0-1.313 0.625-1.313 1.375s0.563 1.313 1.313 1.313 1.313-0.563 1.313-1.313-0.563-1.375-1.313-1.375zM20 5.313c-0.75 0-1.313 0.625-1.313 1.375s0.563 1.313 1.313 1.313 1.313-0.563 1.313-1.313-0.563-1.375-1.313-1.375zM26.688 8c1.5 0 2.625 1.188 2.625 2.688v14.625c0 1.5-1.125 2.688-2.625 2.688h-21.375c-1.5 0-2.625-1.188-2.625-2.688v-14.625c0-1.5 1.125-2.688 2.625-2.688h2.938c-0.125-0.438-0.25-0.875-0.25-1.313 0-2.188 1.813-4 4-4 1.375 0 2.563 0.688 3.313 1.75l0.688 0.938 0.688-0.938c0.75-1.063 1.938-1.75 3.313-1.75 2.188 0 4 1.813 4 4 0 0.438-0.125 0.875-0.25 1.313h2.938z"></path>
</svg>
