<?xml version="1.0" encoding="utf-8"?>
<!-- Generated by IcoMoon.io -->
<!DOCTYPE svg PUBLIC "-//W3C//DTD SVG 1.1//EN" "http://www.w3.org/Graphics/SVG/1.1/DTD/svg11.dtd">
<svg version="1.1" xmlns="http://www.w3.org/2000/svg" xmlns:xlink="http://www.w3.org/1999/xlink" width="32" height="32" viewBox="0 0 32 32">
<path d="M9.313 24c1.438 0 2.688 1.25 2.688 2.688s-1.25 2.625-2.688 2.625-2.625-1.188-2.625-2.625 1.188-2.688 2.625-2.688zM20.75 17.313l-12-12h17.938c0.75 0 1.313 0.625 1.313 1.375 0 0.25-0.063 0.438-0.188 0.625l-4.75 8.625c-0.438 0.813-1.313 1.375-2.313 1.375zM9.875 20h6.75l-2.688-2.688h-3.125l-1.188 2.188-0.063 0.188c0 0.188 0.125 0.313 0.313 0.313zM30.313 30.313l-1.688 1.688-3.813-3.813c-0.5 0.688-1.25 1.125-2.125 1.125-1.438 0-2.688-1.188-2.688-2.625 0-0.875 0.438-1.688 1.125-2.188l-1.875-1.813h-9.938c-1.438 0-2.625-1.25-2.625-2.688 0-0.438 0.125-0.875 0.313-1.25l1.813-3.313-2.938-6.188-5.875-5.875 1.688-1.688z"></path>
</svg>
