<?xml version="1.0" encoding="utf-8"?>
<!-- Generated by IcoMoon.io -->
<!DOCTYPE svg PUBLIC "-//W3C//DTD SVG 1.1//EN" "http://www.w3.org/Graphics/SVG/1.1/DTD/svg11.dtd">
<svg version="1.1" xmlns="http://www.w3.org/2000/svg" xmlns:xlink="http://www.w3.org/1999/xlink" width="32" height="32" viewBox="0 0 32 32">
<path d="M17.875 20.25c0 0.235 0.433 0.438 0.688 0.438 0.125 0 0.25 0 0.375-0.125l0.25-0.313s0.125-0.25 0.125-0.375v-2.688c0-0.125-0.125-0.25-0.125-0.375 0-0.146-0.473-0.438-0.625-0.438-0.125 0-0.313 0.063-0.438 0.188l-0.25 0.25s-0.125 0.25-0.125 0.375v2.688s0.125 0.25 0.125 0.375zM20.375 18.938c0 0.375 0 0.813-0.125 1.063l-0.375 0.813s-0.438 0.375-0.688 0.375-0.563 0.125-0.813 0.125c-0.633 0-1.009-0.286-1.438-0.5-0.25-0.125-0.25-0.438-0.375-0.813s-0.188-0.688-0.188-1.063v-0.938c0-0.375 0.063-0.813 0.188-1.063l0.375-0.813s0.438-0.375 0.688-0.375 0.5-0.125 0.75-0.125 0.563 0 0.813 0.125 0.438 0.25 0.688 0.375 0.25 0.438 0.375 0.813 0.125 0.688 0.125 1.063v0.938zM13.313 18c0.507 0 0.938-0.31 0.938-0.813v-0.25s-0.125-0.125-0.125-0.25-0.125-0.125-0.25-0.125h-0.688s-0.125 0.125-0.25 0.125-0.125 0.125-0.125 0.25v0.25h-1.375c0-0.618 0.551-1.438 1.125-1.438 0.125 0 0.5-0.125 0.625-0.125 0.542 0 1.102 0.176 1.5 0.375 0.317 0.158 0.5 0.757 0.5 1.188v0.438s-0.125 0.25-0.125 0.375-0.125 0.25-0.25 0.25-0.313 0.188-0.438 0.313c0.25 0.125 0.563 0.25 0.688 0.5s0.25 0.563 0.25 0.813 0 0.563-0.125 0.688-0.25 0.375-0.375 0.5-0.438 0.25-0.688 0.25-0.563 0.125-0.813 0.125-0.5 0-0.625-0.125-0.438-0.125-0.688-0.25c-0.349-0.174-0.563-0.844-0.563-1.313h1.125v0.25s0.125 0.125 0.125 0.25 0.125 0.125 0.25 0.125h0.688s0.125-0.125 0.25-0.125 0.125-0.125 0.125-0.25v-0.688s-0.125-0.125-0.125-0.25-0.125-0.125-0.25-0.125h-0.813v-0.938h0.5zM16 6.688c5.875 0 10.688 4.75 10.688 10.625s-4.813 10.688-10.688 10.688-10.688-4.813-10.688-10.688h2.688c0 4.375 3.625 8 8 8s8-3.625 8-8-3.625-8-8-8v5.375l-6.688-6.688 6.688-6.688v5.375z"></path>
</svg>
