<?xml version="1.0" encoding="utf-8"?>
<!-- Generated by IcoMoon.io -->
<!DOCTYPE svg PUBLIC "-//W3C//DTD SVG 1.1//EN" "http://www.w3.org/Graphics/SVG/1.1/DTD/svg11.dtd">
<svg version="1.1" xmlns="http://www.w3.org/2000/svg" xmlns:xlink="http://www.w3.org/1999/xlink" width="32" height="32" viewBox="0 0 32 32">
<path d="M15.75 18.125c-0.112 0.045-0.438 0.15-0.438 0.25 0 0.125-0.125 0.188-0.125 0.188h-0.938l0.313-2.938h3.188v0.938h-2.313l-0.125 1.188s0.125 0 0.125-0.125 0.188-0.063 0.188-0.188 0.125 0 0.25 0h0.25c0.25 0 0.563 0.063 0.688 0.188s0.375 0.25 0.5 0.375c0.277 0.277 0.563 0.852 0.563 1.438 0 0.25 0 0.563-0.125 0.688s-0.188 0.438-0.438 0.688-0.375 0.25-0.5 0.375-0.563 0.125-0.813 0.125-0.563 0-0.688-0.125-0.375-0.125-0.625-0.25c-0.35-0.175-0.563-0.705-0.563-1.188h1.063c0 0.463 0.331 0.625 0.813 0.625 0.125 0 0.25 0 0.375-0.125l0.313-0.25s0.125-0.25 0.125-0.375v-0.813l-0.125-0.25-0.313-0.313s-0.25-0.125-0.375-0.125h-0.25zM16 6.688c5.875 0 10.688 4.75 10.688 10.625s-4.813 10.688-10.688 10.688-10.688-4.813-10.688-10.688h2.688c0 4.375 3.625 8 8 8s8-3.625 8-8-3.625-8-8-8v5.375l-6.688-6.688 6.688-6.688v5.375z"></path>
</svg>
