<?xml version="1.0" encoding="utf-8"?>
<!-- Generated by IcoMoon.io -->
<!DOCTYPE svg PUBLIC "-//W3C//DTD SVG 1.1//EN" "http://www.w3.org/Graphics/SVG/1.1/DTD/svg11.dtd">
<svg version="1.1" xmlns="http://www.w3.org/2000/svg" xmlns:xlink="http://www.w3.org/1999/xlink" width="32" height="32" viewBox="0 0 32 32">
<path d="M16 10.688h2v5.625l4.688 2.813-1 1.625-5.688-3.438v-6.625zM17.313 4c6.625 0 12 5.375 12 12s-5.375 12-12 12c-3.313 0-6.25-1.313-8.438-3.5l1.875-1.938c1.688 1.688 4 2.75 6.563 2.75 5.188 0 9.375-4.125 9.375-9.313s-4.188-9.313-9.375-9.313-9.313 4.125-9.313 9.313h4l-5.375 5.375-0.125-0.188-5.188-5.188h4c0-6.625 5.375-12 12-12z"></path>
</svg>
