<?xml version="1.0" encoding="utf-8"?>
<!-- Generated by IcoMoon.io -->
<!DOCTYPE svg PUBLIC "-//W3C//DTD SVG 1.1//EN" "http://www.w3.org/Graphics/SVG/1.1/DTD/svg11.dtd">
<svg version="1.1" xmlns="http://www.w3.org/2000/svg" xmlns:xlink="http://www.w3.org/1999/xlink" width="32" height="32" viewBox="0 0 32 32">
<path d="M16 24c3.688 0 6.688-3 6.688-6.688s-3-6.625-6.688-6.625c-2.375 0-4.438 1.25-5.625 3.063l-1.688-1.75v5.313h5.313l-2.125-2.125c0.75-1.5 2.313-2.5 4.125-2.5 2.563 0 4.688 2.063 4.688 4.625s-2.125 4.688-4.688 4.688c-1.563 0-3-0.813-3.813-2h-2.313c1 2.375 3.375 4 6.125 4zM18.688 2.688l8 8v16c0 1.438-1.25 2.625-2.688 2.625h-16c-1.438 0-2.688-1.188-2.688-2.625l0.063-21.375c0-1.438 1.188-2.625 2.625-2.625h10.688z"></path>
</svg>
