<?xml version="1.0" encoding="utf-8"?>
<!-- Generated by IcoMoon.io -->
<!DOCTYPE svg PUBLIC "-//W3C//DTD SVG 1.1//EN" "http://www.w3.org/Graphics/SVG/1.1/DTD/svg11.dtd">
<svg version="1.1" xmlns="http://www.w3.org/2000/svg" xmlns:xlink="http://www.w3.org/1999/xlink" width="32" height="32" viewBox="0 0 32 32">
<path d="M17.313 5.438c5.25 0.625 9.375 5.125 9.375 10.563s-4.125 9.938-9.375 10.563v-2.688c3.813-0.625 6.688-3.938 6.688-7.875s-2.875-7.25-6.688-7.875v5.188l-6.063-5.938 6.063-6.063v4.125zM9.438 24.438l1.938-1.938c1 0.75 2.125 1.188 3.313 1.375v2.688c-1.875-0.25-3.688-0.938-5.25-2.125zM8.125 17.313c0.188 1.188 0.625 2.313 1.313 3.313l-1.875 1.875c-1.188-1.563-1.875-3.313-2.125-5.188h2.688zM9.5 11.375c-0.688 1-1.188 2.125-1.375 3.313h-2.688c0.25-1.875 1-3.625 2.188-5.188z"></path>
</svg>
