<?xml version="1.0" encoding="utf-8"?>
<!-- Generated by IcoMoon.io -->
<!DOCTYPE svg PUBLIC "-//W3C//DTD SVG 1.1//EN" "http://www.w3.org/Graphics/SVG/1.1/DTD/svg11.dtd">
<svg version="1.1" xmlns="http://www.w3.org/2000/svg" xmlns:xlink="http://www.w3.org/1999/xlink" width="32" height="32" viewBox="0 0 32 32">
<path d="M22.5 20.625c0.75-1 1.188-2.125 1.375-3.313h2.688c-0.25 1.875-0.938 3.625-2.125 5.188zM17.313 23.875c1.188-0.188 2.313-0.625 3.313-1.375l1.938 1.938c-1.563 1.188-3.375 1.875-5.25 2.125v-2.688zM26.563 14.688h-2.688c-0.188-1.188-0.625-2.313-1.375-3.313l1.938-1.875c1.188 1.563 1.875 3.313 2.125 5.188zM20.75 7.375l-6.063 5.938v-5.188c-3.813 0.625-6.688 3.938-6.688 7.875s2.875 7.25 6.688 7.875v2.688c-5.25-0.625-9.375-5.125-9.375-10.563s4.125-9.938 9.375-10.563v-4.125z"></path>
</svg>
