<?xml version="1.0" encoding="utf-8"?>
<!-- Generated by IcoMoon.io -->
<!DOCTYPE svg PUBLIC "-//W3C//DTD SVG 1.1//EN" "http://www.w3.org/Graphics/SVG/1.1/DTD/svg11.dtd">
<svg version="1.1" xmlns="http://www.w3.org/2000/svg" xmlns:xlink="http://www.w3.org/1999/xlink" width="32" height="32" viewBox="0 0 32 32">
<path d="M25.813 8.875c4.688 4.688 4.688 12.25 0 16.938-2.313 2.375-5.438 3.5-8.5 3.5-2 0-3.938-0.5-5.75-1.5l2-1.938c1.188 0.563 2.438 0.813 3.75 0.813 2.375 0 4.813-0.938 6.625-2.75 3.625-3.625 3.625-9.563 0-13.188-1.813-1.813-4.25-2.75-6.625-2.75v4.313l-5.625-5.625 5.625-5.688v4.313c3.063 0 6.188 1.188 8.5 3.563zM4.938 17.188l4.875 4.875 4.875-4.875-4.875-4.875zM9.813 8.563l8.625 8.625-8.625 8.625-8.688-8.625z"></path>
</svg>
