<?xml version="1.0" encoding="utf-8"?>
<!-- Generated by IcoMoon.io -->
<!DOCTYPE svg PUBLIC "-//W3C//DTD SVG 1.1//EN" "http://www.w3.org/Graphics/SVG/1.1/DTD/svg11.dtd">
<svg version="1.1" xmlns="http://www.w3.org/2000/svg" xmlns:xlink="http://www.w3.org/1999/xlink" width="32" height="32" viewBox="0 0 32 32">
<path d="M28 10.688v6.625h-2.688v-6.625c0-2.188-1.813-4-4-4h-6.625v-2.688h6.625c3.688 0 6.688 3 6.688 6.688zM4 28v-2.688h2.688v2.688h-2.688zM9.313 28v-2.688h2.688v2.688h-2.688zM14.688 28v-2.688h2.625v2.688h-2.625zM9.313 6.688v-2.688h2.688v2.688h-2.688zM4 6.688v-2.688h2.688v2.688h-2.688zM4 12v-2.688h2.688v2.688h-2.688zM4 22.688v-2.688h2.688v2.688h-2.688zM4 17.313v-2.625h2.688v2.625h-2.688zM25.313 22.688v-2.688h2.688v2.688h-2.688zM25.313 25.313h2.688v2.688h-2.688v-2.688z"></path>
</svg>
