<?xml version="1.0" encoding="utf-8"?>
<!-- Generated by IcoMoon.io -->
<!DOCTYPE svg PUBLIC "-//W3C//DTD SVG 1.1//EN" "http://www.w3.org/Graphics/SVG/1.1/DTD/svg11.dtd">
<svg version="1.1" xmlns="http://www.w3.org/2000/svg" xmlns:xlink="http://www.w3.org/1999/xlink" width="32" height="32" viewBox="0 0 32 32">
<path d="M20 24v-2.688h-2.688v2.688h2.688zM15.313 24v-2.688h-2.625v2.688h2.625zM10.688 24v-2.688h-2.688v2.688h2.688zM25.313 17.313c1.438 0 2.688 1.25 2.688 2.688v5.313c0 1.438-1.25 2.688-2.688 2.688h-18.625c-1.438 0-2.688-1.25-2.688-2.688v-5.313c0-1.438 1.25-2.688 2.688-2.688h13.313v-5.313h2.688v5.313h2.625zM25.75 8.938l-1.063 1.063c-0.938-0.938-2.188-1.313-3.375-1.313s-2.375 0.375-3.313 1.313l-1.063-1.063c1.188-1.188 2.75-1.875 4.375-1.875s3.25 0.688 4.438 1.875zM26.938 7.875c-1.625-1.438-3.625-2.25-5.625-2.25s-3.938 0.813-5.563 2.25l-1.063-1.063c1.875-1.875 4.25-2.813 6.625-2.813s4.813 0.938 6.688 2.813z"></path>
</svg>
