<?xml version="1.0" encoding="utf-8"?>
<!-- Generated by IcoMoon.io -->
<!DOCTYPE svg PUBLIC "-//W3C//DTD SVG 1.1//EN" "http://www.w3.org/Graphics/SVG/1.1/DTD/svg11.dtd">
<svg version="1.1" xmlns="http://www.w3.org/2000/svg" xmlns:xlink="http://www.w3.org/1999/xlink" width="32" height="32" viewBox="0 0 32 32">
<path d="M28 28l-4 4-4-4v-2l-9.438-9.438c-0.438 0.063-0.875 0.063-1.25 0.063v-2.875c2.188 0.063 4.813-1.125 6.25-2.688l1.875-2.063c0.475-0.475 1.26-1 2.188-1h0.063c1.625 0 3 1.375 3 3v7.688c0 1.125-0.5 2.125-1.25 2.875l-4.75-4.75v-3.063c-0.813 0.688-1.938 1.375-3.063 1.875l8.375 8.375h2zM20 1.313c1.438 0 2.688 1.25 2.688 2.688s-1.25 2.688-2.688 2.688-2.688-1.25-2.688-2.688 1.25-2.688 2.688-2.688zM11.313 19.313l3.375 3.375h-2.688l-4.688 4.625-2-2z"></path>
</svg>
