<?xml version="1.0" encoding="utf-8"?>
<!-- Generated by IcoMoon.io -->
<!DOCTYPE svg PUBLIC "-//W3C//DTD SVG 1.1//EN" "http://www.w3.org/Graphics/SVG/1.1/DTD/svg11.dtd">
<svg version="1.1" xmlns="http://www.w3.org/2000/svg" xmlns:xlink="http://www.w3.org/1999/xlink" width="32" height="32" viewBox="0 0 32 32">
<path d="M22.688 2.688l4 4-4 4v-2.688h-10.688v-2.688h10.688v-2.625zM24 18.688v-4h-5.313v4h5.313zM14.688 26.688c0.75 0 1.313-0.625 1.313-1.375s-0.563-1.313-1.313-1.313-1.375 0.563-1.375 1.313 0.625 1.375 1.375 1.375zM26.688 22.688h2.625v2.625h-10.625c0 2.188-1.813 4-4 4s-4-1.813-4-4h-2.688c-1.438 0-2.688-1.188-2.688-2.625v-4h9.375v-4h-5.375v2.625l-4-4 4-4v2.688h14.688c1.438 0 2.688 1.25 2.688 2.688v8z"></path>
</svg>
