<?xml version="1.0" encoding="utf-8"?>
<!-- Generated by IcoMoon.io -->
<!DOCTYPE svg PUBLIC "-//W3C//DTD SVG 1.1//EN" "http://www.w3.org/Graphics/SVG/1.1/DTD/svg11.dtd">
<svg version="1.1" xmlns="http://www.w3.org/2000/svg" xmlns:xlink="http://www.w3.org/1999/xlink" width="32" height="32" viewBox="0 0 32 32">
<path d="M16.5 29c-6.904 0-12.5-5.596-12.5-12.5s5.596-12.5 12.5-12.5c6.904 0 12.5 5.596 12.5 12.5s-5.596 12.5-12.5 12.5zM16.481 21c3.481 0 5.519 2 5.519 2v-1c0 0-2.037-2-5.519-2s-5.481 2-5.481 2v1c0 0 2-2 5.481-2zM20.622 9.967l-0.559 0.829 3.316 2.237 0.559-0.829-3.316-2.237zM9.062 12.204l0.559 0.829 3.316-2.237-0.559-0.829-3.316 2.237zM12 15c0.552 0 1-0.448 1-1s-0.448-1-1-1c-0.552 0-1 0.448-1 1s0.448 1 1 1zM21 15c0.552 0 1-0.448 1-1s-0.448-1-1-1c-0.552 0-1 0.448-1 1s0.448 1 1 1z"></path>
</svg>
