<?xml version="1.0" encoding="utf-8"?>
<!-- Generated by IcoMoon.io -->
<!DOCTYPE svg PUBLIC "-//W3C//DTD SVG 1.1//EN" "http://www.w3.org/Graphics/SVG/1.1/DTD/svg11.dtd">
<svg version="1.1" xmlns="http://www.w3.org/2000/svg" xmlns:xlink="http://www.w3.org/1999/xlink" width="32" height="32" viewBox="0 0 32 32">
<path d="M22.375 3.313v0.688h4.563v-0.688c0-1.25-1-2.25-2.25-2.25s-2.313 1-2.313 2.25zM21.313 12c-0.75 0-1.313-0.563-1.313-1.313v-5.375c0-0.75 0.563-1.313 1.313-1.313v-0.688c0-1.813 1.563-3.313 3.375-3.313s3.313 1.5 3.313 3.313v0.688c0.75 0 1.313 0.563 1.313 1.313v5.375c0 0.75-0.563 1.313-1.313 1.313h-6.688zM11.313 27.313l1.75-1.75 5.063 5.063-0.875 0.063c-8.375 0-15.25-6.5-15.938-14.688h2c0.5 5 3.625 9.25 8 11.313zM31 17c0.813 0.75 0.813 2.063 0 2.875l-8.5 8.438c-0.75 0.813-2 0.813-2.813 0l-16-16c-0.813-0.75-0.813-2 0-2.813l8.438-8.5c0.75-0.813 2.063-0.813 2.875 0l3.25 3.25-1.875 1.875-2.813-2.75-7.563 7.5 15.125 15.125 7.5-7.563-2.938-2.938 1.875-1.875z"></path>
</svg>
