<?xml version="1.0" encoding="utf-8"?>
<!-- Generated by IcoMoon.io -->
<!DOCTYPE svg PUBLIC "-//W3C//DTD SVG 1.1//EN" "http://www.w3.org/Graphics/SVG/1.1/DTD/svg11.dtd">
<svg version="1.1" xmlns="http://www.w3.org/2000/svg" xmlns:xlink="http://www.w3.org/1999/xlink" width="32" height="32" viewBox="0 0 32 32">
<path d="M10 28.625l1.813-1.75 5.063 5.063-0.875 0.063c-8.375 0-15.25-6.5-15.938-14.688h2c0.5 5 3.563 9.25 7.938 11.313zM19.75 28.25l8.5-8.5-16-16-8.5 8.5zM13.625 2.313l16.063 16.063c0.813 0.75 0.813 2 0 2.813l-8.5 8.5c-0.75 0.813-2 0.813-2.813 0l-16.063-16.063c-0.813-0.75-0.813-2 0-2.813l8.5-8.5c0.75-0.813 2-0.813 2.813 0zM22 3.375l-1.813 1.75-5.063-5.063 0.875-0.063c8.375 0 15.25 6.5 15.938 14.688h-2c-0.5-5-3.563-9.25-7.938-11.313z"></path>
</svg>
