<?xml version="1.0" encoding="utf-8"?>
<!-- Generated by IcoMoon.io -->
<!DOCTYPE svg PUBLIC "-//W3C//DTD SVG 1.1//EN" "http://www.w3.org/Graphics/SVG/1.1/DTD/svg11.dtd">
<svg version="1.1" xmlns="http://www.w3.org/2000/svg" xmlns:xlink="http://www.w3.org/1999/xlink" width="32" height="32" viewBox="0 0 32 32">
<path d="M22.688 25.313v-18.625h-13.375v18.625h13.375zM22.688 1.313c1.438 0 2.625 1.25 2.625 2.688v24c0 1.438-1.188 2.688-2.625 2.688h-13.375c-1.438 0-2.625-1.25-2.625-2.688v-24c0-1.438 1.188-2.688 2.625-2.688h13.375zM14.375 13.313v1.375h3.25v-1.375c0-0.875-0.75-1.563-1.625-1.563s-1.625 0.688-1.625 1.563zM13.313 21.313c-0.75 0-1.313-0.563-1.313-1.313v-4c0-0.75 0.563-1.313 1.313-1.313v-1.375c0-1.438 1.188-2.625 2.688-2.625 1.438 0 2.688 1.125 2.688 2.625v1.375c0.75 0 1.313 0.563 1.313 1.313v4c0 0.75-0.563 1.313-1.313 1.313h-5.375z"></path>
</svg>
