<?xml version="1.0" encoding="utf-8"?>
<!-- Generated by IcoMoon.io -->
<!DOCTYPE svg PUBLIC "-//W3C//DTD SVG 1.1//EN" "http://www.w3.org/Graphics/SVG/1.1/DTD/svg11.dtd">
<svg version="1.1" xmlns="http://www.w3.org/2000/svg" xmlns:xlink="http://www.w3.org/1999/xlink" width="32" height="32" viewBox="0 0 32 32">
<path d="M16 0c4.063 0 7.75 1.625 10.375 4.313l-1.875 1.875c-2.188-2.188-5.188-3.5-8.5-3.5s-6.313 1.313-8.5 3.5l-1.875-1.875c2.625-2.625 6.313-4.313 10.375-4.313zM9.375 8.063c1.688-1.688 4.063-2.75 6.625-2.75s4.938 1.063 6.625 2.75l-1.875 1.875c-1.188-1.188-2.938-1.938-4.75-1.938s-3.563 0.75-4.75 1.938zM16 20c1.438 0 2.688-1.25 2.688-2.688s-1.25-2.625-2.688-2.625-2.688 1.188-2.688 2.625 1.25 2.688 2.688 2.688zM20 12c0.75 0 1.313 0.563 1.313 1.313v16c0 0.75-0.563 1.375-1.313 1.375h-8c-0.75 0-1.313-0.625-1.313-1.375v-16c0-0.75 0.563-1.313 1.313-1.313h8z"></path>
</svg>
