<?xml version="1.0" encoding="utf-8"?>
<!-- Generated by IcoMoon.io -->
<!DOCTYPE svg PUBLIC "-//W3C//DTD SVG 1.1//EN" "http://www.w3.org/Graphics/SVG/1.1/DTD/svg11.dtd">
<svg version="1.1" xmlns="http://www.w3.org/2000/svg" xmlns:xlink="http://www.w3.org/1999/xlink" width="32" height="32" viewBox="0 0 32 32">
<path d="M16 1.313c8.063 0 14.688 6.625 14.688 14.688h-2.688c0-6.625-5.375-12-12-12s-12 5.375-12 12h-2.688c0-8.063 6.625-14.688 14.688-14.688zM17.313 19.063v4.375l4.563 4.563-1.875 1.875-4-4-4 4-1.875-1.875 4.563-4.563v-4.375c-1.188-0.5-2-1.688-2-3.063 0-1.813 1.5-3.313 3.313-3.313s3.313 1.5 3.313 3.313c0 1.375-0.813 2.563-2 3.063zM16 6.688c5.188 0 9.313 4.125 9.313 9.313h-2.625c0-3.688-3-6.688-6.688-6.688s-6.688 3-6.688 6.688h-2.625c0-5.188 4.125-9.313 9.313-9.313z"></path>
</svg>
