<?xml version="1.0" encoding="utf-8"?>
<!-- Generated by IcoMoon.io -->
<!DOCTYPE svg PUBLIC "-//W3C//DTD SVG 1.1//EN" "http://www.w3.org/Graphics/SVG/1.1/DTD/svg11.dtd">
<svg version="1.1" xmlns="http://www.w3.org/2000/svg" xmlns:xlink="http://www.w3.org/1999/xlink" width="32" height="32" viewBox="0 0 32 32">
<path d="M22.688 21.313v-2.625h8v2.625c0 1.75-1.125 3.188-2.688 3.75v5.625h-2.688v-5.625c-1.563-0.563-2.625-2-2.625-3.75zM17.313 2.688v5.313h2.688v8h-8v-8h2.688v-5.313c0-0.75 0.563-1.375 1.313-1.375s1.313 0.625 1.313 1.375zM28 8h2.688v8h-8v-8h2.625v-5.313c0-0.75 0.625-1.375 1.375-1.375s1.313 0.625 1.313 1.375v5.313zM1.313 21.313v-2.625h8v2.625c0 1.75-1.063 3.188-2.625 3.75v5.625h-2.688v-5.625c-1.563-0.563-2.688-2-2.688-3.75zM12 21.313v-2.625h8v2.625c0 1.75-1.125 3.188-2.688 3.75v5.625h-2.625v-5.625c-1.563-0.563-2.688-2-2.688-3.75zM6.688 2.688v5.313h2.625v8h-8v-8h2.688v-5.313c0-0.75 0.563-1.375 1.313-1.375s1.375 0.625 1.375 1.375z"></path>
</svg>
