<?xml version="1.0" encoding="utf-8"?>
<!-- Generated by IcoMoon.io -->
<!DOCTYPE svg PUBLIC "-//W3C//DTD SVG 1.1//EN" "http://www.w3.org/Graphics/SVG/1.1/DTD/svg11.dtd">
<svg version="1.1" xmlns="http://www.w3.org/2000/svg" xmlns:xlink="http://www.w3.org/1999/xlink" width="32" height="32" viewBox="0 0 32 32">
<path d="M28 25.375v-18.75h-24v18.75h24zM28 4c1.438 0 2.688 1.25 2.688 2.688v18.625c0 1.438-1.25 2.688-2.688 2.688h-24c-1.438 0-2.688-1.25-2.688-2.688v-18.625c0-1.438 1.25-2.688 2.688-2.688h24zM12 21.313c-2.188 0-4-1.813-4-4 0-2.063 1.563-3.75 3.563-3.938h0.25c0.75-1.563 2.313-2.688 4.188-2.688 2.375 0 4.313 1.75 4.625 4h0.063c1.813 0 3.313 1.5 3.313 3.313s-1.5 3.313-3.313 3.313h-8.688z"></path>
</svg>
