<?xml version="1.0" encoding="utf-8"?>
<!-- Generated by IcoMoon.io -->
<!DOCTYPE svg PUBLIC "-//W3C//DTD SVG 1.1//EN" "http://www.w3.org/Graphics/SVG/1.1/DTD/svg11.dtd">
<svg version="1.1" xmlns="http://www.w3.org/2000/svg" xmlns:xlink="http://www.w3.org/1999/xlink" width="32" height="32" viewBox="0 0 32 32">
<path d="M16 4c6.625 0 12 5.375 12 12s-5.375 12-12 12c-2.75 0-5.313-0.938-7.313-2.5l1.875-1.875c1.563 1.063 3.438 1.688 5.438 1.688 5.188 0 9.313-4.125 9.313-9.313s-4.125-9.313-9.313-9.313-9.313 4.125-9.313 9.313h4l-5.375 5.313-5.313-5.313h4c0-6.625 5.375-12 12-12zM18.688 16c0 1.438-1.25 2.688-2.688 2.688s-2.688-1.25-2.688-2.688 1.25-2.688 2.688-2.688 2.688 1.25 2.688 2.688z"></path>
</svg>
