<?xml version="1.0" encoding="utf-8"?>
<!-- Generated by IcoMoon.io -->
<!DOCTYPE svg PUBLIC "-//W3C//DTD SVG 1.1//EN" "http://www.w3.org/Graphics/SVG/1.1/DTD/svg11.dtd">
<svg version="1.1" xmlns="http://www.w3.org/2000/svg" xmlns:xlink="http://www.w3.org/1999/xlink" width="32" height="32" viewBox="0 0 32 32">
<path d="M23 16c0-0.313 0-0.625-0.063-0.938l2-1.5c0.188-0.125 0.188-0.438 0.063-0.625l-1.875-3.25c-0.125-0.188-0.375-0.25-0.563-0.188l-2.313 0.938c-0.5-0.375-1-0.688-1.563-0.938l-0.375-2.438c-0.063-0.188-0.188-0.375-0.438-0.375h-3.75c-0.25 0-0.375 0.125-0.438 0.375l-0.375 2.5c-0.563 0.25-1.063 0.5-1.563 0.875l-2.313-0.938c-0.188-0.063-0.438 0.063-0.563 0.25l-1.875 3.188c-0.125 0.188-0.125 0.5 0.063 0.625l2 1.5c-0.063 0.313-0.063 0.625-0.063 0.938s0 0.625 0.063 0.938l-2 1.5c-0.188 0.125-0.188 0.438-0.063 0.625l1.875 3.25c0.125 0.188 0.375 0.25 0.563 0.188l2.313-0.938c0.5 0.375 1 0.688 1.563 0.938l0.375 2.438c0.063 0.188 0.188 0.375 0.438 0.375h3.75c0.25 0 0.375-0.125 0.438-0.375l0.375-2.5c0.563-0.25 1.063-0.5 1.563-0.875l2.313 0.938c0.188 0.063 0.438-0.063 0.563-0.25l1.875-3.188c0.125-0.188 0.125-0.5-0.063-0.625l-2-1.5c0.063-0.313 0.063-0.625 0.063-0.938zM25.313 4c1.5 0 2.688 1.25 2.688 2.688v18.625c0 1.438-1.188 2.688-2.688 2.688h-18.625c-1.5 0-2.688-1.25-2.688-2.688v-18.625c0-1.438 1.188-2.688 2.688-2.688h18.625zM16 13.313c1.438 0 2.688 1.25 2.688 2.688s-1.25 2.688-2.688 2.688-2.688-1.25-2.688-2.688 1.25-2.688 2.688-2.688z"></path>
</svg>
