<?xml version="1.0" encoding="utf-8"?>
<!-- Generated by IcoMoon.io -->
<!DOCTYPE svg PUBLIC "-//W3C//DTD SVG 1.1//EN" "http://www.w3.org/Graphics/SVG/1.1/DTD/svg11.dtd">
<svg version="1.1" xmlns="http://www.w3.org/2000/svg" xmlns:xlink="http://www.w3.org/1999/xlink" width="32" height="32" viewBox="0 0 32 32">
<path d="M20 32v-2.688h2.688v2.688h-2.688zM22.063 5.938c2.75 1.938 4.625 5.125 4.625 8.75 0 5.875-4.813 10.625-10.688 10.625s-10.688-4.75-10.688-10.625c0-3.625 1.875-6.813 4.625-8.75l1.875 1.875c-2.313 1.438-3.813 4-3.813 6.875 0 4.438 3.563 8 8 8s8-3.563 8-8c0-2.875-1.563-5.438-3.875-6.813zM17.313 2.688v13.313h-2.625v-13.313h2.625zM14.688 32v-2.688h2.625v2.688h-2.625zM9.313 32v-2.688h2.688v2.688h-2.688z"></path>
</svg>
