<?xml version="1.0" encoding="utf-8"?>
<!-- Generated by IcoMoon.io -->
<!DOCTYPE svg PUBLIC "-//W3C//DTD SVG 1.1//EN" "http://www.w3.org/Graphics/SVG/1.1/DTD/svg11.dtd">
<svg version="1.1" xmlns="http://www.w3.org/2000/svg" xmlns:xlink="http://www.w3.org/1999/xlink" width="32" height="32" viewBox="0 0 32 32">
<path d="M24 21.438c2.125 0 3.875 1.75 3.875 3.875s-1.75 3.938-3.875 3.938-3.875-1.813-3.875-3.938c0-0.313 0-0.625 0.063-0.875l-9.438-5.5c-0.75 0.688-1.688 1.063-2.75 1.063-2.188 0-4-1.813-4-4s1.813-4 4-4c1.063 0 2 0.375 2.75 1.063l9.375-5.438c-0.063-0.313-0.125-0.625-0.125-0.938 0-2.188 1.813-4 4-4s4 1.813 4 4-1.813 4-4 4c-1.063 0-2-0.438-2.75-1.125l-9.375 5.5c0.063 0.313 0.125 0.625 0.125 0.938s-0.063 0.625-0.125 0.938l9.5 5.5c0.688-0.625 1.625-1 2.625-1z"></path>
</svg>
