<?xml version="1.0" encoding="utf-8"?>
<!-- Generated by IcoMoon.io -->
<!DOCTYPE svg PUBLIC "-//W3C//DTD SVG 1.1//EN" "http://www.w3.org/Graphics/SVG/1.1/DTD/svg11.dtd">
<svg version="1.1" xmlns="http://www.w3.org/2000/svg" xmlns:xlink="http://www.w3.org/1999/xlink" width="32" height="32" viewBox="0 0 32 32">
<path d="M22.688 24c1.438 0 2.625 1.25 2.625 2.688s-1.188 2.625-2.625 2.625-2.688-1.188-2.688-2.625 1.25-2.688 2.688-2.688zM1.313 2.688h4.375l1.25 2.625h19.75c0.75 0 1.313 0.625 1.313 1.375 0 0.25-0.063 0.438-0.188 0.625l-4.75 8.625c-0.438 0.813-1.313 1.375-2.313 1.375h-9.938l-1.188 2.188-0.063 0.188c0 0.188 0.125 0.313 0.313 0.313h15.438v2.688h-16c-1.438 0-2.625-1.25-2.625-2.688 0-0.438 0.125-0.875 0.313-1.25l1.813-3.313-4.813-10.125h-2.688v-2.625zM9.313 24c1.438 0 2.688 1.25 2.688 2.688s-1.25 2.625-2.688 2.625-2.625-1.188-2.625-2.625 1.188-2.688 2.625-2.688z"></path>
</svg>
