<?xml version="1.0" encoding="utf-8"?>
<!-- Generated by IcoMoon.io -->
<!DOCTYPE svg PUBLIC "-//W3C//DTD SVG 1.1//EN" "http://www.w3.org/Graphics/SVG/1.1/DTD/svg11.dtd">
<svg version="1.1" xmlns="http://www.w3.org/2000/svg" xmlns:xlink="http://www.w3.org/1999/xlink" width="32" height="32" viewBox="0 0 32 32">
<path d="M16 20l7.313-5.313-7.313-4v9.313zM16 4v2.688h5.313v-2.688h-5.313zM24 6.688h6.688v14.625c0 1.5-1.188 2.688-2.688 2.688h-18.688c-1.5 0-2.625-1.188-2.625-2.688v-14.625h6.625v-2.688c0-1.5 1.188-2.688 2.688-2.688h5.313c1.5 0 2.688 1.188 2.688 2.688v2.688zM4 12v14.688h21.313c0 1.5-1.125 2.625-2.625 2.625h-18.688c-1.5 0-2.688-1.125-2.688-2.625v-14.688h2.688z"></path>
</svg>
