<?xml version="1.0" encoding="utf-8"?>
<!-- Generated by IcoMoon.io -->
<!DOCTYPE svg PUBLIC "-//W3C//DTD SVG 1.1//EN" "http://www.w3.org/Graphics/SVG/1.1/DTD/svg11.dtd">
<svg version="1.1" xmlns="http://www.w3.org/2000/svg" xmlns:xlink="http://www.w3.org/1999/xlink" width="32" height="32" viewBox="0 0 32 32">
<path d="M16 22.688c1.438 0 2.688-1.25 2.688-2.688s-1.25-2.688-2.688-2.688-2.688 1.25-2.688 2.688 1.25 2.688 2.688 2.688zM12 12h8l-4-5.875zM22.938 12h6.375c0.75 0 1.375 0.563 1.375 1.313-1.082 4.314-2.303 8.488-3.438 12.75-0.313 1.125-1.313 1.938-2.563 1.938h-17.375c-1.25 0-2.25-0.813-2.563-1.938l-3.375-12.375c-0.063-0.125-0.063-0.25-0.063-0.375 0-0.75 0.625-1.313 1.375-1.313h6.375l5.813-8.75c0.25-0.375 0.688-0.563 1.125-0.563s0.875 0.188 1.125 0.563z"></path>
</svg>
