<?xml version="1.0" encoding="utf-8"?>
<!-- Generated by IcoMoon.io -->
<!DOCTYPE svg PUBLIC "-//W3C//DTD SVG 1.1//EN" "http://www.w3.org/Graphics/SVG/1.1/DTD/svg11.dtd">
<svg version="1.1" xmlns="http://www.w3.org/2000/svg" xmlns:xlink="http://www.w3.org/1999/xlink" width="32" height="32" viewBox="0 0 32 32">
<path d="M20.688 19.313v3.5l-4.688 5.875-15.438-19.375c0.563-0.375 6.5-5.313 15.438-5.313s14.875 4.938 15.438 5.313l-2.75 3.5c-0.375-0.125-0.813-0.125-1.375-0.125-3.75 0-6.625 2.875-6.625 6.625zM29.313 21.313v-2c0-1.063-0.938-2-2-2s-2 0.938-2 2v2h4zM30.688 21.313c0.688 0 1.313 0.688 1.313 1.375v5.313c0 0.688-0.625 1.313-1.313 1.313h-6.688c-0.688 0-1.313-0.625-1.313-1.313v-5.313c0-0.688 0.625-1.375 1.313-1.375v-2c0-1.875 1.438-3.313 3.313-3.313s3.375 1.438 3.375 3.313v2z"></path>
</svg>
