<?xml version="1.0" encoding="utf-8"?>
<!-- Generated by IcoMoon.io -->
<!DOCTYPE svg PUBLIC "-//W3C//DTD SVG 1.1//EN" "http://www.w3.org/Graphics/SVG/1.1/DTD/svg11.dtd">
<svg version="1.1" xmlns="http://www.w3.org/2000/svg" xmlns:xlink="http://www.w3.org/1999/xlink" width="32" height="32" viewBox="0 0 32 32">
<path d="M22.688 20v-5.313h-2.688v5.313h2.688zM17.313 17.313v-2.625h-2.625v2.625h2.625zM17.313 25.313v-5.313h-2.625v5.313h2.625zM12 20v-5.313h-2.688v5.313h2.688zM22.688 25.313v-2.625h-2.688v2.625h2.688zM12 25.313v-2.625h-2.688v2.625h2.688zM26.625 5.313l0.063 21.375c0 1.438-1.25 2.625-2.688 2.625h-16c-1.438 0-2.688-1.188-2.688-2.625v-16l8-8h10.688c1.438 0 2.625 1.188 2.625 2.625z"></path>
</svg>
