<?xml version="1.0" encoding="utf-8"?>
<!-- Generated by IcoMoon.io -->
<!DOCTYPE svg PUBLIC "-//W3C//DTD SVG 1.1//EN" "http://www.w3.org/Graphics/SVG/1.1/DTD/svg11.dtd">
<svg version="1.1" xmlns="http://www.w3.org/2000/svg" xmlns:xlink="http://www.w3.org/1999/xlink" width="32" height="32" viewBox="0 0 32 32">
<path d="M29.313 16c0 6.875-5.25 12.563-11.938 13.25v-2.688c5.25-0.688 9.313-5.188 9.313-10.563s-4.063-9.875-9.313-10.563v-2.688c6.688 0.688 11.938 6.375 11.938 13.25zM7.563 26.313l1.875-1.875c1.5 1.125 3.313 1.875 5.25 2.125v2.688c-2.688-0.25-5.125-1.313-7.125-2.938zM5.438 17.313c0.25 1.938 1 3.75 2.125 5.188l-1.875 1.938c-1.625-2-2.688-4.438-2.938-7.125h2.688zM7.563 9.438c-1.125 1.5-1.875 3.313-2.125 5.25h-2.688c0.25-2.688 1.313-5.125 2.938-7.125zM14.688 5.438c-1.938 0.25-3.75 1-5.25 2.125l-1.875-1.875c2-1.625 4.438-2.688 7.125-2.938v2.688zM17.375 13.063l3.938 2.938c-2.676 1.99-5.342 3.991-8 6z"></path>
</svg>
