<?xml version="1.0" encoding="utf-8"?>
<!-- Generated by IcoMoon.io -->
<!DOCTYPE svg PUBLIC "-//W3C//DTD SVG 1.1//EN" "http://www.w3.org/Graphics/SVG/1.1/DTD/svg11.dtd">
<svg version="1.1" xmlns="http://www.w3.org/2000/svg" xmlns:xlink="http://www.w3.org/1999/xlink" width="32" height="32" viewBox="0 0 32 32">
<path d="M21.375 13.625c2.5 0 4.625 1.75 4.625 4.188v2.188h-2v-1.75c0-1.75-1.25-2.688-2.625-2.688h-2.063c-2.438 0-4.438-2.063-4.438-4.5s2-4.438 4.438-4.438v2c-1.375 0-2.438 0.938-2.438 2.313s1.063 2.688 2.438 2.688h2.063zM25.125 10.313c2.5 1.188 4.188 3.75 4.188 6.688v3h-2v-3c0-3-2.313-5.375-5.313-5.375v-2c1.375 0 2.438-1.125 2.438-2.5s-1.063-2.438-2.438-2.438v-2c2.438 0 4.438 2 4.438 4.438 0 1.25-0.5 2.375-1.313 3.188zM24 21.313h2v4h-2v-4zM27.313 21.313h2v4h-2v-4zM2.688 21.313h20v4h-20v-4z"></path>
</svg>
