<?xml version="1.0" encoding="utf-8"?>
<!-- Generated by IcoMoon.io -->
<!DOCTYPE svg PUBLIC "-//W3C//DTD SVG 1.1//EN" "http://www.w3.org/Graphics/SVG/1.1/DTD/svg11.dtd">
<svg version="1.1" xmlns="http://www.w3.org/2000/svg" xmlns:xlink="http://www.w3.org/1999/xlink" width="32" height="32" viewBox="0 0 32 32">
<path d="M22.688 21.25l-3.938-3.938h3.938v3.938zM19.313 11.625c-2.438 0-4.438-2.063-4.438-4.5s2-4.438 4.438-4.438v2c-1.375 0-2.438 0.938-2.438 2.313s1.063 2.688 2.438 2.688h2.063c2.5 0 4.625 1.813 4.625 4.188v2.125h-2v-1.688c0-1.75-1.25-2.688-2.625-2.688h-2.063zM25.125 6.5c2.5 1.188 4.188 3.75 4.188 6.75v2.75h-2v-2.75c0-3-2.313-5.438-5.313-5.438v-2c1.375 0 2.438-1.125 2.438-2.5h2c0 1.25-0.5 2.375-1.313 3.188zM24 17.313h2v4h-2v-4zM27.313 17.313h2v4h-2v-4zM2.688 8l1.625-1.688 22.688 22.688-1.688 1.688-9.313-9.375h-13.313v-4h9.313z"></path>
</svg>
