<?xml version="1.0" encoding="utf-8"?>
<!-- Generated by IcoMoon.io -->
<!DOCTYPE svg PUBLIC "-//W3C//DTD SVG 1.1//EN" "http://www.w3.org/Graphics/SVG/1.1/DTD/svg11.dtd">
<svg version="1.1" xmlns="http://www.w3.org/2000/svg" xmlns:xlink="http://www.w3.org/1999/xlink" width="32" height="32" viewBox="0 0 32 32">
<path d="M12 14.688v-2.688h8v2.375l-4.813 5.625h4.813v2.688h-8v-2.438l4.813-5.563h-4.813zM16 26.688c5.188 0 9.313-4.188 9.313-9.375s-4.125-9.313-9.313-9.313-9.313 4.125-9.313 9.313 4.125 9.375 9.313 9.375zM16 5.313c6.625 0 12 5.375 12 12s-5.375 12-12 12-12-5.375-12-12 5.375-12 12-12zM29.313 7.625l-1.688 2.063-6.125-5.188 1.688-2zM10.5 4.5l-6.125 5.125-1.688-2 6.125-5.125z"></path>
</svg>
