<?xml version="1.0" encoding="utf-8"?>
<!-- Generated by IcoMoon.io -->
<!DOCTYPE svg PUBLIC "-//W3C//DTD SVG 1.1//EN" "http://www.w3.org/Graphics/SVG/1.1/DTD/svg11.dtd">
<svg version="1.1" xmlns="http://www.w3.org/2000/svg" xmlns:xlink="http://www.w3.org/1999/xlink" width="32" height="32" viewBox="0 0 32 32">
<path d="M20.625 12.813c-1.688 0.938-3.25 2.125-4.625 3.563-1.375-1.438-2.938-2.625-4.625-3.563 0.313-3.688 1.813-7.25 4.688-10.125 2.813 2.813 4.313 6.375 4.563 10.125zM2.688 13.313c5.948 0 10.734 3.389 13.313 7.313 2.581-3.928 7.366-7.313 13.313-7.313 0 7.063-4.438 13.063-10.688 15.313-0.875 0.313-1.688 0.5-2.625 0.688-0.938-0.125-1.813-0.375-2.625-0.688-6.25-2.25-10.688-8.25-10.688-15.313z"></path>
</svg>
