<?xml version="1.0" encoding="utf-8"?>
<!-- Generated by IcoMoon.io -->
<!DOCTYPE svg PUBLIC "-//W3C//DTD SVG 1.1//EN" "http://www.w3.org/Graphics/SVG/1.1/DTD/svg11.dtd">
<svg version="1.1" xmlns="http://www.w3.org/2000/svg" xmlns:xlink="http://www.w3.org/1999/xlink" width="32" height="32" viewBox="0 0 32 32">
<path d="M16 16c2.188 0 4 1.813 4 4s-1.813 4-4 4-4-1.813-4-4 1.813-4 4-4zM16 26.688c3.688 0 6.688-3 6.688-6.688s-3-6.688-6.688-6.688-6.688 3-6.688 6.688 3 6.688 6.688 6.688zM16 5.313c-1.5 0-2.688 1.25-2.688 2.688s1.188 2.688 2.688 2.688c1.438 0 2.688-1.25 2.688-2.688s-1.25-2.688-2.688-2.688zM22.688 2.688c1.438 0 2.625 1.188 2.625 2.625v21.375c0 1.438-1.188 2.625-2.625 2.625h-13.375c-1.438 0-2.625-1.188-2.625-2.625v-21.375c0-1.438 1.188-2.625 2.625-2.625h13.375z"></path>
</svg>
