<?xml version="1.0" encoding="utf-8"?>
<!-- Generated by IcoMoon.io -->
<!DOCTYPE svg PUBLIC "-//W3C//DTD SVG 1.1//EN" "http://www.w3.org/Graphics/SVG/1.1/DTD/svg11.dtd">
<svg version="1.1" xmlns="http://www.w3.org/2000/svg" xmlns:xlink="http://www.w3.org/1999/xlink" width="32" height="32" viewBox="0 0 32 32">
<path d="M8 6.688v21.313h13.313v2.688h-13.313c-1.5 0-2.688-1.25-2.688-2.688v-21.313h2.688zM15.313 16.688c0-1.813 1.563-3.375 3.375-3.375s3.313 1.563 3.313 3.375-1.5 3.313-3.313 3.313-3.375-1.5-3.375-3.313zM18.688 22c2.938 0 5.313-2.375 5.313-5.313s-2.375-5.375-5.313-5.375-5.375 2.438-5.375 5.375 2.438 5.313 5.375 5.313zM18.688 4c-1.438 0-2.688 1.188-2.688 2.688s1.25 2.625 2.688 2.625 2.625-1.125 2.625-2.625-1.188-2.688-2.625-2.688zM24.25 1.313c1.313 0 2.438 1.125 2.438 2.438v19.188c0 1.313-1.125 2.375-2.438 2.375h-11.188c-1.313 0-2.375-1.063-2.375-2.375v-19.188c0-1.313 1.063-2.438 2.375-2.438h11.188z"></path>
</svg>
