<?xml version="1.0" encoding="utf-8"?>
<!-- Generated by IcoMoon.io -->
<!DOCTYPE svg PUBLIC "-//W3C//DTD SVG 1.1//EN" "http://www.w3.org/Graphics/SVG/1.1/DTD/svg11.dtd">
<svg version="1.1" xmlns="http://www.w3.org/2000/svg" xmlns:xlink="http://www.w3.org/1999/xlink" width="32" height="32" viewBox="0 0 32 32">
<path d="M20 26.688v-10.688h-8v10.688h8zM19.813 13.375c0.813 0 1.5 0.688 1.5 1.5v12.938c0 0.813-0.688 1.5-1.5 1.5h-7.625c-0.813 0-1.5-0.688-1.5-1.5v-12.938c0-0.813 0.688-1.563 1.5-1.563zM16 1.313c4 0 7.688 1.688 10.313 4.313l-1.875 1.875c-2.188-2.188-5.125-3.5-8.438-3.5s-6.25 1.313-8.438 3.5l-1.875-1.875c2.625-2.625 6.313-4.313 10.313-4.313zM9.313 9.438c1.688-1.688 4.063-2.75 6.688-2.75s5 1.063 6.688 2.75l-1.938 1.875c-1.188-1.188-2.875-1.938-4.75-1.938s-3.563 0.75-4.75 1.938z"></path>
</svg>
