<?xml version="1.0" encoding="utf-8"?>
<!-- Generated by IcoMoon.io -->
<!DOCTYPE svg PUBLIC "-//W3C//DTD SVG 1.1//EN" "http://www.w3.org/Graphics/SVG/1.1/DTD/svg11.dtd">
<svg version="1.1" xmlns="http://www.w3.org/2000/svg" xmlns:xlink="http://www.w3.org/1999/xlink" width="32" height="32" viewBox="0 0 32 32">
<path d="M9.313 20c1.25-1.75 2.813-2.75 4.875-3.25l-2.125-2.125c-1.563 1.5-2.313 3.375-2.75 5.375zM3.188 2.313l26.313 26.313-1.688 1.688-3.625-3.625h-24.188v-2.688h5.313c-1.5 0-2.625-1.188-2.625-2.625v-13.375c0-0.813 0.313-1.438 0.875-1.938l-2.063-2.063zM29.313 21.375c0 1-0.563 1.875-1.375 2.313l-7.375-7.375 2.125-2-5.375-4.938v2.813c-0.25 0.063-0.438 0.063-0.688 0.125l-7-6.938h17.063c1.438 0 2.625 1.125 2.625 2.625v13.375zM28.313 24h3.688v2.688h-1.063z"></path>
</svg>
