<?xml version="1.0" encoding="utf-8"?>
<!-- Generated by IcoMoon.io -->
<!DOCTYPE svg PUBLIC "-//W3C//DTD SVG 1.1//EN" "http://www.w3.org/Graphics/SVG/1.1/DTD/svg11.dtd">
<svg version="1.1" xmlns="http://www.w3.org/2000/svg" xmlns:xlink="http://www.w3.org/1999/xlink" width="32" height="32" viewBox="0 0 32 32">
<path d="M15.313 8c0 2.375 1 4.563 2.563 6.125l-13.063 13.063c-0.5-0.5-0.813-1.125-0.813-1.875v-18.625c0-1.438 1.25-2.688 2.688-2.688h9.625c-0.625 1.188-1 2.563-1 4zM17.313 8c0-3.688 3-6.688 6.688-6.688s6.688 3 6.688 6.688-3 6.688-6.688 6.688-6.688-3-6.688-6.688zM16.75 19.125c2-1.5 4.563-2.438 7.25-2.438 1.375 0 2.75 0.25 4 0.688v7.938c0 1.438-1.25 2.688-2.688 2.688h-9.313v-7.313c0-0.625 0.313-1.188 0.75-1.563z"></path>
</svg>
