<?xml version="1.0" encoding="utf-8"?>
<!-- Generated by IcoMoon.io -->
<!DOCTYPE svg PUBLIC "-//W3C//DTD SVG 1.1//EN" "http://www.w3.org/Graphics/SVG/1.1/DTD/svg11.dtd">
<svg version="1.1" xmlns="http://www.w3.org/2000/svg" xmlns:xlink="http://www.w3.org/1999/xlink" width="32" height="32" viewBox="0 0 32 32">
<path d="M12.5 17.5c0 2.383 1.51 3.375 3.875 3.375 1.635 0 3.063-0.667 3.063-2.25 0-1.495-0.793-1.834-1.875-2.375-0.188-0.063-0.5-0.188-0.75-0.25h-12.813v-2.688h24v2.688h-5.188c0.063 0.125 0.188 0.313 0.25 0.438 0.25 0.625 0.438 1.375 0.438 2.188 0 2.891-1.887 4.343-4.188 5-0.875 0.25-1.813 0.375-2.875 0.375-0.625 0-1.313-0.063-1.938-0.188-1.37-0.274-2.538-0.653-3.5-1.375-1.427-1.070-2.438-2.495-2.438-4.938h3.938zM19.438 10c0-1.924-1.225-2.813-3.188-2.813-1.411 0-2.477 0.454-2.938 1.375-0.125 0.25-0.188 0.563-0.188 0.875 0 0.625 0.375 1.188 1 1.625 0.5 0.313 1 0.625 1.875 0.938h-6.125c-0.063-0.125-0.188-0.188-0.25-0.313-0.375-0.625-0.5-1.375-0.5-2.25 0-1.796 0.933-3.084 2-3.938 1.284-0.899 2.988-1.5 5.188-1.5 2.192 0 4.008 0.626 5.188 1.688 1.098 0.988 1.938 2.372 1.938 4.313h-4z"></path>
</svg>
