<?xml version="1.0" encoding="utf-8"?>
<!-- Generated by IcoMoon.io -->
<!DOCTYPE svg PUBLIC "-//W3C//DTD SVG 1.1//EN" "http://www.w3.org/Graphics/SVG/1.1/DTD/svg11.dtd">
<svg version="1.1" xmlns="http://www.w3.org/2000/svg" xmlns:xlink="http://www.w3.org/1999/xlink" width="32" height="32" viewBox="0 0 32 32">
<path d="M7.813 26.313v-8.438l4.625 11.125h-1.938c-1.438 0-2.688-1.25-2.688-2.688zM10.5 11.688c0.75 0 1.313-0.625 1.313-1.375s-0.563-1.313-1.313-1.313-1.313 0.563-1.313 1.313 0.563 1.375 1.313 1.375zM29.375 21.25c0.563 1.375-0.063 2.938-1.438 3.5l-9.813 4.063c-0.313 0.125-0.688 0.188-1.063 0.188-1.063 0-2-0.625-2.438-1.625l-6.625-16c-0.125-0.375-0.188-0.688-0.188-1.063 0-1 0.625-1.938 1.625-2.375l9.875-4.063c0.375-0.125 0.688-0.188 1.063-0.188 1 0 1.938 0.625 2.375 1.625zM3.375 26.188c-1.375-0.563-2-2.063-1.438-3.438l3.25-7.813v12z"></path>
</svg>
