<?xml version="1.0" encoding="utf-8"?>
<!-- Generated by IcoMoon.io -->
<!DOCTYPE svg PUBLIC "-//W3C//DTD SVG 1.1//EN" "http://www.w3.org/Graphics/SVG/1.1/DTD/svg11.dtd">
<svg version="1.1" xmlns="http://www.w3.org/2000/svg" xmlns:xlink="http://www.w3.org/1999/xlink" width="32" height="32" viewBox="0 0 32 32">
<path d="M24 21.188v-9.188c0-3.5-3.563-4-8-4-4 0-8 0.5-8 4v9.188c0 1.938 1.563 3.5 3.5 3.5l-1.5 1.5v0.5h2.25l2-2h3.75l2 2h2v-0.5l-1.5-1.5c1.938 0 3.5-1.563 3.5-3.5zM23.75 3.75c3.563 1.375 5.563 4.313 5.563 8.063v17.5h-26.625v-17.5c0-3.75 2-6.688 5.563-8.063 2.375-0.938 5.25-1.063 7.75-1.063s5.375 0.125 7.75 1.063zM9.375 12h13.313v6.688h-13.313v-6.688zM10 21.313c0-0.75 0.563-1.313 1.313-1.313s1.375 0.563 1.375 1.313-0.625 1.375-1.375 1.375-1.313-0.625-1.313-1.375zM19.313 21.313c0-0.75 0.625-1.313 1.375-1.313s1.313 0.563 1.313 1.313-0.563 1.375-1.313 1.375-1.375-0.625-1.375-1.375z"></path>
</svg>
