<?xml version="1.0" encoding="utf-8"?>
<!-- Generated by IcoMoon.io -->
<!DOCTYPE svg PUBLIC "-//W3C//DTD SVG 1.1//EN" "http://www.w3.org/Graphics/SVG/1.1/DTD/svg11.dtd">
<svg version="1.1" xmlns="http://www.w3.org/2000/svg" xmlns:xlink="http://www.w3.org/1999/xlink" width="32" height="32" viewBox="0 0 32 32">
<path d="M12 17.313c0.875 0 2 0.125 3.188 0.375-2.75 1.5-3.188 3.5-3.188 4.625v3h-9.313v-3.313c0-3.125 6.188-4.688 9.313-4.688zM22 18.688c2.438 0 7.313 1.188 7.313 3.625v3h-14.625v-3c0-2.438 4.875-3.625 7.313-3.625zM12 14.688c-2.188 0-4-1.813-4-4s1.813-4 4-4 4 1.813 4 4-1.813 4-4 4zM22 16c-1.813 0-3.313-1.5-3.313-3.313s1.5-3.375 3.313-3.375 3.313 1.563 3.313 3.375-1.5 3.313-3.313 3.313z"></path>
</svg>
