<?xml version="1.0" encoding="utf-8"?>
<!-- Generated by IcoMoon.io -->
<!DOCTYPE svg PUBLIC "-//W3C//DTD SVG 1.1//EN" "http://www.w3.org/Graphics/SVG/1.1/DTD/svg11.dtd">
<svg version="1.1" xmlns="http://www.w3.org/2000/svg" xmlns:xlink="http://www.w3.org/1999/xlink" width="32" height="32" viewBox="0 0 32 32">
<path d="M16 13.313c1.438 0 2.688 1.25 2.688 2.688s-1.25 2.688-2.688 2.688-2.688-1.25-2.688-2.688 1.25-2.688 2.688-2.688zM23.563 23.563c2.063-2.063 3.125-4.813 3.125-7.563s-1.063-5.5-3.125-7.563l-1.938 1.938c1.563 1.563 2.375 3.563 2.375 5.625s-0.75 4.125-2.313 5.688zM16 21.313c2.938 0 5.313-2.375 5.313-5.313s-2.375-5.313-5.313-5.313-5.313 2.375-5.313 5.313 2.375 5.313 5.313 5.313zM10.375 21.625c-1.563-1.563-2.375-3.563-2.375-5.625s0.75-4.125 2.313-5.688l-1.875-1.875c-2.063 2.063-3.125 4.813-3.125 7.563s1.063 5.5 3.125 7.563zM26.688 5.313c1.438 0 2.625 1.25 2.625 2.688v16c0 1.438-1.188 2.688-2.625 2.688h-21.375c-1.438 0-2.625-1.25-2.625-2.688v-16c0-1.438 1.188-2.688 2.625-2.688h21.375z"></path>
</svg>
