<?xml version="1.0" encoding="utf-8"?>
<!-- Generated by IcoMoon.io -->
<!DOCTYPE svg PUBLIC "-//W3C//DTD SVG 1.1//EN" "http://www.w3.org/Graphics/SVG/1.1/DTD/svg11.dtd">
<svg version="1.1" xmlns="http://www.w3.org/2000/svg" xmlns:xlink="http://www.w3.org/1999/xlink" width="32" height="32" viewBox="0 0 32 32">
<path d="M24 5.313l5.313 5.375h-4v9.313c0 2.938-2.375 5.313-5.313 5.313s-5.313-2.375-5.313-5.313v-9.313c0-1.438-1.25-2.688-2.688-2.688s-2.688 1.25-2.688 2.688v9.313h4l-5.313 5.313-5.313-5.313h4v-9.313c0-2.938 2.375-5.375 5.313-5.375s5.313 2.438 5.313 5.375v9.313c0 1.438 1.25 2.688 2.688 2.688s2.688-1.25 2.688-2.688v-9.313h-4z"></path>
</svg>
