<?xml version="1.0" encoding="utf-8"?>
<!-- Generated by IcoMoon.io -->
<!DOCTYPE svg PUBLIC "-//W3C//DTD SVG 1.1//EN" "http://www.w3.org/Graphics/SVG/1.1/DTD/svg11.dtd">
<svg version="1.1" xmlns="http://www.w3.org/2000/svg" xmlns:xlink="http://www.w3.org/1999/xlink" width="32" height="32" viewBox="0 0 32 32">
<path d="M16 24v-4l5.313 5.313-5.313 5.375v-4c-5.875 0-10.688-4.813-10.688-10.688 0-2.063 0.625-4.063 1.688-5.688l1.938 1.938c-0.625 1.125-0.938 2.375-0.938 3.75 0 4.438 3.563 8 8 8zM16 5.313c5.875 0 10.688 4.813 10.688 10.688 0 2.063-0.625 4.063-1.688 5.688l-1.938-1.938c0.625-1.125 0.938-2.375 0.938-3.75 0-4.438-3.563-8-8-8v4l-5.313-5.313 5.313-5.375v4z"></path>
</svg>
