<?xml version="1.0" encoding="utf-8"?>
<!-- Generated by IcoMoon.io -->
<!DOCTYPE svg PUBLIC "-//W3C//DTD SVG 1.1//EN" "http://www.w3.org/Graphics/SVG/1.1/DTD/svg11.dtd">
<svg version="1.1" xmlns="http://www.w3.org/2000/svg" xmlns:xlink="http://www.w3.org/1999/xlink" width="32" height="32" viewBox="0 0 32 32">
<path d="M26.688 5.313l-3.188 3.188c1.938 1.938 3.188 4.563 3.188 7.5 0 2.063-0.625 4-1.625 5.625l-2-1.938c0.563-1.125 0.938-2.375 0.938-3.688 0-2.188-0.938-4.188-2.375-5.625l-2.938 2.938v-8h8zM3.813 7.188l1.688-1.688 20.938 21-1.688 1.688-3.125-3.125c-0.938 0.563-1.938 1-3 1.25v-2.75c0.375-0.125 0.75-0.313 1.063-0.5l-10.75-10.75c-0.563 1.125-0.938 2.375-0.938 3.688 0 2.188 0.938 4.188 2.375 5.625l2.938-2.938v8h-8l3.188-3.188c-1.938-1.938-3.188-4.563-3.188-7.5 0-2.063 0.625-4 1.625-5.625zM13.313 8.438c-0.375 0.125-0.688 0.313-1 0.5l-1.938-2c0.938-0.563 1.875-1 2.938-1.25v2.75z"></path>
</svg>
