<?xml version="1.0" encoding="utf-8"?>
<!-- Generated by IcoMoon.io -->
<!DOCTYPE svg PUBLIC "-//W3C//DTD SVG 1.1//EN" "http://www.w3.org/Graphics/SVG/1.1/DTD/svg11.dtd">
<svg version="1.1" xmlns="http://www.w3.org/2000/svg" xmlns:xlink="http://www.w3.org/1999/xlink" width="32" height="32" viewBox="0 0 32 32">
<path d="M14.688 17.313v-8h2.625v8h-2.625zM28 5.313l-3.125 3.188c1.938 1.938 3.125 4.563 3.125 7.5 0 5-3.375 9.125-8 10.313v-2.75c3.125-1.063 5.313-4.063 5.313-7.563 0-2.188-0.875-4.188-2.313-5.625l-3 2.938v-8h8zM14.688 22.688v-2.688h2.625v2.688h-2.625zM4 16c0-5 3.375-9.125 8-10.313v2.75c-3.125 1.063-5.313 4.063-5.313 7.563 0 2.188 0.875 4.188 2.313 5.625l3-2.938v8h-8l3.125-3.188c-1.938-1.938-3.125-4.563-3.125-7.5z"></path>
</svg>
