<?xml version="1.0" encoding="utf-8"?>
<!-- Generated by IcoMoon.io -->
<!DOCTYPE svg PUBLIC "-//W3C//DTD SVG 1.1//EN" "http://www.w3.org/Graphics/SVG/1.1/DTD/svg11.dtd">
<svg version="1.1" xmlns="http://www.w3.org/2000/svg" xmlns:xlink="http://www.w3.org/1999/xlink" width="32" height="32" viewBox="0 0 32 32">
<path d="M16 23.313c-3.125 0-5.75-1.875-6.813-4.625h13.625c-1.063 2.75-3.688 4.625-6.813 4.625zM11.313 14.688c-1.125 0-2-0.875-2-2s0.875-2 2-2 2 0.875 2 2-0.875 2-2 2zM20.688 14.688c-1.125 0-2-0.875-2-2s0.875-2 2-2 2 0.875 2 2-0.875 2-2 2zM16 26.688c5.875 0 10.688-4.813 10.688-10.688s-4.813-10.688-10.688-10.688-10.688 4.813-10.688 10.688 4.813 10.688 10.688 10.688zM16 2.688c7.375 0 13.313 5.938 13.313 13.313s-5.938 13.313-13.313 13.313-13.313-5.938-13.313-13.313 5.938-13.313 13.313-13.313z"></path>
</svg>
