<?xml version="1.0" encoding="utf-8"?>
<!-- Generated by IcoMoon.io -->
<!DOCTYPE svg PUBLIC "-//W3C//DTD SVG 1.1//EN" "http://www.w3.org/Graphics/SVG/1.1/DTD/svg11.dtd">
<svg version="1.1" xmlns="http://www.w3.org/2000/svg" xmlns:xlink="http://www.w3.org/1999/xlink" width="32" height="32" viewBox="0 0 32 32">
<path d="M22.688 1.375c1.438 0 2.625 1.188 2.625 2.625v22.688c0 1.438-1.188 2.625-2.625 2.625h-2.813c-0.125-1.875-0.563-3.625-1.25-5.313h4.063v-17.313h-13.375v8c-0.875-0.375-1.688-0.688-2.625-0.875v-9.813c0-1.438 1.188-2.688 2.625-2.688zM2.688 16c8.125 0 14.625 6.563 14.625 14.688h-2.625c0-6.625-5.375-12-12-12v-2.688zM2.688 26.688c2.188 0 4 1.813 4 4h-4v-4zM2.688 21.313c5.188 0 9.313 4.188 9.313 9.375h-2.688c0-3.688-2.938-6.688-6.625-6.688v-2.688z"></path>
</svg>
