<?xml version="1.0" encoding="utf-8"?>
<!-- Generated by IcoMoon.io -->
<!DOCTYPE svg PUBLIC "-//W3C//DTD SVG 1.1//EN" "http://www.w3.org/Graphics/SVG/1.1/DTD/svg11.dtd">
<svg version="1.1" xmlns="http://www.w3.org/2000/svg" xmlns:xlink="http://www.w3.org/1999/xlink" width="32" height="32" viewBox="0 0 32 32">
<path d="M25 7.335c-2.23-2.069-5.217-3.335-8.5-3.335s-6.27 1.265-8.5 3.335v0c2.46 2.283 4 5.544 4 9.165s-1.54 6.882-4 9.165c2.23 2.069 5.217 3.335 8.5 3.335s6.27-1.265 8.5-3.335c-2.46-2.283-4-5.544-4-9.165s1.54-6.882 4-9.165v0 0zM25.706 8.044c2.045 2.226 3.294 5.195 3.294 8.456s-1.249 6.23-3.294 8.456c-2.279-2.101-3.706-5.112-3.706-8.456s1.427-6.355 3.706-8.456v0 0zM7.294 8.044c-2.045 2.226-3.294 5.195-3.294 8.456s1.249 6.23 3.294 8.456c2.279-2.101 3.706-5.112 3.706-8.456s-1.427-6.355-3.706-8.456v0z"></path>
</svg>
