<?xml version="1.0" encoding="utf-8"?>
<!-- Generated by IcoMoon.io -->
<!DOCTYPE svg PUBLIC "-//W3C//DTD SVG 1.1//EN" "http://www.w3.org/Graphics/SVG/1.1/DTD/svg11.dtd">
<svg version="1.1" xmlns="http://www.w3.org/2000/svg" xmlns:xlink="http://www.w3.org/1999/xlink" width="32" height="32" viewBox="0 0 32 32">
<path d="M25.313 4h5.375v16h-5.375v-16zM20 4c1.438 0 2.688 1.25 2.688 2.688v13.313c0 0.75-0.313 1.375-0.813 1.875l-8.75 8.813-1.438-1.438c-0.375-0.375-0.563-0.813-0.563-1.375v-0.438l1.313-6.125h-8.438c-1.438 0-2.688-1.188-2.688-2.625l0.063-0.125h-0.063v-2.563c0-0.375 0.063-0.688 0.188-1l4.063-9.375c0.375-0.938 1.313-1.625 2.438-1.625h12z"></path>
</svg>
