<?xml version="1.0" encoding="utf-8"?>
<!-- Generated by IcoMoon.io -->
<!DOCTYPE svg PUBLIC "-//W3C//DTD SVG 1.1//EN" "http://www.w3.org/Graphics/SVG/1.1/DTD/svg11.dtd">
<svg version="1.1" xmlns="http://www.w3.org/2000/svg" xmlns:xlink="http://www.w3.org/1999/xlink" width="32" height="32" viewBox="0 0 32 32">
<path d="M17.188 17.625v-3.375c0-1.448-0.143-2.509-0.625-3.313-0.333-0.666-0.95-0.938-1.875-0.938-0.375 0-0.813 0.063-1.125 0.188-1.211 0.727-1.438 2.125-1.438 4.125v3.313c0 0.813 0 1.5 0.125 2.063s0.375 0.938 0.563 1.313c0.349 0.699 0.886 1 1.875 1 0.964 0 1.538-0.327 1.875-1 0.188-0.375 0.375-0.75 0.5-1.313s0.125-1.25 0.125-2.063zM9.5 14.688c0-4.007 1.293-6.813 5.188-6.813 1.621 0 2.991 0.524 3.75 1.5 0.951 1.223 1.375 3.035 1.375 5.313v2.563c0 3.994-1.228 6.875-5.125 6.875-3.881 0-5.188-2.88-5.188-6.875v-2.563zM27.25 13.938c-1.020 0-1.875 0.417-1.875 1.438 0 0.909 0.488 0.97 1.188 1.25 0.313 0.125 0.75 0.25 1.188 0.313 0.688 0.125 1.188 0.313 1.75 0.5s1 0.5 1.375 0.75 0.625 0.625 0.813 1 0.313 0.75 0.313 1.313c0 1.933-1.256 2.752-2.75 3.25-0.563 0.188-1.188 0.25-1.875 0.25-2.247 0-3.966-0.9-4.625-2.438-0.188-0.438-0.313-0.875-0.313-1.375h2.563c0 1.331 1.067 1.875 2.375 1.875 1.169 0 2.063-0.368 2.063-1.438 0-0.848-0.532-1.050-1.188-1.313-0.796-0.318-2.182-0.568-3-0.875-0.5-0.188-0.875-0.438-1.25-0.688-0.691-0.461-1.188-1.161-1.188-2.25 0-1.723 1.274-2.8 2.625-3.25 0.563-0.188 1.125-0.25 1.813-0.25 2.558 0 4.688 1.196 4.688 3.688h-2.625c0-0.767-0.49-1.404-1.125-1.563-0.25-0.063-0.625-0.188-0.938-0.188zM0 10.313l6.313-2.313h0.375v16h-2.688v-12.813l-4 1.375v-2.25z"></path>
</svg>
