<?xml version="1.0" encoding="utf-8"?>
<!-- Generated by IcoMoon.io -->
<!DOCTYPE svg PUBLIC "-//W3C//DTD SVG 1.1//EN" "http://www.w3.org/Graphics/SVG/1.1/DTD/svg11.dtd">
<svg version="1.1" xmlns="http://www.w3.org/2000/svg" xmlns:xlink="http://www.w3.org/1999/xlink" width="32" height="32" viewBox="0 0 32 32">
<path d="M16 26.688c1.688 0 3.313-0.5 4.688-1.313l-12.75-12.75c-0.813 1.375-1.25 3-1.25 4.688 0 5.188 4.125 9.375 9.313 9.375zM4 5.313l23.688 23.688-1.688 1.688-3.375-3.375c-1.938 1.25-4.188 2-6.625 2-6.625 0-12-5.375-12-12 0-2.438 0.75-4.75 2-6.625l-3.688-3.688zM14.688 12.563v-1.875h2.625v4.563zM20 1.313v2.688h-8v-2.688h8zM25.375 6.063l1.875 1.875-1.875 1.938c1.625 2.063 2.625 4.625 2.625 7.438 0 2.438-0.75 4.75-2 6.625l-1.938-1.938c0.813-1.375 1.25-3 1.25-4.688 0-5.188-4.125-9.313-9.313-9.313-1.688 0-3.25 0.438-4.625 1.25l-2-1.938c1.875-1.25 4.188-2 6.625-2 2.813 0 5.438 1 7.5 2.625z"></path>
</svg>
