<?xml version="1.0" encoding="utf-8"?>
<!-- Generated by IcoMoon.io -->
<!DOCTYPE svg PUBLIC "-//W3C//DTD SVG 1.1//EN" "http://www.w3.org/Graphics/SVG/1.1/DTD/svg11.dtd">
<svg version="1.1" xmlns="http://www.w3.org/2000/svg" xmlns:xlink="http://www.w3.org/1999/xlink" width="32" height="32" viewBox="0 0 32 32">
<path d="M23.375 13.938c-0.996 0-1.938 0.473-1.938 1.438 0 0.855 0.582 0.983 1.25 1.25 0.313 0.125 0.688 0.25 1.125 0.313 0.688 0.125 1.25 0.313 1.813 0.5s1 0.5 1.375 0.75 0.625 0.625 0.813 1 0.313 0.75 0.313 1.313c0 1.933-1.256 2.752-2.75 3.25-0.563 0.188-1.25 0.25-1.938 0.25-2.212 0-3.913-0.923-4.563-2.438-0.188-0.438-0.313-0.875-0.313-1.375h2.5c0 1.276 1.159 1.875 2.438 1.875 1.169 0 2.063-0.368 2.063-1.438 0-0.848-0.532-1.050-1.188-1.313-0.313-0.125-0.813-0.25-1.313-0.375-1.175-0.235-2.184-0.644-3-1.188-0.658-0.439-1.125-1.216-1.125-2.25 0-1.723 1.274-2.8 2.625-3.25 0.563-0.188 1.125-0.25 1.813-0.25 2.558 0 4.688 1.196 4.688 3.688h-2.625c0-0.814-0.513-1.394-1.188-1.563-0.25-0.063-0.563-0.188-0.875-0.188zM13.438 15.813c1.545 0.579 2.625 1.593 2.625 3.625 0 1.6-0.553 2.728-1.5 3.438-0.877 0.752-2.153 1.25-3.75 1.25-2.93 0-5.25-1.578-5.25-4.5h2.688c0 0.719 0.259 1.429 0.688 1.75 0.46 0.345 1.096 0.625 1.875 0.625 1.692 0 2.625-0.88 2.625-2.563 0-1.789-1.067-2.563-2.875-2.563h-1.625v-2.063h1.563c1.282 0 2.194-0.517 2.563-1.438 0.125-0.313 0.125-0.625 0.125-1 0-1.555-0.779-2.375-2.375-2.375-1.17 0-1.858 0.466-2.25 1.25-0.125 0.25-0.188 0.563-0.188 0.938h-2.625c0-2.146 1.434-3.374 3-4 0.625-0.188 1.313-0.313 2.063-0.313 3.045 0 5 1.467 5 4.5 0 1.78-1.149 2.824-2.375 3.438z"></path>
</svg>
