<?xml version="1.0" encoding="utf-8"?>
<!-- Generated by IcoMoon.io -->
<!DOCTYPE svg PUBLIC "-//W3C//DTD SVG 1.1//EN" "http://www.w3.org/Graphics/SVG/1.1/DTD/svg11.dtd">
<svg version="1.1" xmlns="http://www.w3.org/2000/svg" xmlns:xlink="http://www.w3.org/1999/xlink" width="32" height="32" viewBox="0 0 32 32">
<path d="M30.688 10.688c0 1.438-1.25 2.625-2.688 2.625-0.25 0-0.5 0-0.688-0.063l-4.75 4.75c0.063 0.188 0.125 0.438 0.125 0.688 0 1.438-1.25 2.625-2.688 2.625s-2.688-1.188-2.688-2.625c0-0.25 0.063-0.5 0.125-0.688l-3.438-3.438c-0.188 0.063-0.438 0.125-0.688 0.125s-0.5-0.063-0.688-0.125l-6.063 6.063c0.063 0.188 0.125 0.438 0.125 0.688 0 1.438-1.25 2.688-2.688 2.688s-2.688-1.25-2.688-2.688 1.25-2.625 2.688-2.625c0.25 0 0.5 0 0.688 0.063l6.063-6.063c-0.063-0.188-0.063-0.438-0.063-0.688 0-1.438 1.188-2.688 2.625-2.688s2.688 1.25 2.688 2.688c0 0.25 0 0.5-0.063 0.688l3.375 3.375c0.188-0.063 0.438-0.063 0.688-0.063s0.5 0 0.688 0.063l4.75-4.688c-0.063-0.188-0.125-0.438-0.125-0.688 0-1.438 1.25-2.688 2.688-2.688s2.688 1.25 2.688 2.688z"></path>
</svg>
