<?xml version="1.0" encoding="utf-8"?>
<!-- Generated by IcoMoon.io -->
<!DOCTYPE svg PUBLIC "-//W3C//DTD SVG 1.1//EN" "http://www.w3.org/Graphics/SVG/1.1/DTD/svg11.dtd">
<svg version="1.1" xmlns="http://www.w3.org/2000/svg" xmlns:xlink="http://www.w3.org/1999/xlink" width="32" height="32" viewBox="0 0 32 32">
<path d="M4 16c0 3.5 2.188 6.5 5.313 7.563v2.75c-4.625-1.188-8-5.313-8-10.313s3.375-9.125 8-10.313v2.75c-3.125 1.063-5.313 4.063-5.313 7.563zM20 24c4.438 0 8-3.563 8-8s-3.563-8-8-8-8 3.563-8 8 3.563 8 8 8zM20 5.313c5.875 0 10.688 4.813 10.688 10.688s-4.813 10.688-10.688 10.688-10.688-4.813-10.688-10.688 4.813-10.688 10.688-10.688z"></path>
</svg>
