<?xml version="1.0" encoding="utf-8"?>
<!-- Generated by IcoMoon.io -->
<!DOCTYPE svg PUBLIC "-//W3C//DTD SVG 1.1//EN" "http://www.w3.org/Graphics/SVG/1.1/DTD/svg11.dtd">
<svg version="1.1" xmlns="http://www.w3.org/2000/svg" xmlns:xlink="http://www.w3.org/1999/xlink" width="32" height="32" viewBox="0 0 32 32">
<path d="M26.313 18.688c0.125-0.438 0.188-0.938 0.25-1.375h-9.25v1.375h9zM24.313 22.688c0.313-0.438 0.688-0.938 0.938-1.375h-7.938v1.375h7zM17.313 26.563c1.375-0.188 2.688-0.625 3.875-1.25h-3.875v1.25zM17.313 13.313v1.375h9.25c-0.063-0.438-0.125-0.938-0.25-1.375h-9zM17.313 9.313v1.375h7.938c-0.25-0.438-0.625-0.938-0.938-1.375h-7zM17.313 5.438v1.25h3.875c-1.188-0.625-2.5-1.063-3.875-1.25zM14.688 26.563v-21.125c-5.25 0.625-9.375 5.125-9.375 10.563s4.125 9.938 9.375 10.563zM16 2.688c7.375 0 13.313 5.938 13.313 13.313s-5.938 13.313-13.313 13.313-13.313-5.938-13.313-13.313 5.938-13.313 13.313-13.313z"></path>
</svg>
