<?xml version="1.0" encoding="utf-8"?>
<!-- Generated by IcoMoon.io -->
<!DOCTYPE svg PUBLIC "-//W3C//DTD SVG 1.1//EN" "http://www.w3.org/Graphics/SVG/1.1/DTD/svg11.dtd">
<svg version="1.1" xmlns="http://www.w3.org/2000/svg" xmlns:xlink="http://www.w3.org/1999/xlink" width="32" height="32" viewBox="0 0 32 32">
<path d="M25.125 21.188c0.688 0.313 1.188 1 1.188 1.813v0.25l-1 7.063c-0.125 1-0.938 1.688-1.938 1.688h-9.063c-0.563 0-1-0.188-1.375-0.563l-6.625-6.625 1.063-1.063c0.25-0.25 0.625-0.438 1.063-0.438 0.125 0 0.188 0.063 0.313 0.063l4.563 0.938v-14.313c0-1.125 0.875-2 2-2s2 0.875 2 2v8h1.063c0.25 0 0.438 0.063 0.688 0.125zM12 15c-1.625-1.063-2.688-2.938-2.688-5 0-3.313 2.688-6 6-6s6 2.688 6 6c0 2.063-1 3.938-2.625 5v-5c0-1.813-1.563-3.313-3.375-3.313s-3.313 1.5-3.313 3.313v5z"></path>
</svg>
