<?xml version="1.0" encoding="utf-8"?>
<!-- Generated by IcoMoon.io -->
<!DOCTYPE svg PUBLIC "-//W3C//DTD SVG 1.1//EN" "http://www.w3.org/Graphics/SVG/1.1/DTD/svg11.dtd">
<svg version="1.1" xmlns="http://www.w3.org/2000/svg" xmlns:xlink="http://www.w3.org/1999/xlink" width="32" height="32" viewBox="0 0 32 32">
<path d="M25.438 6.563c2.438 2.438 3.875 5.75 3.875 9.438 0 7.375-5.938 13.313-13.313 13.313s-13.313-5.938-13.313-13.313 5.938-13.313 13.313-13.313h1.313v11c0.813 0.438 1.375 1.313 1.375 2.313 0 1.438-1.25 2.688-2.688 2.688s-2.688-1.25-2.688-2.688c0-1 0.563-1.875 1.375-2.313v-2.813c-2.313 0.625-4 2.625-4 5.125 0 2.938 2.375 5.313 5.313 5.313s5.313-2.375 5.313-5.313c0-1.438-0.625-2.75-1.563-3.75l1.875-1.875c1.438 1.438 2.375 3.438 2.375 5.625 0 4.438-3.563 8-8 8s-8-3.563-8-8c0-3.938 2.875-7.25 6.688-7.875v-2.688c-5.25 0.625-9.375 5.125-9.375 10.563 0 5.875 4.813 10.688 10.688 10.688s10.688-4.813 10.688-10.688c0-2.938-1.188-5.625-3.125-7.563z"></path>
</svg>
