<?xml version="1.0" encoding="utf-8"?>
<!-- Generated by IcoMoon.io -->
<!DOCTYPE svg PUBLIC "-//W3C//DTD SVG 1.1//EN" "http://www.w3.org/Graphics/SVG/1.1/DTD/svg11.dtd">
<svg version="1.1" xmlns="http://www.w3.org/2000/svg" xmlns:xlink="http://www.w3.org/1999/xlink" width="32" height="32" viewBox="0 0 32 32">
<path d="M16 12c1.5 0 2.688-1.25 2.688-2.688 0-1.5-1.25-2.625-2.688-2.625-1.5 0-2.688 1.125-2.688 2.625 0 1.438 1.188 2.688 2.688 2.688zM16 18.688c1.5 0 2.688-1.25 2.688-2.688s-1.25-2.688-2.688-2.688c-1.5 0-2.688 1.25-2.688 2.688s1.188 2.688 2.688 2.688zM16 25.313c1.5 0 2.688-1.188 2.688-2.625s-1.25-2.688-2.688-2.688c-1.5 0-2.688 1.25-2.688 2.688s1.188 2.625 2.688 2.625zM26.688 13.313c0 2.5-1.688 4.563-4 5.188v1.5h4c0 2.5-1.688 4.5-4 5.125v1.563c0 0.75-0.625 1.313-1.375 1.313h-10.625c-0.75 0-1.375-0.563-1.375-1.313v-1.563c-2.313-0.625-4-2.625-4-5.125h4v-1.5c-2.313-0.625-4-2.688-4-5.188h4v-1.5c-2.313-0.625-4-2.625-4-5.125h4v-1.375c0-0.75 0.625-1.313 1.375-1.313h10.625c0.75 0 1.375 0.563 1.375 1.313v1.375h4c0 2.5-1.688 4.5-4 5.125v1.5h4z"></path>
</svg>
