<?xml version="1.0" encoding="utf-8"?>
<!-- Generated by IcoMoon.io -->
<!DOCTYPE svg PUBLIC "-//W3C//DTD SVG 1.1//EN" "http://www.w3.org/Graphics/SVG/1.1/DTD/svg11.dtd">
<svg version="1.1" xmlns="http://www.w3.org/2000/svg" xmlns:xlink="http://www.w3.org/1999/xlink" width="32" height="32" viewBox="0 0 32 32">
<path d="M22 22.688c1.125 0 2-0.875 2-2s-0.875-2-2-2-2 0.875-2 2 0.875 2 2 2zM17.313 13.313h6.688v-5.313h-6.688v5.313zM14.688 13.313v-5.313h-6.688v5.313h6.688zM10 22.688c1.125 0 2-0.875 2-2s-0.875-2-2-2-2 0.875-2 2 0.875 2 2 2zM16 2.688c5.875 0 10.688 0.625 10.688 5.313v12.688c0 2.563-2.125 4.625-4.688 4.625l2 2v0.688h-2.688l-2.625-2.688h-5.063l-2.625 2.688h-3v-0.688l2-2c-2.563 0-4.688-2.063-4.688-4.625v-12.688c0-4.688 5.375-5.313 10.688-5.313z"></path>
</svg>
