<?xml version="1.0" encoding="utf-8"?>
<!-- Generated by IcoMoon.io -->
<!DOCTYPE svg PUBLIC "-//W3C//DTD SVG 1.1//EN" "http://www.w3.org/Graphics/SVG/1.1/DTD/svg11.dtd">
<svg version="1.1" xmlns="http://www.w3.org/2000/svg" xmlns:xlink="http://www.w3.org/1999/xlink" width="32" height="32" viewBox="0 0 32 32">
<path d="M22.688 18.688v-6.688h-13.375v6.688h13.375zM16 24.688c1.125 0 2-0.875 2-2s-0.875-2-2-2-2 0.875-2 2 0.875 2 2 2zM25.313 22.563c0 2.25-1.188 4.125-3.438 4.125h0.125l2 2v0.625h-2.688l-2.625-2.625h-5.063l-2.625 2.625h-3v-0.625l2.125-2.125c-1.875-0.438-3.438-2.063-3.438-4v-11.25c0-3.688 3.75-4.5 7.938-4.625l1.063-2h-6.375v-2h13.375v2h-4.375l-1 2c4.563 0.125 8 0.875 8 4.625v11.25z"></path>
</svg>
