<?xml version="1.0" encoding="utf-8"?>
<!-- Generated by IcoMoon.io -->
<!DOCTYPE svg PUBLIC "-//W3C//DTD SVG 1.1//EN" "http://www.w3.org/Graphics/SVG/1.1/DTD/svg11.dtd">
<svg version="1.1" xmlns="http://www.w3.org/2000/svg" xmlns:xlink="http://www.w3.org/1999/xlink" width="32" height="32" viewBox="0 0 32 32">
<path d="M7.688 11.875l-3.688 18.813h2.813l2.313-10.688 2.875 2.688v8h2.688v-10.063l-2.75-2.75 0.813-4c1.75 2.125 4.313 3.438 7.25 3.438v-2.625c-2.438 0-4.625-1.375-5.813-3.313l-1.25-2.125c-0.438-0.813-1.313-1.25-2.25-1.25-0.313 0-0.688 0.063-1 0.188l-7 2.875v6.25h2.625v-4.438l2.375-1zM12.688 7.313c-1.438 0-2.688-1.188-2.688-2.625s1.25-2.688 2.688-2.688 2.625 1.25 2.625 2.688-1.188 2.625-2.625 2.625zM26 26.313v-2.313l3.313 3.313-3.313 3.375v-2.375h-7.313v-2h7.313zM22 20.688h7.313v2h-7.313v2.313l-3.313-3.313 3.313-3.375v2.375z"></path>
</svg>
