<?xml version="1.0" encoding="utf-8"?>
<!-- Generated by IcoMoon.io -->
<!DOCTYPE svg PUBLIC "-//W3C//DTD SVG 1.1//EN" "http://www.w3.org/Graphics/SVG/1.1/DTD/svg11.dtd">
<svg version="1.1" xmlns="http://www.w3.org/2000/svg" xmlns:xlink="http://www.w3.org/1999/xlink" width="32" height="32" viewBox="0 0 32 32">
<path d="M6.813 6.688h18.375l-1.25-1.375h-16zM16 12.688l-7.313 7.313h4.625v2.688h5.375v-2.688h4.625zM27.375 6.938c0.375 0.438 0.625 1.125 0.625 1.75v16.625c0 1.438-1.25 2.688-2.688 2.688h-18.625c-1.5 0-2.688-1.25-2.688-2.688v-16.625c0-0.625 0.25-1.313 0.625-1.75l1.813-2.188c0.375-0.438 0.938-0.75 1.563-0.75h16c0.625 0 1.188 0.313 1.563 0.75z"></path>
</svg>
