<?xml version="1.0" encoding="utf-8"?>
<!-- Generated by IcoMoon.io -->
<!DOCTYPE svg PUBLIC "-//W3C//DTD SVG 1.1//EN" "http://www.w3.org/Graphics/SVG/1.1/DTD/svg11.dtd">
<svg version="1.1" xmlns="http://www.w3.org/2000/svg" xmlns:xlink="http://www.w3.org/1999/xlink" width="32" height="32" viewBox="0 0 32 32">
<path d="M16.688 10.688v5.625l4.625 2.813-0.938 1.625-5.688-3.438v-6.625h2zM28 13.5h-9.063l3.688-3.75c-3.625-3.625-9.563-3.75-13.188-0.125s-3.625 9.375 0 13 9.563 3.625 13.188 0c1.813-1.813 2.688-3.875 2.688-6.5h2.688c0 2.625-1.125 6.063-3.5 8.375-4.688 4.625-12.313 4.625-17 0s-4.688-12.125 0-16.75 12.188-4.625 16.875 0l3.625-3.75v9.5z"></path>
</svg>
