<?xml version="1.0" encoding="utf-8"?>
<!-- Generated by IcoMoon.io -->
<!DOCTYPE svg PUBLIC "-//W3C//DTD SVG 1.1//EN" "http://www.w3.org/Graphics/SVG/1.1/DTD/svg11.dtd">
<svg version="1.1" xmlns="http://www.w3.org/2000/svg" xmlns:xlink="http://www.w3.org/1999/xlink" width="32" height="32" viewBox="0 0 32 32">
<path d="M20 9.313h5.313v5.375h-1.313v2.625c0 1.5-1.188 2.688-2.688 2.688h-4v4.063c0.938 0.5 1.625 1.5 1.625 2.625 0 1.625-1.313 2.938-2.938 2.938s-2.938-1.313-2.938-2.938c0-1.125 0.688-2.125 1.625-2.625v-4.063h-4c-1.5 0-2.688-1.188-2.688-2.688v-2.75c-0.938-0.5-1.625-1.438-1.625-2.563 0-1.625 1.313-2.938 2.938-2.938s2.938 1.313 2.938 2.938c0 1.125-0.625 2.063-1.563 2.563v2.75h4v-10.625h-2.688l4-5.375 4 5.375h-2.688v10.625h4v-2.625h-1.313v-5.375z"></path>
</svg>
