<?xml version="1.0" encoding="utf-8"?>
<!-- Generated by IcoMoon.io -->
<!DOCTYPE svg PUBLIC "-//W3C//DTD SVG 1.1//EN" "http://www.w3.org/Graphics/SVG/1.1/DTD/svg11.dtd">
<svg version="1.1" xmlns="http://www.w3.org/2000/svg" xmlns:xlink="http://www.w3.org/1999/xlink" width="32" height="32" viewBox="0 0 32 32">
<path d="M21.313 25.313v-18.625h-10.625v18.625h10.625zM22 4c1.125 0 2 0.875 2 2v20c0 1.125-0.875 2-2 2h-12c-1.125 0-2-0.875-2-2v-20c0-1.125 0.875-2 2-2h12zM25.313 22.688v-13.375h2.688v13.375h-2.688zM29.313 12h2.688v8h-2.688v-8zM4 22.688v-13.375h2.688v13.375h-2.688zM0 20v-8h2.688v8h-2.688z"></path>
</svg>
