<?xml version="1.0" encoding="utf-8"?>
<!-- Generated by IcoMoon.io -->
<!DOCTYPE svg PUBLIC "-//W3C//DTD SVG 1.1//EN" "http://www.w3.org/Graphics/SVG/1.1/DTD/svg11.dtd">
<svg version="1.1" xmlns="http://www.w3.org/2000/svg" xmlns:xlink="http://www.w3.org/1999/xlink" width="32" height="32" viewBox="0 0 32 32">
<path d="M17.313 6.688c0.75 0 1.375 0.563 1.375 1.313v16c0 0.75-0.625 1.313-1.375 1.313h-4c-0.75 0-1.313-0.563-1.313-1.313v-16c0-0.75 0.563-1.313 1.313-1.313h4zM26.688 6.688c0.75 0 1.313 0.563 1.313 1.313v16c0 0.75-0.563 1.313-1.313 1.313h-4c-0.75 0-1.375-0.563-1.375-1.313v-16c0-0.75 0.625-1.313 1.375-1.313h4zM8 6.688c0.75 0 1.313 0.563 1.313 1.313v16c0 0.75-0.563 1.313-1.313 1.313h-4c-0.75 0-1.313-0.563-1.313-1.313v-16c0-0.75 0.563-1.313 1.313-1.313h4z"></path>
</svg>
