<?xml version="1.0" encoding="utf-8"?>
<!-- Generated by IcoMoon.io -->
<!DOCTYPE svg PUBLIC "-//W3C//DTD SVG 1.1//EN" "http://www.w3.org/Graphics/SVG/1.1/DTD/svg11.dtd">
<svg version="1.1" xmlns="http://www.w3.org/2000/svg" xmlns:xlink="http://www.w3.org/1999/xlink" width="32" height="32" viewBox="0 0 32 32">
<path d="M24 6.688h5.313v5.313h-5.313v-5.313zM24 25.313v-5.313h5.313v5.313h-5.313zM17.313 25.313v-5.313h5.375v5.313h-5.375zM10.688 25.313v-5.313h5.313v5.313h-5.313zM4 25.313v-5.313h5.313v5.313h-5.313zM24 18.688v-5.375h5.313v5.375h-5.313zM17.313 6.688h5.375v5.313h-5.375v-5.313zM10.688 12v-5.313h5.313v5.313h-5.313zM17.313 18.688v-5.375h5.375v5.375h-5.375zM10.688 18.688v-5.375h5.313v5.375h-5.313zM4 18.688v-5.375h5.313v5.375h-5.313zM4 12v-5.313h5.313v5.313h-5.313z"></path>
</svg>
