<?xml version="1.0" encoding="utf-8"?>
<!-- Generated by IcoMoon.io -->
<!DOCTYPE svg PUBLIC "-//W3C//DTD SVG 1.1//EN" "http://www.w3.org/Graphics/SVG/1.1/DTD/svg11.dtd">
<svg version="1.1" xmlns="http://www.w3.org/2000/svg" xmlns:xlink="http://www.w3.org/1999/xlink" width="32" height="32" viewBox="0 0 32 32">
<path d="M26.688 4c0.75 0 1.313 0.563 1.313 1.313v8c0 0.75-0.563 1.375-1.313 1.375h-22.688c-0.75 0-1.313-0.625-1.313-1.375v-8c0-0.75 0.563-1.313 1.313-1.313h22.688zM26.688 17.313c0.75 0 1.313 0.625 1.313 1.375v8c0 0.75-0.563 1.313-1.313 1.313h-22.688c-0.75 0-1.313-0.563-1.313-1.313v-8c0-0.75 0.563-1.375 1.313-1.375h22.688z"></path>
</svg>
