<?xml version="1.0" encoding="utf-8"?>
<!-- Generated by IcoMoon.io -->
<!DOCTYPE svg PUBLIC "-//W3C//DTD SVG 1.1//EN" "http://www.w3.org/Graphics/SVG/1.1/DTD/svg11.dtd">
<svg version="1.1" xmlns="http://www.w3.org/2000/svg" xmlns:xlink="http://www.w3.org/1999/xlink" width="32" height="32" viewBox="0 0 32 32">
<path d="M16 12c2.188 0 4 1.813 4 4s-1.813 4-4 4-4-1.813-4-4 1.813-4 4-4zM16 22.688c3.688 0 6.688-3 6.688-6.688s-3-6.688-6.688-6.688-6.688 3-6.688 6.688 3 6.688 6.688 6.688zM16 6c6.688 0 12.375 4.125 14.688 10-2.313 5.875-8 10-14.688 10s-12.375-4.125-14.688-10c2.313-5.875 8-10 14.688-10z"></path>
</svg>
