<?xml version="1.0" encoding="utf-8"?>
<!-- Generated by IcoMoon.io -->
<!DOCTYPE svg PUBLIC "-//W3C//DTD SVG 1.1//EN" "http://www.w3.org/Graphics/SVG/1.1/DTD/svg11.dtd">
<svg version="1.1" xmlns="http://www.w3.org/2000/svg" xmlns:xlink="http://www.w3.org/1999/xlink" width="32" height="32" viewBox="0 0 32 32">
<path d="M24.688 20c2.563 0 4.625-2.125 4.625-4.688s-2.063-4.625-4.625-4.625-4.688 2.063-4.688 4.625 2.125 4.688 4.688 4.688zM7.313 20c2.563 0 4.688-2.125 4.688-4.688s-2.125-4.625-4.688-4.625-4.625 2.063-4.625 4.625 2.063 4.688 4.625 4.688zM24.688 8c4.063 0 7.313 3.25 7.313 7.313s-3.25 7.375-7.313 7.375h-17.375c-4.063 0-7.313-3.313-7.313-7.375s3.25-7.313 7.313-7.313 7.375 3.25 7.375 7.313c0 1.75-0.625 3.438-1.688 4.688h6c-1.063-1.25-1.688-2.938-1.688-4.688 0-4.063 3.313-7.313 7.375-7.313z"></path>
</svg>
