<?xml version="1.0" encoding="utf-8"?>
<!-- Generated by IcoMoon.io -->
<!DOCTYPE svg PUBLIC "-//W3C//DTD SVG 1.1//EN" "http://www.w3.org/Graphics/SVG/1.1/DTD/svg11.dtd">
<svg version="1.1" xmlns="http://www.w3.org/2000/svg" xmlns:xlink="http://www.w3.org/1999/xlink" width="32" height="32" viewBox="0 0 32 32">
<path d="M16 5.313v5.625l-2.813-2.813zM5.688 4l22.313 22.313-1.688 1.688-2.75-2.75c-1.438 1.125-3.063 2-4.875 2.438v-2.75c1.125-0.313 2.125-0.875 3-1.563l-5.688-5.688v9l-6.688-6.688h-5.313v-8h6.313l-6.313-6.313zM25.313 16c0-4.25-2.75-7.813-6.625-8.938v-2.75c5.375 1.188 9.313 6 9.313 11.688 0 2-0.5 3.938-1.375 5.563l-2-2.063c0.438-1.063 0.688-2.25 0.688-3.5zM22 16c0 0.313 0 0.563-0.063 0.813l-3.25-3.25v-2.938c2 1 3.313 3 3.313 5.375z"></path>
</svg>
