<?xml version="1.0" encoding="utf-8"?>
<!-- Generated by IcoMoon.io -->
<!DOCTYPE svg PUBLIC "-//W3C//DTD SVG 1.1//EN" "http://www.w3.org/Graphics/SVG/1.1/DTD/svg11.dtd">
<svg version="1.1" xmlns="http://www.w3.org/2000/svg" xmlns:xlink="http://www.w3.org/1999/xlink" width="32" height="32" viewBox="0 0 32 32">
<path d="M13.313 27.938v-2.625c-1.438 0-2.625-1.188-2.625-2.625v-1.375l-6.438-6.375c-0.188 0.75-0.25 1.563-0.25 2.375 0 5.438 4.063 10 9.313 10.625zM25.25 16h2.688c0.063 0.438 0.063 0.875 0.063 1.313 0 7.375-5.938 13.375-13.313 13.375s-13.375-6-13.375-13.375 6-13.313 13.375-13.313c1.375 0 2.75 0.25 4 0.625v3.375c0 1.438-1.25 2.688-2.688 2.688h-2.688v2.625c0 0.75-0.563 1.375-1.313 1.375h-2.688v2.625h8c0.75 0 1.375 0.625 1.375 1.375v4h1.313c1.188 0 2.188 0.75 2.563 1.813 1.75-1.875 2.75-4.438 2.75-7.188 0-0.438 0-0.875-0.063-1.313zM28.25 5.313v-0.625c0-1.25-1-2.313-2.25-2.313s-2.25 1.063-2.25 2.313v0.625h4.5zM29.313 5.313c0.75 0 1.375 0.625 1.375 1.375v5.313c0 0.75-0.625 1.313-1.375 1.313h-6.625c-0.75 0-1.375-0.563-1.375-1.313v-5.313c0-0.75 0.625-1.375 1.375-1.375v-0.625c0-1.813 1.5-3.375 3.313-3.375s3.313 1.563 3.313 3.375v0.625z"></path>
</svg>
