<?xml version="1.0" encoding="utf-8"?>
<!-- Generated by IcoMoon.io -->
<!DOCTYPE svg PUBLIC "-//W3C//DTD SVG 1.1//EN" "http://www.w3.org/Graphics/SVG/1.1/DTD/svg11.dtd">
<svg version="1.1" xmlns="http://www.w3.org/2000/svg" xmlns:xlink="http://www.w3.org/1999/xlink" width="32" height="32" viewBox="0 0 32 32">
<path d="M5.313 17.313v9.375h9.375v2.625h-9.375c-1.438 0-2.625-1.188-2.625-2.625v-9.375h2.625zM26.688 26.688v-9.375h2.625v9.375c0 1.438-1.188 2.625-2.625 2.625h-9.375v-2.625h9.375zM26.688 2.688c1.438 0 2.625 1.188 2.625 2.625v9.375h-2.625v-9.375h-9.375v-2.625h9.375zM22.688 11.313c0 1.125-0.875 2-2 2s-2-0.875-2-2 0.875-2 2-2 2 0.875 2 2zM13.313 17.313l4 4.938 2.688-3.563 4 5.313h-16zM5.313 5.313v9.375h-2.625v-9.375c0-1.438 1.188-2.625 2.625-2.625h9.375v2.625h-9.375z"></path>
</svg>
