<?xml version="1.0" encoding="utf-8"?>
<!-- Generated by IcoMoon.io -->
<!DOCTYPE svg PUBLIC "-//W3C//DTD SVG 1.1//EN" "http://www.w3.org/Graphics/SVG/1.1/DTD/svg11.dtd">
<svg version="1.1" xmlns="http://www.w3.org/2000/svg" xmlns:xlink="http://www.w3.org/1999/xlink" width="32" height="32" viewBox="0 0 32 32">
<path d="M23 24.188l1.875-1.813 2.375 2.375-1.875 1.875zM26.688 14h4v2.688h-4v-2.688zM20 8.438c2.375 1.375 4 3.938 4 6.875 0 4.438-3.563 8-8 8s-8-3.563-8-8c0-2.938 1.625-5.5 4-6.875v-6.438h8v6.438zM5.313 14v2.688h-4v-2.688h4zM14.688 29.938v-3.938h2.625v3.938h-2.625zM4.75 24.75l2.375-2.438 1.875 1.875-2.375 2.438z"></path>
</svg>
