<?xml version="1.0" encoding="utf-8"?>
<!-- Generated by IcoMoon.io -->
<!DOCTYPE svg PUBLIC "-//W3C//DTD SVG 1.1//EN" "http://www.w3.org/Graphics/SVG/1.1/DTD/svg11.dtd">
<svg version="1.1" xmlns="http://www.w3.org/2000/svg" xmlns:xlink="http://www.w3.org/1999/xlink" width="32" height="32" viewBox="0 0 32 32">
<path d="M22 8c-1.5 0-2.688-1.188-2.688-2.688s1.188-2.625 2.688-2.625 2.688 1.125 2.688 2.625-1.188 2.688-2.688 2.688zM10 8c-1.5 0-2.688-1.188-2.688-2.688s1.188-2.625 2.688-2.625 2.688 1.125 2.688 2.625-1.188 2.688-2.688 2.688zM24 29.313h-4v-8h-4l3.375-10.125c0.375-1.063 1.438-1.875 2.563-1.875h0.125c1.125 0 2.188 0.813 2.563 1.875l3.375 10.125h-4v8zM7.313 29.313v-10h-2v-7.313c0-1.438 1.25-2.688 2.688-2.688h4c1.438 0 2.688 1.25 2.688 2.688v7.313h-2v10h-5.375z"></path>
</svg>
