<?xml version="1.0" encoding="utf-8"?>
<!-- Generated by IcoMoon.io -->
<!DOCTYPE svg PUBLIC "-//W3C//DTD SVG 1.1//EN" "http://www.w3.org/Graphics/SVG/1.1/DTD/svg11.dtd">
<svg version="1.1" xmlns="http://www.w3.org/2000/svg" xmlns:xlink="http://www.w3.org/1999/xlink" width="32" height="32" viewBox="0 0 32 32">
<path d="M15.625 25.313c3.563 0 6.375-2.813 6.375-6.375 0-1.875-0.25-3.625-0.75-5.375-1.375 1.813-3.813 2.938-6.188 3.438s-3.75 1.938-3.75 4.125c0 2.313 1.938 4.188 4.313 4.188zM18 0.875c5.188 4.188 8.688 10.625 8.688 17.813 0 5.875-4.813 10.625-10.688 10.625s-10.688-4.75-10.688-10.625c0-4.5 1.625-8.688 4.313-11.875v0.5c0 2.75 2.063 4.938 4.813 4.938s4.563-2.188 4.563-4.938c0-2.875-1-6.438-1-6.438z"></path>
</svg>
