<?xml version="1.0" encoding="utf-8"?>
<!-- Generated by IcoMoon.io -->
<!DOCTYPE svg PUBLIC "-//W3C//DTD SVG 1.1//EN" "http://www.w3.org/Graphics/SVG/1.1/DTD/svg11.dtd">
<svg version="1.1" xmlns="http://www.w3.org/2000/svg" xmlns:xlink="http://www.w3.org/1999/xlink" width="32" height="32" viewBox="0 0 32 32">
<path d="M29.313 21.313v-2c0-1.125-0.875-2-2-2s-2 0.875-2 2v2h4zM30.688 21.313c0.75 0 1.313 0.625 1.313 1.375v5.313c0 0.75-0.563 1.313-1.313 1.313h-6.688c-0.75 0-1.313-0.563-1.313-1.313v-5.313c0-0.75 0.563-1.375 1.313-1.375v-2c0-1.813 1.5-3.313 3.313-3.313s3.375 1.5 3.375 3.313v2zM27.313 12.688c-3.688 0-6.625 2.938-6.625 6.625v3.813l-4.688 6.188-16-21.313c4.438-3.375 10-5.313 16-5.313s11.563 1.938 16 5.313l-3.563 4.75c-0.375-0.063-0.75-0.063-1.125-0.063z"></path>
</svg>
