<?xml version="1.0" encoding="utf-8"?>
<!-- Generated by IcoMoon.io -->
<!DOCTYPE svg PUBLIC "-//W3C//DTD SVG 1.1//EN" "http://www.w3.org/Graphics/SVG/1.1/DTD/svg11.dtd">
<svg version="1.1" xmlns="http://www.w3.org/2000/svg" xmlns:xlink="http://www.w3.org/1999/xlink" width="32" height="32" viewBox="0 0 32 32">
<path d="M16 4c7.375 0 13.313 5.938 13.313 13.313 0 4.938-2.625 9.25-6.625 11.563l-1.375-2.313c3.188-1.875 5.375-5.313 5.375-9.25 0-5.875-4.813-10.625-10.688-10.625s-10.688 4.75-10.688 10.625c0 3.938 2.125 7.375 5.313 9.25l-1.313 2.313c-4-2.313-6.625-6.625-6.625-11.563 0-7.375 5.938-13.313 13.313-13.313zM24 17.313c0 2.938-1.625 5.563-4 6.938l-1.313-2.313c1.563-0.938 2.625-2.625 2.625-4.625 0-2.938-2.375-5.313-5.313-5.313s-5.313 2.375-5.313 5.313c0 2 1.063 3.688 2.625 4.625l-1.313 2.313c-2.375-1.375-4-4-4-6.938 0-4.438 3.563-8 8-8s8 3.563 8 8zM16 14.688c1.438 0 2.688 1.188 2.688 2.625s-1.25 2.688-2.688 2.688-2.688-1.25-2.688-2.688 1.25-2.625 2.688-2.625z"></path>
</svg>
