<?xml version="1.0" encoding="utf-8"?>
<!-- Generated by IcoMoon.io -->
<!DOCTYPE svg PUBLIC "-//W3C//DTD SVG 1.1//EN" "http://www.w3.org/Graphics/SVG/1.1/DTD/svg11.dtd">
<svg version="1.1" xmlns="http://www.w3.org/2000/svg" xmlns:xlink="http://www.w3.org/1999/xlink" width="32" height="32" viewBox="0 0 32 32">
<path d="M22.688 18.688l6.625 6.625-1.938 2-6.688-6.688v-1l-0.375-0.375c-1.5 1.313-3.5 2.063-5.625 2.063-1.625 0-3.125-0.438-4.438-1.188l2-1.938c0.75 0.313 1.563 0.5 2.438 0.5 3.313 0 6-2.688 6-6s-2.688-6-6-6-6 2.688-6 6h4.625l-5.5 5.313-5.125-5.313h3.313c0-4.688 3.875-8.688 8.688-8.688s8.688 3.875 8.688 8.688c0 2.188-0.813 4.125-2.125 5.625l0.375 0.375h1.063z"></path>
</svg>
