<?xml version="1.0" encoding="utf-8"?>
<!-- Generated by IcoMoon.io -->
<!DOCTYPE svg PUBLIC "-//W3C//DTD SVG 1.1//EN" "http://www.w3.org/Graphics/SVG/1.1/DTD/svg11.dtd">
<svg version="1.1" xmlns="http://www.w3.org/2000/svg" xmlns:xlink="http://www.w3.org/1999/xlink" width="32" height="32" viewBox="0 0 32 32">
<path d="M16 18.050v-1.050h-1v-1h1v-1h-1v-1h1v-1h-1v-1h1v-1h-1v-1h1v-1h-1v-1h1v-1h-1v-1h1v-1h-1v-1h1v-1h-4.994c-2.213 0-4.006 1.792-4.006 3.998v19.003c0 2.208 1.787 3.998 4.006 3.998h10.988c2.213 0 4.006-1.792 4.006-3.998v-19.003c0-2.208-1.787-3.998-4.006-3.998h-3.994v1h-1v1h1v1h-1v1h1v1h-1v1h1v1h-1v1h1v1h-1v1h1v1h-1v1h1v1h-1v2.049c1.147 0.231 2 1.24 2 2.451 0 1.39-1.119 2.5-2.5 2.5-1.39 0-2.5-1.119-2.5-2.5 0-1.218 0.859-2.22 2-2.45v0 0zM16.5 19c-0.828 0-1.5 0.666-1.5 1.5 0 0.828 0.666 1.5 1.5 1.5 0.828 0 1.5-0.666 1.5-1.5 0-0.828-0.666-1.5-1.5-1.5v0z"></path>
</svg>
